<svg id="Layer_1" data-name="Layer 1" xmlns="http://www.w3.org/2000/svg" viewBox="0 0 498.2 401.8"><defs><style>.cls-1,.cls-2{fill:#fff;}.cls-2{stroke:#fff;stroke-miterlimit:10;}</style></defs><title>logomark</title><path class="cls-1" d="M498,236.14c-.68,1.79-1.37,3.58-2,5.39-2.47-8.24-4.39-16.2-7.25-23.81-6-15.89-16.73-26.69-34-30a84.65,84.65,0,0,1-9.44-2.38c-16.58-5.23-32.74-2.93-48.78,2.48-6.49,2.19-13.27,3.66-19.51,6.38-7.85,3.44-16,6.91-22.74,12-10.81,8.2-8.77,18.39,3.31,24.46,7.54,3.78,14.88,4.17,23,2.74q22.88-4,45.95-7c10.11-1.32,19.18,1.5,27,8.4,4.21,3.71,5.24,7.81,2.69,12.5-4.78,8.77-11.05,16.72-21.18,18.84-12.28,2.58-24.89,3.57-37.36,5.21-7.46,1-15.33.74-22.31,3.12-11.77,4-16,15.87-8.53,27,6.75,10,15.89,16,27,20.45,17.13,6.9,33,5.16,48.9-3.18,4.43-2.32,9.35-4.44,14.23-5,8-.91,13.08-5.3,17.87-11,3.47-4.11,6.83-8.54,12.61-11.6A240.6,240.6,0,0,0,498,236.14ZM467.36,301a18.8,18.8,0,0,1-5.4,3.49c-11.73,4.55-23.47,9.1-35.32,13.32-8.49,3-17,2.38-25.31-1.16-3.31-1.4-6.68-2.68-10-4-10.69-4.31-17.9-11.71-20.69-23.07,6.62-12.23,17.73-11.44,28-12.24,12.5-1,25-.93,37.25-4.82,12.53-4,21.27-11.7,27.24-22.86,4.22-7.88,2.85-12.77-3.79-19.26a37.47,37.47,0,0,0-30.62-10.91c-14.65,1.31-29.19,3.78-43.8,5.63-4.64.59-9.39,1.43-14,1a25.58,25.58,0,0,1-10.84-3.92c-4.39-2.77-4.53-7.29-.81-10.76,6.52-6.07,13.31-11.43,22.57-13.23,12.32-2.4,23.55-8.64,36.46-9.63,9.16-.7,17.92-.76,26.61,2.21,4.1,1.4,8.09,3.28,12.29,4.16,13.13,2.74,20.77,12.13,25.11,23.29a117.34,117.34,0,0,1,7.52,33.5C491.36,271.74,482.11,287.84,467.36,301Z" transform="translate(-0.9 -49.1)"/><path class="cls-1" d="M414.84,326.84a56.31,56.31,0,0,1-21.24-4.3c-12.71-5.12-21.13-11.5-27.32-20.7-3.72-5.55-4.79-11.54-3-16.87,1.75-5.17,6-9.12,11.87-11.14,4.83-1.64,10.13-2.06,15.25-2.45,2.38-.19,4.83-.38,7.19-.69,3.65-.48,7.3-.91,10.95-1.33,8.7-1,17.7-2.06,26.36-3.88,10.65-2.23,16.67-11.06,20.72-18.5,2.33-4.28,1.5-8.09-2.55-11.66a32.29,32.29,0,0,0-26.47-8.24c-15.64,2-31.09,4.41-45.92,7-9.12,1.6-16.33.74-23.4-2.81-6.44-3.24-10.23-7.71-10.68-12.59-.42-4.59,2.09-9.1,7.27-13,6.54-5,14.36-8.37,21.92-11.68l1-.42a104.45,104.45,0,0,1,12.46-4.23c2.34-.68,4.77-1.39,7.1-2.18,18.81-6.34,34.45-7.13,49.2-2.48a83.8,83.8,0,0,0,9.36,2.36c16.49,3.16,28.1,13.4,34.5,30.43,2,5.24,3.47,10.54,5.05,16.16.54,1.9,1.07,3.81,1.64,5.74l1.32-3.48,1.71-4.46-.39,4.76a239.81,239.81,0,0,1-10.6,55.15l-.09.27-.24.13c-5.13,2.71-8.34,6.56-11.44,10.28l-1,1.15c-4.42,5.25-9.7,10.24-18.32,11.23-5.26.6-10.5,3.1-14,4.93C433.52,324.34,424.16,326.84,414.84,326.84Zm16.43-101.43A33.6,33.6,0,0,1,454,234.3c4.53,4,5.48,8.48,2.84,13.33-4.19,7.7-10.44,16.84-21.64,19.19-8.72,1.83-17.75,2.88-26.48,3.89-3.65.43-7.29.85-10.93,1.33-2.4.32-4.87.51-7.26.7-5,.39-10.25.79-14.92,2.38-5.5,1.88-9.41,5.53-11,10.29-1.65,4.92-.65,10.48,2.84,15.66,6,9,14.25,15.19,26.69,20.2,16.1,6.49,31.91,5.47,48.32-3.14,3.59-1.88,9-4.45,14.48-5.08,8.14-.93,13.19-5.71,17.42-10.75l1-1.14c3.14-3.77,6.38-7.66,11.6-10.49a234.24,234.24,0,0,0,10-49.64l-.28.73-.71,1.91-.58-1.95c-.78-2.59-1.51-5.17-2.22-7.71-1.58-5.59-3.07-10.87-5-16-6.22-16.56-17.49-26.5-33.47-29.57a84,84,0,0,1-9.52-2.4c-14.46-4.56-29.83-3.77-48.35,2.48-2.36.8-4.8,1.51-7.16,2.19a105.17,105.17,0,0,0-12.29,4.17l-1,.42c-7.48,3.27-15.23,6.66-21.63,11.52-4.79,3.63-7.12,7.72-6.74,11.82.4,4.39,3.93,8.47,9.94,11.49,6.78,3.41,13.74,4.23,22.54,2.68,14.85-2.62,30.32-5,46-7A38.18,38.18,0,0,1,431.27,225.41Zm-15.61,95a37,37,0,0,1-14.6-3.14c-2.19-.93-4.44-1.82-6.62-2.68l-3.37-1.34c-11.28-4.54-18.38-12.46-21.1-23.54l-.06-.26.12-.23c6.07-11.21,15.77-11.8,25.14-12.37l3.42-.22c2.6-.21,5.21-.37,7.81-.53,9.66-.59,19.65-1.2,29.29-4.26,12-3.8,20.76-11.17,26.84-22.53,3.9-7.3,3-12-3.67-18.46a36.66,36.66,0,0,0-30.08-10.71c-9.54.85-19.2,2.22-28.54,3.54-5,.71-10.15,1.44-15.24,2.09l-2.23.29a52.83,52.83,0,0,1-11.9.71,26.62,26.62,0,0,1-11.14-4,7.43,7.43,0,0,1-3.74-5.47,7.81,7.81,0,0,1,2.84-6.37c7.27-6.78,13.95-11.66,22.9-13.4a118.21,118.21,0,0,0,15.06-4.36c6.83-2.31,13.9-4.7,21.47-5.28,8.62-.66,17.83-.85,26.89,2.24,1.34.46,2.67,1,4,1.48a55,55,0,0,0,8.21,2.66c11.83,2.47,20.44,10.45,25.61,23.71a118.71,118.71,0,0,1,7.56,33.7c1.38,18.45-6.26,35.22-22.71,49.84a19,19,0,0,1-5.62,3.61c-12.56,4.89-23.9,9.26-35.33,13.34A33.17,33.17,0,0,1,415.66,320.37Zm-44.3-30.77c2.69,10.64,9.3,17.95,20.21,22.34l3.37,1.34c2.19.87,4.45,1.76,6.65,2.7,8.49,3.6,16.84,4,24.82,1.14,11.42-4.07,22.74-8.44,35.3-13.32a17.63,17.63,0,0,0,5.2-3.36h0c16.12-14.33,23.61-30.72,22.26-48.72a117.26,117.26,0,0,0-7.47-33.3c-5-12.81-13.27-20.5-24.62-22.87a55.54,55.54,0,0,1-8.42-2.73c-1.31-.5-2.63-1-4-1.45-8.82-3-17.87-2.83-26.34-2.18-7.4.57-14.39,2.93-21.14,5.22a121.08,121.08,0,0,1-15.23,4.4c-8.64,1.68-15.14,6.43-22.24,13.06a6.55,6.55,0,0,0-2.42,5.25,6.07,6.07,0,0,0,3.12,4.44A25.13,25.13,0,0,0,371,225.37a52,52,0,0,0,11.58-.7l2.25-.3c5.08-.64,10.23-1.37,15.22-2.08,9.36-1.32,19-2.69,28.61-3.55a37.94,37.94,0,0,1,31.16,11.1c7.1,6.95,8.12,12.2,3.91,20.07-6.25,11.69-15.29,19.27-27.63,23.19-9.79,3.11-19.87,3.73-29.62,4.32-2.59.16-5.19.32-7.79.53-1.13.09-2.28.16-3.43.23C386.32,278.72,377.08,279.28,371.36,289.6Z" transform="translate(-0.9 -49.1)"/><path class="cls-1" d="M119.2,218.35c.74-4.09,1.11-6.42,1.59-8.74,3.39-16.6-10.85-34.89-29.26-29.23-13.38,4.11-27.24,6.81-40.32,11.69C34.92,198.15,24,210.71,16.73,226.26,7.59,245.77,5,266.09,9.8,287.31c3.79,16.87,14.94,27.39,29.06,35.84,18.74,11.23,39,11.42,59.69,8.74,9.55-1.24,17.83-5.41,25.41-11.23,5.2-4,9.27-8.94,7.55-15.56-1.88-7.25-6.52-13.5-14.63-14.18-10.33-.87-20.76-.59-31.15-.56-7.19,0-14.55,1.57-21.54.5C42.09,287.47,33.79,272,35.61,251c.71-8.19,5-16.59,9.35-23.82,5.22-8.59,13.41-13.8,24.32-13.59,14.29.28,28.59.07,42.89.22,1.19,0,2.37,1.13,4.53,2.23-6.19,6.66-13.4,5.17-20.1,5.06a161.5,161.5,0,0,1-20.41-1.25c-16.23-2.36-24.92,6.84-31,19.82-4.24,9.12-5.19,18.51-.7,28.19,4.59,9.91,14.29,16.7,25.5,16.31,10.81-.37,21.61-1.7,32.41-1.63a84.36,84.36,0,0,1,21.23,3.13c3.44.93,7,4,9,7,10.11,14.72,8.52,23.18-6.16,33.58-8.31,5.89-17.37,10.23-27.84,10.88-6.47.4-13,.84-19.39,1.64-17.58,2.18-32.33-5.45-47-13.35C9.34,313,1.47,292.35,1.59,267.68a103.34,103.34,0,0,1,16.84-57.2c9.46-14.61,23.38-22.63,38.32-28.53C69,177.12,82.51,175.23,95.62,173c9.92-1.69,18.64,1.9,24.48,10.42,6.48,9.45,8.4,19.85,4.48,30.85C124.12,215.57,122,216.28,119.2,218.35Z" transform="translate(-0.9 -49.1)"/><path class="cls-1" d="M73.28,339.83c-15.65,0-29.17-7.28-41.25-13.8C11,314.66.77,295.58.9,267.68c.1-21.28,5.65-40.11,17-57.57C28.28,194,44,186.26,56.5,181.32,67.39,177,79.37,175,91,173.09l4.56-.76c10.29-1.76,19.22,2,25.15,10.71,6.89,10,8.42,20.62,4.56,31.46-.37,1.05-1.44,1.71-2.91,2.61-.79.5-1.7,1-2.71,1.79l-1.38,1,.31-1.69c.26-1.44.47-2.67.66-3.75.36-2,.62-3.5.93-5a25.9,25.9,0,0,0-7.85-23.93A20.54,20.54,0,0,0,91.73,181c-5.26,1.62-10.69,3-15.93,4.42-8.08,2.12-16.44,4.31-24.35,7.26-14.69,5.48-26.16,16.87-34.1,33.84-9.2,19.64-11.51,40-6.88,60.61,3.26,14.54,12.13,25.46,28.74,35.41,19.74,11.82,41,11,59.25,8.64,8.62-1.12,16.82-4.74,25.08-11.09,6.35-4.88,8.67-9.6,7.31-14.85-1.24-4.77-4.71-12.89-14-13.67-8.46-.71-17.14-.65-25.53-.59-1.85,0-3.71,0-5.56,0-2.63,0-5.33.23-8,.44-4.52.37-9.21.74-13.69,0C43.3,288.34,32.94,273.93,34.93,251c.77-9,5.76-18,9.44-24.11,5.66-9.31,14.22-14.1,24.93-13.92,8.26.16,16.67.16,24.8.15,5.93,0,12.05,0,18.08.06a6,6,0,0,1,2.89,1.2c.56.34,1.19.73,1.94,1.11l.81.42-.62.66c-5.51,5.93-11.71,5.65-17.72,5.37-1,0-1.93-.08-2.89-.1a160.68,160.68,0,0,1-20.5-1.25c-13.74-2-23.07,4-30.24,19.42-4.55,9.79-4.78,18.82-.7,27.62,4.64,10,14.46,16.28,24.86,15.92,4.38-.15,8.83-.46,13.14-.77,6.32-.44,12.86-.9,19.29-.86A84.31,84.31,0,0,1,123.85,285c3.31.9,7,3.76,9.43,7.28,10.25,14.92,8.6,23.95-6.33,34.52-9.77,6.92-18.72,10.42-28.19,11-6.22.39-12.84.83-19.35,1.64A51.28,51.28,0,0,1,73.28,339.83Zm27-166.55a27.39,27.39,0,0,0-4.54.39l-4.57.77c-11.51,1.92-23.41,3.9-34.17,8.15-12.32,4.87-27.78,12.48-38,28.26C7.84,228.09,2.37,246.68,2.27,267.69c-.13,27.34,9.81,46,30.4,57.14,13.46,7.26,28.72,15.48,46.58,13.27,6.54-.81,13.18-1.25,19.43-1.64,9.2-.57,17.93-4,27.48-10.75,14.47-10.25,15.93-18.18,6-32.64-1.84-2.68-5.24-5.8-8.67-6.73a82.53,82.53,0,0,0-21.06-3.1c-6.37-.05-12.89.41-19.18.85-4.32.31-8.79.63-13.19.78-11,.39-21.27-6.19-26.15-16.71-4.26-9.19-4-18.6.7-28.77,9.69-20.83,22.71-21.51,31.67-20.2a159.72,159.72,0,0,0,20.34,1.23c1,0,1.94.07,2.93.11,5.45.25,11.09.51,16-4.31-.45-.25-.85-.5-1.22-.72a5.05,5.05,0,0,0-2.2-1c-6-.06-12.15-.06-18.06-.06-8.13,0-16.55,0-24.83-.16-10.11-.19-18.34,4.39-23.73,13.27-3.61,5.94-8.5,14.85-9.25,23.52-2.46,28.4,13.87,36.94,28,39.11,4.33.67,8.93.3,13.38-.06,2.64-.21,5.38-.43,8.06-.44l5.55,0c8.43-.06,17.14-.12,25.66.59,7.42.62,13,6,15.23,14.69,2,7.68-3.49,13-7.79,16.27-8.46,6.5-16.88,10.22-25.74,11.36-18.46,2.39-40,3.22-60.13-8.82-17-10.16-26-21.35-29.38-36.28-4.69-20.88-2.35-41.57,7-61.49C24.21,208.66,35.94,197,51,191.43c8-3,16.37-5.17,24.48-7.3,5.23-1.37,10.64-2.79,15.88-4.4a21.86,21.86,0,0,1,21.86,4.81,27.31,27.31,0,0,1,8.27,25.21c-.31,1.49-.57,3-.92,5-.12.65-.24,1.36-.38,2.14.52-.35,1-.64,1.44-.91,1.23-.76,2.12-1.31,2.34-1.91,3.7-10.4,2.22-20.57-4.4-30.23C114.82,176.92,108.09,173.28,100.28,173.28Z" transform="translate(-0.9 -49.1)"/><path class="cls-1" d="M146.56,256.8c1.41-34.19,13.1-56.65,44.56-68.77,15.69-6,32.65-11.48,50.45-8.38,3.17.55,6.46.35,9.69.52,29.6,1.59,52.81,15.05,66.58,40.89,9.3,17.46,10.43,37.47,4.23,56.86-9,28.16-27.49,48.26-55.42,57.62-11.94,4-25.65,5.08-38.3,4.1-39.32-3.05-63.95-26.29-78.06-61.7C147.7,271.43,147.74,263.88,146.56,256.8ZM238,186.67c-7.79-2.66-15.25.79-22.88,2.75-4.84,1.24-9.69,2.52-14.44,4.09-5.73,1.91-11.73,3.48-16.95,6.38C163,211.39,155.3,230.6,154.25,253a75.91,75.91,0,0,0,2,21.3c3.94,16.3,14.2,28.8,26.21,40,15.62,14.55,34.69,20.81,55.41,20.08,26.8-.95,48.84-13.62,65.8-33.75,11.14-13.21,17.1-30,15.71-47.17-2.44-30.24-14.61-48.58-47.25-61.92C261.23,187.09,250,185.85,238,186.67Z" transform="translate(-0.9 -49.1)"/><path class="cls-1" d="M237,340.66c-2.89,0-5.82-.11-8.74-.34-36.9-2.86-63.36-23.77-78.64-62.13-1.81-4.54-2.37-9.61-2.9-14.51-.25-2.24-.5-4.55-.87-6.76v-.14c1.53-37.08,15-57.83,45-69.38,14.94-5.76,32.41-11.63,50.82-8.42a40.52,40.52,0,0,0,6.34.42c1.09,0,2.18,0,3.27.09,30.41,1.63,53.63,15.9,67.14,41.25,9.12,17.12,10.64,37.5,4.28,57.38C313.5,307,294.18,327,266.86,336.19A95.28,95.28,0,0,1,237,340.66Zm-89.79-83.9c.36,2.23.62,4.54.86,6.77.53,4.81,1.08,9.79,2.82,14.16C166,315.52,192.06,336.14,228.41,339c13.55,1.06,27.06-.39,38-4.06,27.27-9.15,45.77-28.39,55-57.19,6.25-19.54,4.76-39.54-4.19-56.33-13.27-24.91-36.09-38.92-66-40.52-1.06-.06-2.14-.08-3.21-.09a42.41,42.41,0,0,1-6.55-.44c-18.06-3.15-35.33,2.65-50.1,8.34C162,200,148.77,220.36,147.25,256.76Zm87.34,78.36c-20.43,0-38.11-6.83-52.59-20.32-10-9.33-22.06-22.34-26.42-40.33a77.07,77.07,0,0,1-2-21.49c1.2-25.67,11-43.23,29.81-53.69a72.26,72.26,0,0,1,13.38-5.23l3.69-1.19c4.8-1.6,9.79-2.91,14.48-4.12,1.52-.38,3-.83,4.53-1.28,6-1.78,12.21-3.62,18.61-1.49,12.85-.86,24.07.75,34.32,4.93,31.72,13,45.09,30.48,47.67,62.49,1.38,17-4.26,33.9-15.87,47.68-18.24,21.63-40.54,33.07-66.29,34C236.79,335.1,235.69,335.12,234.59,335.12ZM232,186.38c-4,0-8,1.18-12.11,2.4-1.52.45-3,.91-4.57,1.3-4.67,1.19-9.63,2.5-14.39,4.08-1.23.41-2.47.8-3.71,1.2A71.68,71.68,0,0,0,184,200.48c-18.41,10.22-27.93,27.41-29.11,52.57a75.79,75.79,0,0,0,2,21.1c4.27,17.64,16.15,30.46,26,39.65,15,14,33.43,20.64,54.92,19.89,25.35-.89,47.32-12.16,65.3-33.49,11.37-13.5,16.9-30.08,15.56-46.69-2.55-31.41-15.68-48.6-46.84-61.34-10.08-4.11-21.16-5.69-33.84-4.81h-.14l-.13,0A17.74,17.74,0,0,0,232,186.38Z" transform="translate(-0.9 -49.1)"/><path class="cls-1" d="M331.71,130.29c0,9.72.28,19.44-.08,29.15-.35,9.36-5,16.45-13.36,20.74-7.42,3.81-15.22,1.56-19.32-5.82-5.26-9.48-9.28-19.11-7.72-30.72,1.14-8.43.24-17.24-.59-25.8-.88-8.93-5.23-16-14.86-17.45-10.23-1.58-20.51-1.25-27.08,8.42-4,5.89-6.77,12.64-9.92,19.09-1.72,3.55-3.08,7.28-4.58,10.93-7,16.94-22.2,19-37,13.75-10.69-3.81-14.56-14.17-14.9-24.4a75.12,75.12,0,0,1,4.17-26.42c5-14.39,13.08-27.41,25.08-37.09,9.32-7.53,20.5-11.75,32.42-13.77,26-4.39,48.88,4.71,71.11,16.29,3.21,1.67,5.75,5.38,7.65,8.69,6,10.43,9.87,21.47,9,33.87-.5,6.82-.09,13.69-.09,20.54Zm-4-3c-1.2-9.75-2.19-22.3-4.42-34.63-1.73-9.52-7-18-15.8-22.16-18.9-8.81-38.08-16.47-60-13.17-18.08,2.72-33,10-43.7,24.8-9.88,13.71-16.34,28.72-15.39,46.16.54,10,6,18.22,13.46,20,11.82,2.86,19.37.44,25-9.32a133.39,133.39,0,0,0,9.2-20.64c7.25-19.73,16.6-26,37.65-24.52,12.08.83,17.92,5.83,22,17.32,3.78,10.57,2.81,21.22,1.86,31.92-.75,8.46,0,16.57,4.24,24.07,2.31,4.11,4.81,8.62,10.32,8.34s9-4.22,11.09-9.1a24.26,24.26,0,0,0,1.94-7.2C326,149.55,326.67,139.88,327.66,127.29Z" transform="translate(-0.9 -49.1)"/><path class="cls-1" d="M311.09,182.7c-5.17,0-9.84-2.8-12.73-8-5-9-9.43-19.05-7.8-31.14,1.1-8.21.26-16.85-.56-25.21l0-.43c-.67-6.78-3.68-15.21-14.28-16.85-9.35-1.44-19.8-1.61-26.41,8.13a104.42,104.42,0,0,0-7.68,14.39q-1.08,2.33-2.19,4.62c-1.23,2.52-2.29,5.19-3.31,7.77-.42,1-.83,2.09-1.26,3.12-6.3,15.33-20.12,20.48-37.91,14.13-12.79-4.56-15.1-17.63-15.35-25a76,76,0,0,1,4.21-26.66c5.4-15.64,13.91-28.22,25.29-37.41,8.71-7,19.72-11.7,32.74-13.9,26.63-4.51,50.12,5.2,71.53,16.35,3.57,1.86,6.23,6,7.93,9,7,12.2,9.87,23.09,9.06,34.26-.34,4.67-.25,9.46-.17,14.09,0,1.9.08,3.81.08,5.71h.15v.69c0,3,0,5.92.06,8.88.06,6.65.12,13.53-.14,20.29-.35,9.53-5.1,16.9-13.72,21.33A16.47,16.47,0,0,1,311.09,182.7ZM267.62,99a55.19,55.19,0,0,1,8.27.72c9.07,1.4,14.41,7.65,15.43,18.06l0,.43c.82,8.44,1.68,17.16.55,25.53-1.58,11.69,2.74,21.47,7.64,30.3,3.87,7,11.28,9.2,18.41,5.54,8.16-4.18,12.65-11.16,13-20.16.25-6.73.19-13.59.13-20.23,0-2.74-.05-5.47-.05-8.21h-.15v-.68c0-2.12,0-4.25-.08-6.38-.09-4.66-.17-9.48.17-14.2.79-10.9-2-21.54-8.89-33.49-1.61-2.81-4.12-6.73-7.37-8.43-21.2-11-44.43-20.65-70.67-16.21-12.79,2.16-23.59,6.74-32.11,13.62-11.18,9-19.54,21.39-24.86,36.79a74.6,74.6,0,0,0-4.13,26.17c.23,7,2.41,19.49,14.44,23.78,8,2.87,27.69,7.32,36.19-13.37.42-1,.83-2.07,1.25-3.11,1-2.6,2.1-5.29,3.35-7.86.74-1.52,1.46-3.06,2.18-4.6a105.22,105.22,0,0,1,7.79-14.58C253.2,101,260.51,99,267.62,99Zm43.95,77.19c-5.53,0-8.1-4.57-10.38-8.62-3.87-6.87-5.24-14.65-4.36-24.54v-.16c.92-10.37,1.87-21.1-1.84-31.47-4.11-11.5-9.92-16.08-21.43-16.87-20.77-1.43-29.74,4.42-37,24.08a135.33,135.33,0,0,1-9.25,20.74C221.73,149.11,214,152,201.61,149c-7.67-1.85-13.42-10.35-14-20.65-.86-15.69,4.22-30.93,15.52-46.6,10-13.91,24.47-22.11,44.15-25.07,22.37-3.36,42.12,4.69,60.43,13.23,8.37,3.9,14.27,12.16,16.18,22.65,1.6,8.83,2.57,17.8,3.42,25.72.34,3.16.66,6.17,1,8.95v.14c-.28,3.61-.54,7-.79,10.19-.6,8-1.13,14.83-1.78,21.71a24.92,24.92,0,0,1-2,7.41c-2.6,6.05-6.54,9.25-11.69,9.51ZM268.12,93c1.76,0,3.6.07,5.54.21,12,.83,18.35,5.81,22.63,17.77,3.8,10.66,2.84,21.53,1.91,32l0,.16c-.85,9.61.47,17.13,4.16,23.67,2.3,4.1,4.64,8.26,9.68,8,4.59-.24,8.13-3.16,10.51-8.69a23.79,23.79,0,0,0,1.89-7c.64-6.86,1.17-13.73,1.77-21.68.24-3.19.5-6.54.78-10.13-.34-2.77-.66-5.76-1-8.91-.85-7.89-1.81-16.83-3.41-25.62-1.82-10-7.44-17.94-15.41-21.66C289,62.67,269.5,54.7,247.5,58c-19.3,2.9-33.44,10.92-43.25,24.52-11.11,15.41-16.1,30.36-15.26,45.73.53,9.7,5.85,17.68,12.94,19.4,11.88,2.87,18.9.27,24.24-9a133.21,133.21,0,0,0,9.15-20.52C242.05,99.83,250.65,93,268.12,93Z" transform="translate(-0.9 -49.1)"/><path class="cls-1" d="M375.37,401.45c-.94,10.05.27,21.36-7.06,31.21-5.32,7.15-11,12.53-20.08,15.06-21.55,6-38.68,1.16-52.73-14.64-9.36-10.52-16.82-22.49-19.07-37-1.42-9.21-3.54-18.31-4.92-27.52-.91-6.14,2-9.87,8.67-13.28,5.35-2.73,9.81-1.74,13.49,2.73a94.93,94.93,0,0,1,6.93,9.62c4.22,6.72,8,13.71,12.41,20.3a56.17,56.17,0,0,0,9.09,10.66c7.35,6.61,14.16,7.51,20.65,3.45,5.92-3.72,9.8-13.44,7.72-21.08-1.11-4.1-3.33-7.92-5.24-11.77-4.08-8.27-8.28-16.47-12.43-24.69a10.16,10.16,0,0,1-.95-1.93c-1.72-6.73-.6-12.19,2.9-13.62,5.84-2.39,8.56,2.16,11.59,5.58,5.75,6.46,11.63,12.84,16.88,19.7,8.42,11,11.3,24,12.12,37.55C375.52,394.68,375.37,397.58,375.37,401.45Zm-35.28-62.79c.63,3,.75,6.3,2,9.06,3.53,7.83,7.21,15.64,11.42,23.12,5.51,9.8,4.9,19.26-.34,28.73-5.83,10.55-17.52,14.45-27.53,8a71.92,71.92,0,0,1-17-16.11c-5.5-7-9.48-15.25-14.24-22.88-2.27-3.64-4.46-7.81-9.55-7.66-3.51.11-6.61,6.4-6.54,12.46a16.56,16.56,0,0,0,.45,3.2c1.49,7,3.14,14,4.49,21,2.49,12.95,9.86,23.34,18.69,32.27,12,12.12,26.85,15.82,43.72,11.61,13.92-3.47,19.88-13.91,22.65-26.19,2.54-11.23,1.4-22.8-.33-34.32C365.23,362.59,352.05,351.31,340.09,338.66Z" transform="translate(-0.9 -49.1)"/><path class="cls-1" d="M331.38,450.9c-14.06,0-26.06-5.75-36.39-17.37-11.11-12.49-17.22-24.35-19.23-37.33-.69-4.44-1.55-8.95-2.39-13.3-.89-4.65-1.82-9.45-2.53-14.22-.93-6.19,1.69-10.24,9-14,5.58-2.85,10.4-1.87,14.32,2.91a93.08,93.08,0,0,1,7,9.69c1.75,2.77,3.45,5.64,5.09,8.42,2.33,3.93,4.74,8,7.31,11.87a55.62,55.62,0,0,0,9,10.52c7,6.27,13.46,7.37,19.83,3.38,5.89-3.7,9.36-13.19,7.43-20.32a48.71,48.71,0,0,0-3.95-9.18l-1.25-2.47c-2.9-5.86-5.9-11.79-8.81-17.53l-3.62-7.16c-.09-.19-.21-.38-.31-.57a5.8,5.8,0,0,1-.69-1.49c-1.84-7.19-.54-12.85,3.3-14.42,5.57-2.28,8.59,1.3,11.25,4.46q.56.66,1.11,1.29l2.92,3.27c4.73,5.29,9.61,10.75,14,16.47,7.39,9.64,11.28,21.7,12.27,37.93.11,1.94.09,3.87.05,6.1,0,1.11,0,2.29,0,3.59v.06c-.19,2-.29,4.08-.39,6.24-.42,8.51-.84,17.31-6.8,25.31-4.69,6.3-10.41,12.51-20.44,15.32A63.21,63.21,0,0,1,331.38,450.9Zm-45.61-96.43a11.68,11.68,0,0,0-5.28,1.44c-6.81,3.48-9.13,7-8.3,12.57.71,4.74,1.63,9.53,2.52,14.16.84,4.37,1.71,8.88,2.4,13.35,2,12.71,8,24.35,18.9,36.64,13.9,15.62,30.92,20.35,52,14.44,9.64-2.7,15.17-8.72,19.71-14.82,5.71-7.68,6.13-16.26,6.53-24.56.1-2.08.21-4.22.4-6.27,0-1.29,0-2.47,0-3.58,0-2.2.06-4.11-.06-6-1-15.95-4.77-27.76-12-37.18-4.35-5.68-9.22-11.12-13.93-16.39L345.83,335c-.38-.43-.76-.88-1.13-1.32-2.59-3.08-5.05-6-9.69-4.08-3.13,1.28-4.13,6.43-2.5,12.82a5.2,5.2,0,0,0,.55,1.15c.12.21.24.42.35.64l3.62,7.15c2.91,5.74,5.91,11.68,8.81,17.54.41.82.82,1.64,1.24,2.45a49.64,49.64,0,0,1,4.05,9.46c2.08,7.64-1.66,17.84-8,21.82-6.87,4.3-14.09,3.12-21.47-3.51a57,57,0,0,1-9.2-10.79c-2.6-3.89-5-8-7.36-11.93-1.63-2.77-3.33-5.63-5.06-8.39a94.37,94.37,0,0,0-6.88-9.54C291,355.8,288.51,354.47,285.77,354.47Zm46.9,89.32c-11.88,0-22.34-4.51-31.21-13.5-10.67-10.8-16.66-21.16-18.87-32.62-.88-4.57-1.9-9.2-2.89-13.68-.54-2.43-1.08-4.87-1.6-7.31a17.43,17.43,0,0,1-.46-3.33c-.07-6.11,3-13,7.2-13.15,5.18-.13,7.56,3.77,9.69,7.23l.46.74c1.61,2.59,3.15,5.27,4.64,7.87a127.62,127.62,0,0,0,9.55,15A71.29,71.29,0,0,0,326,407,17.37,17.37,0,0,0,340,409.51c5.18-1.3,9.66-4.95,12.61-10.27,5.38-9.73,5.49-18.91.33-28.06-4.4-7.82-8.25-16.11-11.44-23.18a23.7,23.7,0,0,1-1.55-6.35c-.15-1-.29-1.92-.49-2.86l-.48-2.35,1.65,1.75c1.53,1.62,3.09,3.22,4.64,4.82,10.8,11.12,21,21.61,23.43,37.8,1.95,13,2.76,23.85.33,34.58-3.42,15.13-10.78,23.61-23.15,26.69A54.39,54.39,0,0,1,332.67,443.79Zm-47.54-82.23h-.25c-3,.08-5.94,6-5.88,11.76a16.11,16.11,0,0,0,.44,3.07c.52,2.44,1.06,4.87,1.59,7.3,1,4.49,2,9.12,2.9,13.71,2.16,11.18,8,21.32,18.5,31.92,11.66,11.81,26.15,15.65,43.07,11.43,11.82-2.95,18.86-11.11,22.16-25.68,2.38-10.52,1.58-21.23-.35-34.07-2.36-15.75-12.42-26.1-23.06-37.05l-3.1-3.2c0,.23.07.46.11.69a22.85,22.85,0,0,0,1.44,6c3.18,7,7,15.29,11.39,23.07,5.41,9.6,5.3,19.22-.33,29.39-3.13,5.66-7.92,9.54-13.47,10.93a19,19,0,0,1-15-2.73,72.45,72.45,0,0,1-17.15-16.26,127.25,127.25,0,0,1-9.66-15.12c-1.49-2.59-3-5.26-4.62-7.82l-.46-.75C291.28,364.76,289.31,361.56,285.13,361.56Z" transform="translate(-0.9 -49.1)"/><path class="cls-1" d="M183.16,387.79c9.25-1,13.6-5.11,16.05-14.63,1.17-4.52,2.41-9,3.67-13.5,1.92-6.82,7.49-9.41,13.53-11,5.3-1.42,11,3.49,10.31,9-2,15.69-3.71,31.46-6.68,47-2.45,12.86-13.57,18.89-23.56,25.28-3.3,2.1-7.2,3.31-10.92,4.67-17.28,6.34-36.15-4.73-41.13-18.46-7.27-20.08-5.24-39.68,2.42-58.93,3.2-8,9.46-13.29,18.58-14.77,8.6-1.39,11-.68,14.58,7,3.05,6.63,4.88,13.34,2.1,20.87C180,376.06,179.19,382.27,183.16,387.79Zm-37.71,2.33c.7,9.26,2.57,17.67,6.85,25.41,4.47,8.11,11.84,13.77,20.8,13.47,15.38-.51,29.26-6.52,37.56-20.16,8.71-14.3,8.52-31,9.54-47.17.09-1.42-1.49-4-2.58-4.18-1.81-.27-4.83.41-5.59,1.72A41.23,41.23,0,0,0,207.85,370c-4.06,16.45-11,23.32-24.46,24.59-4.54.43-7-1.24-7.76-5.39-1-5.94-3.19-11.68-.74-18.06,1.49-3.87,1.62-8.57,1.21-12.79-.86-9-8-12.46-15.31-7.15-3.59,2.62-7,6.69-8.41,10.82C149.35,371.17,147.67,380.74,145.45,390.12Z" transform="translate(-0.9 -49.1)"/><path class="cls-1" d="M175.16,437.11a34.07,34.07,0,0,1-14.37-3.26c-8-3.74-14.39-10.28-17-17.48-6.8-18.79-6-38.22,2.42-59.41,3.37-8.46,10-13.71,19.11-15.19,8.72-1.42,11.6-.65,15.31,7.43,2.75,6,5.15,13.19,2.12,21.39-2.52,6.79-2.28,12,.73,16.47,8.61-1.06,12.71-4.91,15.07-14.07,1.28-4.95,2.64-9.82,3.67-13.51,2.08-7.39,8.25-10,14-11.5a9.21,9.21,0,0,1,11.16,9.78c-.32,2.56-.63,5.13-.95,7.7-1.59,12.94-3.24,26.31-5.73,39.32-2.32,12.13-12.06,18.28-21.49,24.22l-2.38,1.5a44.56,44.56,0,0,1-9.17,4.07l-1.88.67A30.83,30.83,0,0,1,175.16,437.11Zm-4.23-94.57a34.31,34.31,0,0,0-5.39.58c-8.63,1.4-14.88,6.36-18.06,14.35-8.3,20.86-9.09,40-2.4,58.44,2.49,6.86,8.57,13.11,16.28,16.7a31.12,31.12,0,0,0,24,1.35l1.89-.68a43.91,43.91,0,0,0,8.9-3.93l2.38-1.51c9.18-5.78,18.67-11.76,20.88-23.32,2.48-13,4.12-26.31,5.71-39.23l1-7.71a7.85,7.85,0,0,0-9.46-8.28c-5.39,1.44-11.15,3.82-13,10.55-1,3.68-2.39,8.55-3.66,13.48-2.54,9.84-7.21,14.08-16.65,15.13l-.39.05-.24-.33c-3.47-4.83-3.84-10.74-1.13-18.07,2.86-7.73.55-14.62-2.08-20.34C176.86,344.25,175,342.54,170.93,342.54Zm1.5,87.16c-8.33,0-15.85-5-20.73-13.84-3.94-7.12-6.14-15.29-6.93-25.69v-.1l0-.11c.65-2.71,1.24-5.44,1.84-8.17a195.86,195.86,0,0,1,5.11-20,24.56,24.56,0,0,1,8.66-11.15c3.59-2.63,7.46-3.33,10.61-1.92s5.34,4.94,5.78,9.55c.35,3.59.41,8.77-1.26,13.11-1.88,4.9-.93,9.36.07,14.09.25,1.2.51,2.4.71,3.6.64,3.74,2.81,5.23,7,4.83,13.21-1.24,19.9-8,23.87-24.07a41.68,41.68,0,0,1,4.25-11c1-1.68,4.38-2.33,6.28-2.05,1.52.23,3.27,3.24,3.16,4.9-.12,1.94-.22,3.88-.33,5.83-.77,14.22-1.56,28.92-9.31,41.66s-21,19.92-38.12,20.48Zm-26.29-39.53c.78,10.15,2.93,18.11,6.75,25,4.76,8.61,12.09,13.37,20.19,13.12,11.6-.38,27.44-4.14,37-19.83,7.57-12.44,8.35-27,9.11-41q.15-2.93.33-5.85c.08-1.21-1.38-3.36-2-3.46-1.76-.26-4.37.48-4.9,1.39a39.85,39.85,0,0,0-4.1,10.65c-4.14,16.76-11.17,23.8-25.07,25.11-4.94.46-7.73-1.48-8.49-6-.21-1.19-.46-2.37-.71-3.55-1-4.71-2-9.58,0-14.86,1.25-3.24,1.65-7.55,1.17-12.49-.39-4.11-2.21-7.19-5-8.43s-6.06-.56-9.25,1.77A23.28,23.28,0,0,0,153,362.27,193.65,193.65,0,0,0,148,382.08C147.36,384.78,146.77,387.49,146.14,390.17Z" transform="translate(-0.9 -49.1)"/><path class="cls-2" d="M418.4,97.07" transform="translate(-0.9 -49.1)"/><path class="cls-1" d="M231.59,320.26c-25-.28-42.73-12.43-53.66-35.56-6.3-13.33-5.32-26.67-1.56-40,6.16-21.91,26.48-37.19,49.61-37.37,10.74-.08,22.08-1,32.12,1.95,26.88,7.89,42.72,18.47,40.53,50.49-.92,13.42-6.33,25.09-12.81,36.22-2.7,4.62-8,7.94-12.67,11.14C254.86,319.7,249.46,321.3,231.59,320.26Zm.64-107.71c-.09.37-.19.73-.28,1.09-4.29.5-8.7.51-12.84,1.57-14.49,3.72-27.48,10.88-33.58,24.8-7.92,18.09-5.86,36,4.74,53.46,13,21.4,54.4,27.21,69.51,14.34,9.47-8.07,21.64-13.17,24.5-27.06a2.55,2.55,0,0,1,.6-.89c13.2-17.08,11.23-49.46-17-59.82C256.6,215.89,244.15,215,232.23,212.55Z" transform="translate(-0.9 -49.1)"/><path class="cls-1" d="M239.21,321.2c-2.31,0-4.82-.1-7.64-.26-24.87-.28-43.12-12.38-54.26-35.95-5.55-11.75-6.06-24.62-1.6-40.5,6.22-22.12,26.89-37.68,50.27-37.86,1.9,0,3.82-.06,5.75-.1,9-.19,18.2-.38,26.56,2.07,27.64,8.11,43.21,19.09,41,51.2-1,14.34-7.07,26.51-12.91,36.51-2.49,4.29-7,7.39-11.45,10.39l-1.42,1C258.09,318.31,251.77,321.2,239.21,321.2ZM239,207.79c-2.42,0-4.84.06-7.24.11-1.94,0-3.86.08-5.77.09-22.78.18-42.91,15.34-49,36.87-4.38,15.54-3.89,28.11,1.52,39.55,10.89,23.06,28.74,34.89,53,35.17h0c17.8,1,23.18-.67,41.13-13l1.43-1c4.27-2.91,8.69-5.93,11-9.94C291,285.76,297,273.77,298,259.7c2.13-31.19-13.07-41.87-40-49.79C252,208.17,245.49,207.79,239,207.79Zm-2.82,107.49a67,67,0,0,1-10.67-.88c-16.19-2.6-29.58-10.3-35.82-20.58-11-18.07-12.59-36.27-4.78-54.09,5.39-12.3,16.84-20.77,34-25.18a53.54,53.54,0,0,1,8.89-1.22c1.19-.09,2.39-.19,3.58-.31l.29-1.15h.66c3.72.75,7.56,1.37,11.27,2,8.19,1.32,16.67,2.69,24.49,5.56,11.93,4.38,20.36,13.22,23.73,24.9,3.52,12.24,1,26.36-6.43,36l-.2.24a1.79,1.79,0,0,0-.27.37c-2.23,10.8-10.06,16.5-17.63,22-2.38,1.73-4.84,3.52-7.1,5.44C254.93,312.84,246.2,315.28,236.18,315.28Zm-3.45-101.93-.23.92-.47,0c-1.36.16-2.73.27-4.09.37a52,52,0,0,0-8.66,1.18c-17,4.36-27.84,12.35-33.12,24.41-7.62,17.39-6,35.17,4.69,52.83,6,9.95,19.08,17.4,34.87,19.95,13.93,2.24,26.81,0,33.62-5.77,2.3-2,4.78-3.76,7.18-5.5,7.7-5.6,15-10.89,17.09-21.18a2.35,2.35,0,0,1,.57-1l.16-.19c7.17-9.28,9.6-22.93,6.19-34.76-3.24-11.25-11.36-19.77-22.88-24-7.69-2.83-16.11-4.18-24.24-5.49C239.9,214.63,236.27,214.05,232.73,213.35Z" transform="translate(-0.9 -49.1)"/><path class="cls-1" d="M209.7,258.85c-1-21,16.27-35.75,35.93-29.34,14.15,4.61,25.85,20.83,18,38.19C259,278.12,251,286,240.82,291.38c-8.36,4.42-16.93,2.33-22.84-5.12C211.56,278.18,210.1,268.7,209.7,258.85Zm6.44,2.67c1.15,4.27,2.2,10,4.2,15.27,4.13,11,15,13.93,23.85,6.19,4.51-4,7.93-9.22,11.66-14,5.09-6.55,3.73-13.66.93-20.49-3.57-8.65-12.56-13.31-23.13-12.61-6.55.43-14,7.57-16,15.65C216.91,254.28,216.76,257.19,216.14,261.52Z" transform="translate(-0.9 -49.1)"/><path class="cls-1" d="M232,294.39c-5.44,0-10.56-2.63-14.59-7.7-6.75-8.51-8-18.39-8.42-27.81-.52-10.76,3.6-20.3,11.29-26.18,7.11-5.41,16.41-6.82,25.53-3.84a31.29,31.29,0,0,1,18.71,16.8,26.71,26.71,0,0,1-.28,22.32c-4.62,10.24-12.41,18.32-23.13,24A19.5,19.5,0,0,1,232,294.39Zm4.42-65.7a25,25,0,0,0-15.31,5.1c-7.33,5.6-11.25,14.72-10.76,25h0c.38,9.19,1.62,18.82,8.13,27,5.8,7.31,14,9.16,22,4.93,10.45-5.53,18-13.39,22.53-23.35a25.35,25.35,0,0,0,.27-21.21,29.93,29.93,0,0,0-17.89-16.06A29.16,29.16,0,0,0,236.45,228.69ZM233.75,288a13.43,13.43,0,0,1-3.27-.4c-4.77-1.2-8.7-5.05-10.77-10.57a94.06,94.06,0,0,1-3.22-11.28c-.35-1.44-.68-2.81-1-4.06l0-.14,0-.13c.21-1.48.37-2.78.51-4a47.74,47.74,0,0,1,1-6.11c2.09-8.3,9.72-15.7,16.66-16.16,11.09-.73,20.19,4.27,23.8,13,2.48,6,4.61,13.92-1,21.17-.9,1.15-1.78,2.34-2.66,3.52a67.14,67.14,0,0,1-9.09,10.59A16.6,16.6,0,0,1,233.75,288Zm-16.92-26.53c.33,1.22.65,2.56,1,4a91.26,91.26,0,0,0,3.16,11.1c1.92,5.1,5.5,8.65,9.83,9.73s8.9-.28,12.93-3.82a65.84,65.84,0,0,0,8.9-10.38c.88-1.19,1.77-2.38,2.67-3.54,5.21-6.7,3.18-14.1.83-19.81-3.37-8.21-12-12.87-22.44-12.19-6.29.41-13.5,7.49-15.43,15.14a49.57,49.57,0,0,0-.94,5.94C217.19,258.78,217,260.05,216.83,261.48Z" transform="translate(-0.9 -49.1)"/></svg>