<svg id="Layer_1" data-name="Layer 1" xmlns="http://www.w3.org/2000/svg" width="774.5" height="769.87" viewBox="0 0 774.5 769.87"><title>heart-pattern</title><g opacity='0.1'><path d="M200.09,180,200,180Z" transform="translate(-13 -15.32)" fill="#c3d900"/><path d="M200.09,180,200,180Z" transform="translate(-13 -15.32)" fill="#85c326"/><path d="M177.73,202.41l-.1-.09h0l0,0,.06.13Z" transform="translate(-13 -15.32)" fill="#1f7732"/><path d="M227,191.14a15.79,15.79,0,0,1-4.63,11.18L211.18,213.5,200,224.68l-22.27-22.27h0l-.06-.13,0,0a15.83,15.83,0,0,1,0-22.37h0A15.83,15.83,0,0,1,200,180a15.81,15.81,0,0,1,22.37,0,15.21,15.21,0,0,1,2.1,2.61,15.58,15.58,0,0,1,1.78,3.76A15.85,15.85,0,0,1,227,191.14Z" transform="translate(-13 -15.32)" fill="#3fb23c"/><path d="M177.73,202.41l-.1-.09,0,0Z" transform="translate(-13 -15.32)" fill="#3fb23c"/><path d="M280.09,260,280,260Z" transform="translate(-13 -15.32)" fill="#c3d900"/><path d="M280.09,260,280,260Z" transform="translate(-13 -15.32)" fill="#85c326"/><path d="M257.73,282.41l-.1-.09h0l0,0,.06.13Z" transform="translate(-13 -15.32)" fill="#1f7732"/><path d="M307,271.14a15.79,15.79,0,0,1-4.63,11.18L291.18,293.5,280,304.68l-22.27-22.27h0l-.06-.13,0,0a15.83,15.83,0,0,1,0-22.37h0A15.83,15.83,0,0,1,280,260a15.81,15.81,0,0,1,22.37,0,15.21,15.21,0,0,1,2.1,2.61,15.58,15.58,0,0,1,1.78,3.76A15.85,15.85,0,0,1,307,271.14Z" transform="translate(-13 -15.32)" fill="#3fb23c"/><path d="M257.73,282.41l-.1-.09,0,0Z" transform="translate(-13 -15.32)" fill="#3fb23c"/><path d="M120.09,420,120,420Z" transform="translate(-13 -15.32)" fill="#c3d900"/><path d="M120.09,420,120,420Z" transform="translate(-13 -15.32)" fill="#85c326"/><path d="M97.73,442.41l-.1-.09h0l0,0,.06.13Z" transform="translate(-13 -15.32)" fill="#1f7732"/><path d="M147,431.14a15.79,15.79,0,0,1-4.63,11.18L131.18,453.5,120,464.68,97.73,442.41h0l-.06-.13,0,0a15.83,15.83,0,0,1,0-22.37h0A15.83,15.83,0,0,1,120,420a15.81,15.81,0,0,1,22.37,0,15.21,15.21,0,0,1,2.1,2.61,15.58,15.58,0,0,1,1.78,3.76A15.85,15.85,0,0,1,147,431.14Z" transform="translate(-13 -15.32)" fill="#3fb23c"/><path d="M97.73,442.41l-.1-.09,0,0Z" transform="translate(-13 -15.32)" fill="#3fb23c"/><path d="M40.09,500,40,500Z" transform="translate(-13 -15.32)" fill="#c3d900"/><path d="M40.09,500,40,500Z" transform="translate(-13 -15.32)" fill="#85c326"/><path d="M17.73,522.41l-.1-.09h0l0,0,.06.13Z" transform="translate(-13 -15.32)" fill="#1f7732"/><path d="M67,511.14a15.79,15.79,0,0,1-4.63,11.18L51.18,533.5,40,544.68,17.73,522.41h0l-.06-.13,0,0a15.83,15.83,0,0,1,0-22.37h0A15.83,15.83,0,0,1,40,500a15.81,15.81,0,0,1,22.37,0,15.21,15.21,0,0,1,2.1,2.61,15.58,15.58,0,0,1,1.78,3.76A15.85,15.85,0,0,1,67,511.14Z" transform="translate(-13 -15.32)" fill="#3fb23c"/><path d="M17.73,522.41l-.1-.09,0,0Z" transform="translate(-13 -15.32)" fill="#3fb23c"/><path d="M760.09,580,760,580Z" transform="translate(-13 -15.32)" fill="#c3d900"/><path d="M760.09,580,760,580Z" transform="translate(-13 -15.32)" fill="#85c326"/><path d="M737.73,602.41l-.1-.09h0l0,0,.06.13Z" transform="translate(-13 -15.32)" fill="#1f7732"/><path d="M787,591.14a15.79,15.79,0,0,1-4.63,11.18L771.18,613.5,760,624.68l-22.27-22.27h0l-.06-.13,0,0a15.83,15.83,0,0,1,0-22.37h0A15.83,15.83,0,0,1,760,580a15.81,15.81,0,0,1,22.37,0,15.21,15.21,0,0,1,2.1,2.61,15.58,15.58,0,0,1,1.78,3.76A15.85,15.85,0,0,1,787,591.14Z" transform="translate(-13 -15.32)" fill="#3fb23c"/><path d="M737.73,602.41l-.1-.09,0,0Z" transform="translate(-13 -15.32)" fill="#3fb23c"/><path d="M440.59,99.54l-.12-.06Z" transform="translate(-13 -15.32)" fill="#c3d900"/><path d="M440.59,99.54l-.12-.06Z" transform="translate(-13 -15.32)" fill="#85c326"/><path d="M418.23,121.91l-.1-.09h0l0,0,.06.13Z" transform="translate(-13 -15.32)" fill="#1f7732"/><path d="M467.5,110.64a15.79,15.79,0,0,1-4.63,11.18L451.68,133,440.5,144.18l-22.27-22.27h0l-.06-.13,0,0a15.83,15.83,0,0,1,0-22.37h0a15.83,15.83,0,0,1,22.37,0,15.81,15.81,0,0,1,22.37,0,15.21,15.21,0,0,1,2.1,2.61,15.58,15.58,0,0,1,1.78,3.76A15.85,15.85,0,0,1,467.5,110.64Z" transform="translate(-13 -15.32)" fill="#3fb23c"/><path d="M418.23,121.91l-.1-.09,0,0Z" transform="translate(-13 -15.32)" fill="#3fb23c"/><path d="M520.09,20,520,20Z" transform="translate(-13 -15.32)" fill="#c3d900"/><path d="M520.09,20,520,20Z" transform="translate(-13 -15.32)" fill="#85c326"/><path d="M497.73,42.41l-.1-.09h0l0,0,.06.13Z" transform="translate(-13 -15.32)" fill="#1f7732"/><path d="M547,31.14a15.79,15.79,0,0,1-4.63,11.18L531.18,53.5,520,64.68,497.73,42.41h0l-.06-.13,0,0a15.83,15.83,0,0,1,0-22.37h0A15.83,15.83,0,0,1,520,20a15.81,15.81,0,0,1,22.37,0,15.21,15.21,0,0,1,2.1,2.61,15.58,15.58,0,0,1,1.78,3.76A15.85,15.85,0,0,1,547,31.14Z" transform="translate(-13 -15.32)" fill="#3fb23c"/><path d="M497.73,42.41l-.1-.09,0,0Z" transform="translate(-13 -15.32)" fill="#3fb23c"/><path d="M679.59,180.54l-.12-.06Z" transform="translate(-13 -15.32)" fill="#c3d900"/><path d="M679.59,180.54l-.12-.06Z" transform="translate(-13 -15.32)" fill="#85c326"/><path d="M657.23,202.91l-.1-.09h0l0,0,.06.13Z" transform="translate(-13 -15.32)" fill="#1f7732"/><path d="M706.5,191.64a15.79,15.79,0,0,1-4.63,11.18L690.68,214,679.5,225.18l-22.27-22.27h0l-.06-.13,0,0a15.83,15.83,0,0,1,0-22.37h0a15.83,15.83,0,0,1,22.37,0,15.81,15.81,0,0,1,22.37,0,15.21,15.21,0,0,1,2.1,2.61,15.58,15.58,0,0,1,1.78,3.76A15.85,15.85,0,0,1,706.5,191.64Z" transform="translate(-13 -15.32)" fill="#3fb23c"/><path d="M657.23,202.91l-.1-.09,0,0Z" transform="translate(-13 -15.32)" fill="#3fb23c"/><path d="M760.59,100.54l-.12-.06Z" transform="translate(-13 -15.32)" fill="#c3d900"/><path d="M760.59,100.54l-.12-.06Z" transform="translate(-13 -15.32)" fill="#85c326"/><path d="M738.23,122.91l-.1-.09h0l0,0,.06.13Z" transform="translate(-13 -15.32)" fill="#1f7732"/><path d="M787.5,111.64a15.79,15.79,0,0,1-4.63,11.18L771.68,134,760.5,145.18l-22.27-22.27h0l-.06-.13,0,0a15.83,15.83,0,0,1,0-22.37h0a15.83,15.83,0,0,1,22.37,0,15.81,15.81,0,0,1,22.37,0,15.21,15.21,0,0,1,2.1,2.61,15.58,15.58,0,0,1,1.78,3.76A15.85,15.85,0,0,1,787.5,111.64Z" transform="translate(-13 -15.32)" fill="#3fb23c"/><path d="M738.23,122.91l-.1-.09,0,0Z" transform="translate(-13 -15.32)" fill="#3fb23c"/><path d="M40.09,20,40,20Z" transform="translate(-13 -15.32)" fill="#c3d900"/><path d="M40.09,20,40,20Z" transform="translate(-13 -15.32)" fill="#85c326"/><path d="M17.73,42.41l-.1-.09h0l0,0,.06.13Z" transform="translate(-13 -15.32)" fill="#1f7732"/><path d="M67,31.14a15.79,15.79,0,0,1-4.63,11.18L51.18,53.5,40,64.68,17.73,42.41h0l-.06-.13,0,0a15.83,15.83,0,0,1,0-22.37h0A15.83,15.83,0,0,1,40,20a15.81,15.81,0,0,1,22.37,0,15.21,15.21,0,0,1,2.1,2.61,15.58,15.58,0,0,1,1.78,3.76A15.85,15.85,0,0,1,67,31.14Z" transform="translate(-13 -15.32)" fill="#3fb23c"/><path d="M17.73,42.41l-.1-.09,0,0Z" transform="translate(-13 -15.32)" fill="#3fb23c"/><path d="M199.59,579.54l-.12-.06Z" transform="translate(-13 -15.32)" fill="#c3d900"/><path d="M199.59,579.54l-.12-.06Z" transform="translate(-13 -15.32)" fill="#85c326"/><path d="M177.23,601.91l-.1-.09h0l0,0,.06.13Z" transform="translate(-13 -15.32)" fill="#1f7732"/><path d="M226.5,590.64a15.79,15.79,0,0,1-4.63,11.18L210.68,613,199.5,624.18l-22.27-22.27h0l-.06-.13,0,0a15.83,15.83,0,0,1,0-22.37h0a15.83,15.83,0,0,1,22.37,0,15.81,15.81,0,0,1,22.37,0,15.21,15.21,0,0,1,2.1,2.61,15.58,15.58,0,0,1,1.78,3.76A15.85,15.85,0,0,1,226.5,590.64Z" transform="translate(-13 -15.32)" fill="#3fb23c"/><path d="M177.23,601.91l-.1-.09,0,0Z" transform="translate(-13 -15.32)" fill="#3fb23c"/><path d="M120.09,660,120,660Z" transform="translate(-13 -15.32)" fill="#c3d900"/><path d="M120.09,660,120,660Z" transform="translate(-13 -15.32)" fill="#85c326"/><path d="M97.73,682.41l-.1-.09h0l0,0,.06.13Z" transform="translate(-13 -15.32)" fill="#1f7732"/><path d="M147,671.14a15.79,15.79,0,0,1-4.63,11.18L131.18,693.5,120,704.68,97.73,682.41h0l-.06-.13,0,0a15.83,15.83,0,0,1,0-22.37h0A15.83,15.83,0,0,1,120,660a15.81,15.81,0,0,1,22.37,0,15.21,15.21,0,0,1,2.1,2.61,15.58,15.58,0,0,1,1.78,3.76A15.85,15.85,0,0,1,147,671.14Z" transform="translate(-13 -15.32)" fill="#3fb23c"/><path d="M97.73,682.41l-.1-.09,0,0Z" transform="translate(-13 -15.32)" fill="#3fb23c"/><path d="M359.59,339.54l-.12-.06Z" transform="translate(-13 -15.32)" fill="#c3d900"/><path d="M359.59,339.54l-.12-.06Z" transform="translate(-13 -15.32)" fill="#85c326"/><path d="M337.23,361.91l-.1-.09h0l0,0,.06.13Z" transform="translate(-13 -15.32)" fill="#1f7732"/><path d="M386.5,350.64a15.79,15.79,0,0,1-4.63,11.18L370.68,373,359.5,384.18l-22.27-22.27h0l-.06-.13,0,0a15.83,15.83,0,0,1,0-22.37h0a15.83,15.83,0,0,1,22.37,0,15.81,15.81,0,0,1,22.37,0,15.21,15.21,0,0,1,2.1,2.61,15.58,15.58,0,0,1,1.78,3.76A15.85,15.85,0,0,1,386.5,350.64Z" transform="translate(-13 -15.32)" fill="#3fb23c"/><path d="M337.23,361.91l-.1-.09,0,0Z" transform="translate(-13 -15.32)" fill="#3fb23c"/><path d="M519.59,499.54l-.12-.06Z" transform="translate(-13 -15.32)" fill="#c3d900"/><path d="M519.59,499.54l-.12-.06Z" transform="translate(-13 -15.32)" fill="#85c326"/><path d="M497.23,521.91l-.1-.09h0l0,0,.06.13Z" transform="translate(-13 -15.32)" fill="#1f7732"/><path d="M546.5,510.64a15.79,15.79,0,0,1-4.63,11.18L530.68,533,519.5,544.18l-22.27-22.27h0l-.06-.13,0,0a15.83,15.83,0,0,1,0-22.37h0a15.83,15.83,0,0,1,22.37,0,15.81,15.81,0,0,1,22.37,0,15.21,15.21,0,0,1,2.1,2.61,15.58,15.58,0,0,1,1.78,3.76A15.85,15.85,0,0,1,546.5,510.64Z" transform="translate(-13 -15.32)" fill="#3fb23c"/><path d="M497.23,521.91l-.1-.09,0,0Z" transform="translate(-13 -15.32)" fill="#3fb23c"/><path d="M440.59,580.54l-.12-.06Z" transform="translate(-13 -15.32)" fill="#c3d900"/><path d="M440.59,580.54l-.12-.06Z" transform="translate(-13 -15.32)" fill="#85c326"/><path d="M418.23,602.91l-.1-.09h0l0,0,.06.13Z" transform="translate(-13 -15.32)" fill="#1f7732"/><path d="M467.5,591.64a15.79,15.79,0,0,1-4.63,11.18L451.68,614,440.5,625.18l-22.27-22.27h0l-.06-.13,0,0a15.83,15.83,0,0,1,0-22.37h0a15.83,15.83,0,0,1,22.37,0,15.81,15.81,0,0,1,22.37,0,15.21,15.21,0,0,1,2.1,2.61,15.58,15.58,0,0,1,1.78,3.76A15.85,15.85,0,0,1,467.5,591.64Z" transform="translate(-13 -15.32)" fill="#3fb23c"/><path d="M418.23,602.91l-.1-.09,0,0Z" transform="translate(-13 -15.32)" fill="#3fb23c"/><path d="M360.09,660,360,660Z" transform="translate(-13 -15.32)" fill="#c3d900"/><path d="M360.09,660,360,660Z" transform="translate(-13 -15.32)" fill="#85c326"/><path d="M337.73,682.41l-.1-.09h0l0,0,.06.13Z" transform="translate(-13 -15.32)" fill="#1f7732"/><path d="M387,671.14a15.79,15.79,0,0,1-4.63,11.18L371.18,693.5,360,704.68l-22.27-22.27h0l-.06-.13,0,0a15.83,15.83,0,0,1,0-22.37h0A15.83,15.83,0,0,1,360,660a15.81,15.81,0,0,1,22.37,0,15.21,15.21,0,0,1,2.1,2.61,15.58,15.58,0,0,1,1.78,3.76A15.85,15.85,0,0,1,387,671.14Z" transform="translate(-13 -15.32)" fill="#3fb23c"/><path d="M337.73,682.41l-.1-.09,0,0Z" transform="translate(-13 -15.32)" fill="#3fb23c"/><path d="M599.59,420.54l-.12-.06Z" transform="translate(-13 -15.32)" fill="#c3d900"/><path d="M599.59,420.54l-.12-.06Z" transform="translate(-13 -15.32)" fill="#85c326"/><path d="M577.23,442.91l-.1-.09h0l0,0,.06.13Z" transform="translate(-13 -15.32)" fill="#1f7732"/><path d="M626.5,431.64a15.79,15.79,0,0,1-4.63,11.18L610.68,454,599.5,465.18l-22.27-22.27h0l-.06-.13,0,0a15.83,15.83,0,0,1,0-22.37h0a15.83,15.83,0,0,1,22.37,0,15.81,15.81,0,0,1,22.37,0,15.21,15.21,0,0,1,2.1,2.61,15.58,15.58,0,0,1,1.78,3.76A15.85,15.85,0,0,1,626.5,431.64Z" transform="translate(-13 -15.32)" fill="#3fb23c"/><path d="M577.23,442.91l-.1-.09,0,0Z" transform="translate(-13 -15.32)" fill="#3fb23c"/><path d="M600.46,740.54l-.12-.06Z" transform="translate(-13 -15.32)" fill="#c3d900"/><path d="M600.46,740.54l-.12-.06Z" transform="translate(-13 -15.32)" fill="#85c326"/><path d="M578.1,762.91l-.1-.09h0l0,0,.06.13h0Z" transform="translate(-13 -15.32)" fill="#1f7732"/><path d="M627.37,751.64a15.76,15.76,0,0,1-4.64,11.18L611.55,774l-11.18,11.18L578.1,762.91h0l-.06-.13,0,0a15.83,15.83,0,0,1,0-22.37h0a15.83,15.83,0,0,1,22.37,0,15.8,15.8,0,0,1,22.36,0,15.28,15.28,0,0,1,2.11,2.61,15.58,15.58,0,0,1,1.78,3.76A15.85,15.85,0,0,1,627.37,751.64Z" transform="translate(-13 -15.32)" fill="#3fb23c"/><path d="M578.09,762.91l-.09-.09,0,0Z" transform="translate(-13 -15.32)" fill="#3fb23c"/></g></svg>