<?xml version="1.0" encoding="utf-8"?>
<!-- Generator: Adobe Illustrator 23.0.4, SVG Export Plug-In . SVG Version: 6.00 Build 0)  -->
<svg version="1.1" id="Layer_1" xmlns="http://www.w3.org/2000/svg" xmlns:xlink="http://www.w3.org/1999/xlink" x="0px" y="0px"
	 viewBox="0 0 854 84" style="enable-background:new 0 0 854 84;" xml:space="preserve">
<style type="text/css">
	.st0{fill:#D2A017;}
</style>
<title>lines-yellow</title>
<path class="st0" d="M756.4,46.2c-2.8-1.3-5.5-2.7-8.2-4.3c0.1,0.7,2.9,2.5,6.6,4.2c3.4,1.6,7.1,2.7,10.8,3.5
	C762.5,48.7,759.4,47.6,756.4,46.2z"/>
<path class="st0" d="M790.9,49.4c1.9,0.1,2.6-0.4,4.7-0.7c-1.1,0.2-3,0.2-4.2,0.3C790.2,49.2,789.5,49.2,790.9,49.4z"/>
<path class="st0" d="M808.1,47.8c-1.3,0.1-2.2,0.2-3.1,0.3l-2.2,0.4c1.1-0.1,2.1-0.3,3-0.4C806.7,47.9,807.4,47.8,808.1,47.8z"/>
<path class="st0" d="M798.9,49.1l-4.6,0.7c2.8-0.2,5.7-0.7,8.5-1.3C801.6,48.7,800.3,48.9,798.9,49.1z"/>
<path class="st0" d="M840,34.3l0.9-0.2h-0.1C840.6,34.1,840.3,34.2,840,34.3z"/>
<path class="st0" d="M838.5,33.7c-0.7,0.2-1.5,0.3-2.3,0.6c0.6,0,4.2-0.9,6.5-1.1c1.1-0.2,1.8-0.1,1.6,0l-1.2,0.3
	c-0.5,0.2-1.2,0.3-2.2,0.6c0.5-0.1,1.2-0.3,2-0.4c0.4-0.1,0.8-0.2,1.3-0.2l1.4-0.1c0.9-0.1,1.8-0.1,2.5-0.1c-2.1,0-3.3-0.2-4.8-0.1
	c-0.8,0-1.6,0.1-2.8,0.3C839.8,33.4,839.2,33.5,838.5,33.7z"/>
<path class="st0" d="M23,46.8c-2.8-1.3-5.5-2.7-8.1-4.2c0.1,0.7,2.9,2.6,6.6,4.2c3.5,1.6,7.1,2.7,10.8,3.5
	C29.1,49.4,26,48.2,23,46.8z"/>
<path class="st0" d="M382,36.2l-0.4-0.7C381,35.5,381.4,35.8,382,36.2z"/>
<path class="st0" d="M397.8,45c-0.8-0.3-1.6-0.7-2.9-1.3C395.8,44.2,396.8,44.7,397.8,45z"/>
<path class="st0" d="M369.6,32.5c-1.1-0.2-2.2-0.4-3.3-0.6C367.3,32.2,368.5,32.3,369.6,32.5z"/>
<path class="st0" d="M188.7,50.2c-0.8-0.1-1.8,0-3.1-0.1c2.4,0.4,4.7,0.6,7.1,0.7c-0.8-0.1-1.3-0.3-2.2-0.4
	C190,50.3,189.4,50.2,188.7,50.2z"/>
<path class="st0" d="M469.7,43.7l-0.4,0.5C470.9,43.4,470.5,43.5,469.7,43.7z"/>
<path class="st0" d="M394.2,48.9l1.4,0.2l-0.7-0.4C394.5,48.7,394.2,48.7,394.2,48.9z"/>
<path class="st0" d="M349.4,32c1-0.1,2-0.1,2.9-0.2h0.2C351.4,31.8,350.4,31.8,349.4,32z"/>
<path class="st0" d="M488.8,39.4c0.2,0.1,0.4,0.1,0.6,0.1c0.3,0.1,0.5,0.1,0.9,0.2c-0.3-0.2-0.6-0.3-0.8-0.4c-0.3-0.1-0.7-0.2-1-0.2
	C488.3,39.2,488.4,39.3,488.8,39.4z"/>
<path class="st0" d="M397.8,45l0.4,0.2l0,0L397.8,45z"/>
<path class="st0" d="M373.9,39.9c1,0.5,2,1,3.1,1.3C375.9,40.8,375,40.3,373.9,39.9z"/>
<path class="st0" d="M195.1,50.8c-0.8,0-1.6,0-2.3,0C193.6,50.9,194.4,50.9,195.1,50.8z"/>
<path class="st0" d="M842.2,37.7c0.3-0.1,0.5-0.2,0.7-0.4L842.2,37.7z"/>
<path class="st0" d="M762.4,41.7c0.2,0.2,0.4,0.5,0.6,0.7C763.3,42.3,763.1,42,762.4,41.7z"/>
<path class="st0" d="M673.7,53.6l1.1-0.1L673.7,53.6z"/>
<path class="st0" d="M373.9,39.9c-0.4-0.2-0.6-0.4-0.5-0.5c2.2,0.7,4.4,1.7,6.4,2.9l0.8-0.3c3.8,1.9,9.3,4.2,14.2,6.7
	c1.3,0.2,4.4,1.6,8.3,3c1,0.3,2,0.7,3.1,1.1l3.2,1c1,0.3,2.2,0.6,3.2,0.8c1,0.2,2,0.4,3,0.6c2.8,0.6-5.9-1.7,2.1-0.3
	c0.1,0.4,0.9,0.6,2,0.8c0.5,0.1,1.1,0.2,1.8,0.3s1.4,0.1,2.1,0.2s1.4,0.1,2.1,0.1s1.3,0,1.9,0.1c0.5,0,0.9,0.1,1.4,0.2
	c0.3,0,0.5,0.2,0.7,0.3c2.6-0.3,5.2-0.7,7.7-1.4l2,0.3c1.2-0.6,2.5-1.1,3.8-1.4c1.2-0.4,2.4-0.6,3.7-0.9c3.1-0.6,6.1-1.6,8.9-2.9
	c-0.5,0-1.3,0.3-1,0.1c2.5-0.8,7.7-2.9,4-1l8.8-3.7c2.8-1.2,4.3-1.9,1.3-1.1c0.8,0.2-4.5,2-6.9,2.8c-0.1-0.3,1.2-1,2.7-1.7
	c1.2-0.5,2.4-1.2,3.4-2c0.2,0,1-0.2,1.6-0.3l0.4-0.6c3.7-1.1,7.1-2.3,10.3-3.1c2.6-0.8,5.3-1.1,8-0.8c0.3-0.1,0.6-0.2,0.9-0.2
	c0.7,0,1.5,0,2.2,0.1l-0.2,0.7c2.1,0.3,4.1,0.8,6.1,1.5l-1.1-0.9c-0.4-0.3-0.8-0.6-1.2-0.9c3.4,0.9,6.6,2.2,9.5,4l4.1,2.4
	c0.7,0.4,1.4,0.8,2.1,1.2s1.5,0.8,2.3,1.2c1.4-0.1,4.4,1.5,8.2,3.2c2.1,1,4.2,1.8,6.3,2.6c2.2,0.8,4.5,1.3,6.8,1.6
	c-2.1-0.6-4.2-1.3-6.3-2.2c0.8,0.3,1.6,0.6,2.3,0.8s1.5,0.5,2.2,0.7c1.5,0.4,2.8,0.7,4.2,0.9c1.3,0.2,2.5,0.4,3.8,0.5
	c1.2,0.1,2.4,0.2,3.6,0.2c5.4,0,10.7-0.6,16-1.8c-1.3,0.4-2.6,0.7-3.8,0.9l-1.6,0.4l-1.6,0.2c-1,0.1-2,0.3-2.9,0.4l-3,0.2
	c-2.4,0.1-4.9,0-7.3-0.2c-0.8,0-1.5-0.1-2.3-0.2s-1.7-0.2-2.6-0.4l-2.8-0.5c-1-0.2-1.9-0.4-3-0.7c4.2,1.3,8.6,2.1,13,2.5
	c4.3,0.3,8.6,0.2,12.9-0.4c3.7-0.5,7.3-1.3,10.8-2.4l2.5-0.8l2.3-0.9c0.8-0.3,1.6-0.6,2.3-0.9l2.2-1c-1.1,0.1-4.3,1.1-1.6-0.3
	c2.3-0.5,4.5-1.3,6.6-2.2c2.3-0.9,4-1.6,3.5-0.9c3.4-1.6,3.4-2.4,5.5-3.3c3.9-1.2,7.9-1.9,12-2.2l-0.4-0.1c4.8-1,9.8-0.9,14.6,0.1
	c5,1,10,2.5,14.7,4.3c4.8,1.8,9.2,3.8,15.1,5.8c0.7,0.2,1.5,0.5,2.3,0.7s1.7,0.5,2.5,0.7l2.8,0.6c0.9,0.2,2,0.3,3,0.4l1.5,0.2
	l1.5,0.1c1,0,2.1,0.1,3.1,0.1s2-0.1,3-0.1s1.9-0.2,2.9-0.3l-0.7-0.3c2.3,0,4.3-0.2,6.5-0.4c-1.6,0.1-1-0.1,0-0.4
	c1.1-0.2,2.2-0.6,3.3-1.1l2.2-0.4c0.7-0.1,1.4-0.3,2.1-0.4c1.4-0.3,2.7-0.6,4.1-0.9l4.1-1.1l4-1.2c0-0.4-1.5-0.7-5.1,0.8
	c5.5-2.3,11.5-4.2,15.8-6l-1.8,0.4c1.5-0.6,3-1.1,4.5-1.7l-0.5-0.4c3.3-1.5,6.8-2.7,10.3-3.5c0.4-0.1,0.8-0.2,1.2-0.2l1.1-0.2
	c0.4,0,0.7-0.1,1-0.1h1c0.6,0,1.2,0,1.6,0c0.4,0,0.8,0.1,1.2,0.2c-0.3-0.3-0.5-0.5-0.8-0.8c2.5,0.2,4.9,0.6,7.3,1.2l-1-0.3l-1-0.2
	l-2.1-0.5c1.1,0.1,2.2,0.2,3.4,0.3l3.7,0.7c2.4,0.5,4.8,1.2,7.2,2c2.8,1,5.5,2.1,8.1,3.5l-0.4-0.5c1.1,0.5,2.2,1.1,3.1,1.9l-0.5-0.8
	c2.7,1.5,5,2.9,7.3,4.1l1.8,0.9l1.8,0.8c1.2,0.6,2.5,1,3.8,1.5c5.4,1.9,11.7,3.1,21.2,4c0.6,0.1,1.2,0.1,1.8,0c0,0-0.5,0-1.2-0.1
	c-1.1-0.1-2.3-0.2-3.4-0.5c2.9,0,9.4,0.4,10.8,0.6c-1.5-0.7-9.3-0.7-3.3-1.1c2.1,0.2,1.4,0,1.1-0.1c-0.2-0.1-0.2-0.2,0.2-0.2
	s1.4,0,3.2,0l2.9,0.8c0.9,0,1.9-0.1,2.8-0.4c0.5-0.2,1.3-0.2,4.5-0.4c3.8-0.1,1.6,0.3-0.1,0.7s-2.9,0.6,3.3,0.2
	c1.6-0.2,3.2-0.5,4.7-0.9c1.6-0.4,3.2-1,5-1.6c3.5-1.3,7.3-2.8,12.2-4.7c3.8-2,2.4-1.8,1.5-1.7c-0.9,0.1-1.3,0.2,4-2.3
	c-2.4,1-4.8,1.9-7.3,2.8c0.4-0.3,0.8-0.6,1.2-1c1.1-0.7,2.3-1.4,3.5-1.9c2.5-0.7,5-1.6,7.3-2.8c-10.1,4.5,7.1-5.1-2.5-1.1l3.3-1.7
	c-0.4,0.2-0.6,0.2-0.5,0l4.2-2.4c-2.9,1.3-9.2,4.6-7,2.6l6.1-3.5c-2.2,0.5-0.1-0.8-0.9-0.9c-6.5,3.1-12.8,6.3-19,8.6
	c1-0.1,3.8-1.1,3.1-0.4c-1.4,0.8-2.9,1.4-4.5,1.8c-0.5,0.2-1,0.3-1.7,0.5c-0.7,0.2-1.4,0.5-2.5,1c0.8-0.1,1.6-0.2,2.4-0.3
	c-0.5,0-1.2,0.2-0.2-0.2c1.4-0.8,2.3-0.8,2.6-0.6c-0.4,0.4-1,0.6-1.5,0.8c-0.7,0.3-1.5,0.6-2.3,0.8c-0.8,0.2-1.6,0.4-2.4,0.5
	s-1.4,0.2-1.8,0.2c-3.2,0.7-3.4,1-3,1.1c0.4,0.1,1.5,0.2,0.8,0.4c-1.2,0-2.3,0.1-3.5,0.2l-4.4,0.5c-1.6,0.1-3.1,0.3-4.7,0.3
	c-1.4,0.1-2.7,0.1-4.1,0c1,0.2,2,0.3,3,0.5c-1.4,0.2-2.8,0.3-4.2,0.3c-1.3,0.1-2.6,0-3.9-0.1c-1.2-0.1-2.3-0.2-3.4-0.2l-2.7-0.4
	l1.2,0.5c-2-0.2-3.7-0.2-5.2-0.3l-2.2-0.1c-0.7-0.1-1.4-0.1-2-0.2s-1.3-0.2-1.9-0.3s-1.2-0.3-1.7-0.5c-1.1-0.4-2.1-0.9-3-1.7
	l0.4,0.5c-0.8-0.2-1.5-0.5-2.2-0.8c-0.8-0.3-1.6-0.6-2.4-1c-1.4-0.6-2.8-1.5-4-2.5c-0.7,0-1.4-0.1-2-0.6c-0.7-1.2-3.8-2.5-8.3-4.4
	c0.8,0.3,1.4,0.8,1.8,1.6c0.4,0.7,1.1,1.3,1.8,1.6c-1.3-0.5-2.6-1-3.8-1.7c-0.7-0.4-1.4-0.8-2-1.3c-0.6-0.5-1.2-0.9-1.8-1.3
	c-1-0.6-2.1-1.1-3.3-1.4c-2-0.4-1.2,0,0.1,0.5c1.2,0.4,2.3,1,3.4,1.6c-4.3-2-9.7-2.9-14.4-3.5c-1.2-0.1-2.4-0.3-3.5-0.4
	s-2.2-0.2-3.3-0.3c-0.5,0-1-0.1-1.5-0.2s-1-0.1-1.5-0.1c-1-0.1-1.9-0.3-2.7-0.4c1.5-0.2,3.1-0.3,4.7-0.4c-1.7-0.2-3.3-0.3-5-0.3
	c-1.1,0.1-1.6,0.1-1.3,0.2c0.8-0.2,1.6-0.1,2.4,0.1c-0.8,0-1.6,0.2-2.4,0.2l-2.3,0.2c-1.4,0.3-2.8,0.4-4.1,0.7s-2.6,0.5-3.8,0.8
	c-1.2,0.3-2.4,0.6-3.6,0.9c-4.7,1.3-9.4,3-13.8,5.2c1-0.1,2.5-0.7,2.8-0.5c-1.7,0.9-3.5,1.4-5.4,1.7c-1,0.2-2,0.4-3,0.8
	c-1.5,0.5-3,1-4.4,1.7c0.6-0.1,1.2-0.2,1.8-0.2c-1.4,0.7-2.9,1-4.4,1.1c0,0.2-0.1,0.3-0.5,0.5c-0.6,0.3-1.3,0.5-1.9,0.7
	c-0.8,0.3-1.8,0.6-2.9,0.9l-3.6,0.8l-3.9,0.7c-1.3,0.1-2.6,0.4-3.8,0.5s-2.4,0.3-3.4,0.3c-0.5,0-1,0.1-1.5,0.2s-0.9,0.1-1.3,0.1
	c-3.1-0.8-6.1-1.8-9.1-3c-2.9-1.2-5.9-2.3-9-3.2c-2.8-0.5-1.9,0-0.6,0.7c1.3,0.7,3,1.5,1.8,1.5c-3.8-1.4-5.3-2.7-11.4-4.3
	c0.1-0.2,1-0.1,2,0c1,0.1,2.3,0.3,3.2,0.4c1.8,0.2,2.3,0-3.3-2l-1.9-0.1c1.6,0.3,3.1,0.7,4.6,1.3c2.9,1.4-2.3-0.2-3.2-0.2
	c-2-0.6-4.1-1.3-6.2-1.8s-4.3-1.1-6.5-1.6c-0.3-0.5,1.5-0.2,3.6,0.1c2,0.3,4.1,0.9,4.6,0.9c-5.7-1.4-11.6-2.2-17.5-2.3
	c-5.8,0-11.6,0.6-17.3,2c0.4,0,0.7,0,1.1,0c-1.6,0.3-2.8,0.7-3.8,1s-1.7,0.6-2.3,0.9c-0.8,0.4-1.6,0.8-2.3,1.4
	c-1.1,0.7-1.9,1.3-6.6,2.4c-4.2,1.9,2.3,0-4.3,2.7c-1.9,0.8-1,0.1-0.8-0.1c-2.1,0.8-3.4,1.2-4.2,1.6c-0.5,0.2-1,0.5-1.5,0.8
	c-0.7,0.4-1.4,0.8-5.6,1.7l2.3,0.2c-5.1,1.4-10.3,2-15.5,1.9c-5-0.1-9.3-1.3-13.3-2.3c0,0.3,1.2,0.9,2.8,1.4
	c0.4,0.1,0.8,0.3,1.2,0.4l1.2,0.3c0.8,0.2,1.5,0.4,2,0.6c-3-0.7-6-1.6-8.9-2.6c-3-1.1-6-2.4-9-3.7c-6-2.7-11.7-5.4-16.4-7.6
	c3.5,0.8-3.6-3,3.2-0.7c0.8,1.4,4.2,2.2,7.3,3.8c-1.7-1.9-7.3-4.3-13.3-6.2c-0.7-0.2-1.5-0.5-2.3-0.7l-2.2-0.6l-2.2-0.5l-1-0.2
	l-1-0.2c-2.7-0.5-4.7-0.6-5.3-1.1c-0.7,0.2-1.4,0.4-2.1,0.6l-2.1-0.1c-0.8,0-1.5,0-2.1,0c-1.2,0-1.7-0.1,0.2-0.4
	c-4.6,0.7-9.1,1.9-13.4,3.6c1.1-0.3,2.6-0.5,4.2-0.9c0.8-0.2,1.7-0.3,2.6-0.5c0.9-0.2,1.7-0.3,2.7-0.4l2.6-0.3l2.5-0.2
	c0.8-0.1,1.5-0.1,2.1-0.2c0.5,0,1.1-0.1,1.6-0.2c1.1,0.2,1.2,0.3,0.9,0.4l-1.8,0.2c-1.6,0.1-3,0.4-1.2,0.7c-1-0.1-2-0.1-3,0
	c-0.7,0-1.3,0.1-2,0.2c-0.8,0.1-1.6,0.3-2.3,0.6c-2.1,1-4.2,1.7-6.4,2.3c1.5-1-0.8-0.6-3.4,0c-2.5,0.6-5.4,1.6-5.4,1.3
	c-3.4,1.5-6.8,2.7-10.4,3.7c-2.1,0.8-5.4,2.5-9.1,4c-3.6,1.6-7.4,2.8-11.3,3.4c0.7-0.1,1.5-0.1,2.3-0.2s1.6-0.2,2.4-0.3
	c1.5-0.2,2.6-0.3,2.7,0c-1.9,0.4-3.8,0.8-5.2,1.2c-1,0.1-2,0.5-2.8,1.1c2.2-0.1,4.4-0.5,6.5-1.1c0.7-0.2,1.2-0.6,1.7-1.1
	c0.3-0.5,0.8-0.8,1.3-1.1c0.6-0.3,1.2-0.5,1.9-0.8c0.8-0.3,1.9-0.7,3.4-1.1c3.3-0.4,6.5-1.5,12.1-3.6c-2.1,1.4-0.8,1.1-1.3,2
	c-4.1,0.8-8.5,2.6-13.3,4.4c-1.2,0.4-2.4,0.9-3.7,1.3s-2.6,0.8-3.9,1.1c-2.7,0.7-5.4,1-8.1,1c-0.5,0-0.9,0-1.4-0.1
	c-0.3-0.1-0.6-0.1-0.9-0.2c-0.5-0.2-0.8-0.3-1.2-0.5c-0.7-0.2-1.4-0.4-2.1-0.5l-4.8-0.8c2.6,0.3,5.2,0.3,7.8,0.2
	c-4.2,0.2-4.7-0.2-5-0.4c-0.2-0.2-0.4-0.3-0.7-0.4c-0.5-0.2-1.3-0.3-3-0.7c0.8,0.3,1.7,0.7,2.5,0.9c-2.8-0.2-5.5-0.9-8-2
	c1,0.6,2.1,1,3.1,1.6c-2.4-0.4-6.8-1.4-6.5-1.9c-0.7,0-1,0.1-1.1,0.2c-0.3-0.2-0.7-0.4-1.1-0.5l-2.8-1c1.4,0.6,2.6,0.9,2.4,1.1
	c-4.9-1.7-5.6-1.8-5.9-1.6s-0.2,0.5-3.1-0.7c0.8,0.5-1.1,0-3.4-0.8c0.7-0.5-1.8-2-4.8-3.7c-3-1.7-6.6-3.5-8-4.5l0,0
	c-2.8-1.3-5.6-2.5-8.5-3.4c0.6,0.2,0.4,0.3-0.2,0.2c-0.8,0-2.1-0.3-3.6-0.5l0.5,0.1c-1.7-0.3-0.9,0.3-0.9,0.6c0,0.3-0.2,0.2-1,0.2
	c-0.4,0-0.9-0.1-1.6-0.3l-1.3-0.2l-1.5-0.1c-0.9-0.2-1.7-0.4-2.6-0.5l-2.6-0.3c1,0.1,0,0.2-0.5,0.3c-0.9-0.1-1.9-0.1-2.8-0.2
	l-1.4-0.1c-0.5,0-1,0-1.4,0c-4.2,0.9-8,1.7-11.7,2.9c-3.6,1.1-7,2.8-10.1,4.9c1.8-1.2,5-2.8,4.1-1.8c-1.4,0.9-2.9,1.7-4.5,2.3
	l0.5-0.1c-4.4,2.2-8.8,4.3-13.6,5.1c0.7,0,1.3-0.1,2-0.2c0.8-0.2,1.9-0.4,2.7-0.7c1.6-0.5,2.8-0.9,1.4,0c-0.5,0.4-1,0.7-1.6,0.9
	c-0.7,0.3-1.5,0.5-2.3,0.7l-2.6,0.5c-0.8,0.1-1.6,0.2-2.3,0.3c0.6-0.3,1.3-0.6,1.9-0.8c0.3-0.1,0.4-0.2,0.1-0.2s-0.9,0.1-2.1,0.2
	c-0.4,0.3-5.4,1-3,1.1c-3,0.1-6-0.1-9-0.6c-2.5-0.4-4.8-1.3-6.9-2.7c-1.4-0.4,0.4,0.5,1,0.8h0.4c0.6,0.2,1.1,0.5,1.5,1
	c0.3,0.2,0.7,0.3,1,0.4l1.2,0.3l1.9,0.2c0.1,0.6-2.2,0.4-5-0.4c-2.8-1-5.4-2.2-8-3.7c2.1,1.6,4.4,2.9,6.8,4c-3.8-1-7.5-2.4-10.9-4.4
	c-3.7-2.1-7.6-3.8-11.6-5.3c-0.5-0.2-1.1-0.4-1.6-0.5l-1.7-0.5l-1.7-0.4l-1.7-0.4c-1.2-0.2-2.3-0.5-3.5-0.7l-3.5-0.5
	c-4.6-0.6-9.2-0.6-13.8,0c4.9-1.1,9.3-0.5,8.7-1.4l-3.7-0.1l-2.8,0.2l-1.2,0.1l-1,0.1l-1.9,0.3c-3.3,0.6-6.5,1.4-9.6,2.5l0.9-0.3
	c-4.5,2.1-11,4.2-13,6c2.3-0.4,5.5-3.1,6.6-2.4c-3.5,1.6-6.9,3.1-10.4,4.6c3.8-0.9,10.2-4.7,14.6-6.2c1.5-0.6-0.1,0-1.9,0.6
	s-3.8,1.3-3.4,0.8c3.7-1.8,7.5-3.1,11.5-3.9c1.4-0.3,2.8-0.4,4.3-0.5c1.4,0,2.8-0.1,4.3,0c1,0.1,1.1,0.2,0.8,0.3
	c-0.3,0.1-1.1,0.2-2.1,0.5c-2,0.3-4.5,1-5.5,1.2c-4.3,0.7-8.6,1.9-12.6,3.6c-4.4,1.8-8.9,3.9-13.6,6c-1.6,0.9-3.3,1.8-5,2.7
	c-1.8,0.4-3.7,0.5-5.5,0.4c-1.6,0-3.4,0.4-8.1,1.2c1,0,2,0,3.1,0c-1.5,0.5-2.9,0.8-4.5,1c4.5-0.2,8.9-0.8,13.2-1.7
	c-2.2,1.3-6.4,2.5-11.3,2.8c-2.4,0.2-4.9,0.2-7.3,0c-1.2-0.1-2.4-0.2-3.5-0.3c-1.1-0.1-2.2-0.3-3.3-0.4c0.4,0.2,3.4,0.5,4.3,0.8
	c-3.3-0.1-6.6-0.5-9.8-1.2c-1.6-0.3-3.1-0.7-4.6-1.1c-0.7-0.2-1.5-0.4-2.2-0.7c-0.7-0.2-1.4-0.4-2.1-0.7c-5.4-2-9.8-4.5-13.8-6.4
	c-2-0.6-0.4,0.2,1.5,1.2s3.8,2,2.6,1.9c-4.1-2.1-9.5-3.9-10-4.9c0.5,0.8-2-0.3-3.8-1c-0.5-0.3-1-0.4-1.5-0.6
	c0.9,0.6,1.7,1.1,2.6,1.6c-4.1-1.8-8.4-3.3-12.8-4.4c-4.8-1.2-9.7-1.8-14.7-1.7c-5,0-10,0.6-14.9,2c-4.3,1.4-8.4,3.1-12.4,5.2
	c1-0.2,1.3,0,0.9,0.5c2.8-1.6,5.8-3,8.8-4.1c0.8-0.3,1.6-0.5,2.4-0.8l1.1-0.3l1.1-0.2c0.7-0.1,1.4-0.3,2-0.3
	c0.6-0.1,1.2-0.1,1.6-0.1c-0.5,0.2-1,0.3-1.5,0.4s-1,0.3-1.5,0.4c-0.5,0.1-1.1,0.2-1.6,0.4l-1.5,0.4c-1,0.2-1.9,0.5-2.6,0.7
	c-0.5,0.1-0.9,0.3-1.4,0.6c1-0.3,2.3-0.9,3.6-1.2c1.2-0.3,2.2-0.6,2.4-0.4c-1,0.5-2,0.9-2.9,1.3c-0.9,0.4-1.8,0.7-2.6,1l-2.4,0.9
	c-0.8,0.3-1.6,0.7-2.3,1l1.4-1c-2.7,1.3-5.6,2.3-8.6,3.1c-1.8,0.4-3.3,1.1-8.9,3.1c-1.9,0.9-1.8,1-1.2,1s1.9-0.2,2.2,0.1
	c-1.5,0.3-4.4,1.3-7.7,2c-1.5,0.4-3.1,0.7-4.7,0.8c-1.2,0.2-2.4,0.3-3.6,0.2c1.3-0.2,2.6-0.4,3.9-0.6s2.6-0.4,3.9-0.7
	c-4.8,0.8-9.7,1.4-14.7,1.6c0.6,0.2,1.3,0.2,2,0.2c-2.2,0.1-4.8,0.3-7.1,0.4c-1.1,0.1-2.2,0-3.2,0c-0.8,0-1.5-0.1-2.3-0.2l-1.3,0.8
	c0.7-0.1,1.7-0.1,2.8-0.2s2.4-0.1,3.7-0.2c1.8-0.2,3.7-0.2,5.5-0.1c-0.3,0.3-2.5,0.7-5.1,0.8s-5.6,0.1-7.4,0.1c4,0.1,7,0,9.5-0.1
	s4.4-0.1,6.3-0.2s3.6-0.2,5.8-0.4c2.6-0.3,5.3-0.8,7.8-1.5l-2.3,0.2c3.9-1.1,7.8-2.1,11.6-3.3c3.4-1.1,6.7-2.4,9.8-4.1
	c-1.4,0.9-1.4,1.3-0.5,1c2.9-1.7,5.7-3.4,8.6-4.8c3.1-1.4,6.3-2.4,9.7-3c1.8-0.2,3.6-0.5,5.6-0.6c1,0,1.9-0.2,2.9-0.1h2.9
	c3.9,0.2,7.8,0.8,11.6,1.8c1.4,0.6,2.6,1.4,3.9,2.1l0.8-0.4c3.7,1.3,3.9,1.7,3.7,1.9c-0.1,0.2-0.6,0.3,1.6,1.3
	c-1.7-0.7-1.3-0.7-1.5-0.9c3.7,2,5,2.5,5.9,2.6c1.3,0.1,2.5,0.6,3.6,1.2c-1.6-1.5-8.6-4.2-5.8-4c3.8,2.1,8.8,4.7,13.4,6.7
	c4.6,2,8.7,3.4,9.1,4.2l1.9,0.4l1.8,0.3c1.2,0.2,2.5,0.4,3.8,0.6c2.6,0.4,5.3,0.8,8.1,1c2.9,0.2,5.8,0.2,8.7,0.1
	c2.9-0.2,5.7-0.6,8.5-1.1c4.9-1,9.7-2.4,14.4-4.1c4.4-1.5,8.2-3.2,11.4-4.6c1.5-1-1.3,0.3-0.8-0.1c3-0.9,7-3,10.3-4.5
	c1.5-0.7,3-1.3,4.5-1.8c1.2-0.4,2-0.5,2.1-0.3c0.9-0.3,1.7-0.6,2.5-1c0.6-0.3,1-0.5,1.3-0.7c4.2-0.1,8.4,0.1,12.5,0.7l-1.7-0.3
	c-0.6-0.1-1.1-0.1-1.7-0.2l0.4-0.1c0.8,0.1,1.6,0.2,2.4,0.4l2.4,0.4h-0.2c1.4,0.2,2.9,0.5,4.4,0.8c0.8,0.1,1.4,0.3,2.1,0.5
	c0.7,0.2,1.4,0.3,2,0.5c2.6,0.8,5.1,1.8,7.5,3.1c4.8,2.4,9.3,5.7,15.4,8.1c-1.7-0.7-2.4-1-2.4-1.2c-0.1-0.2,0.3-0.1,0.8-0.1
	c0.8,0.1,1.7,0.3,1.6,0.1c0.6,0.3,1.2,0.6,1.8,0.8c0.5,0.2,1,0.4,1.6,0.6c0.6,0.2,1.2,0.4,1.9,0.5c1.4,0.3,2.9,0.6,4.4,0.8l2.5,0.2
	c0.8,0,1.6,0,2.5,0c1.7,0,3.4-0.1,5.1-0.2c1.8-0.1,3.6-0.4,5.3-0.7c3.2-0.6,6.4-1.6,9.4-3c-0.3-0.2,0.4-0.7-1.1-0.3
	c0.5-0.2,1.1-0.4,1.6-0.6l1.5-0.6c1.1-0.4,2-0.8,3-1.2l-1,0.2c4.6-2.7,9.1-5.2,13.3-6.6c3.6-1.1,7.3-1.8,11.1-1.9
	c-1,0-1.7-0.1-2.2-0.1c-0.4,0-0.8,0-1.2,0c-0.4,0-0.7-0.2-1-0.4c0.9-0.1,1.7-0.2,2.6-0.2h2.7c1.9,0.1,3.7,0.2,5.5,0.5
	C366.6,37.4,370.3,38.5,373.9,39.9z M807.7,51.4c0.8,0,1.4-0.1,1.9,0c1,0,1.2,0.2-0.6,0.5c-0.9,0.1-1.8,0.1-2.7,0.1
	c-1.4-0.1-0.6-0.3-1.1-0.5C806.1,51.5,807,51.5,807.7,51.4z M771.4,48.5c1,0.3,2.3,0.5,3.6,0.8c0.5-0.1-0.4-0.6-1.5-1.1
	c-0.6-0.2-1.1-0.5-1.6-0.8c-0.5-0.3-0.9-0.5-1.2-0.6c1.9,0.8,3.5,1.9,6.8,2.2c-0.3-0.2,0.1-0.2-1.8-0.6c0.7,0.2,1.4,0.2,2.1,0.4
	c0.7,0.1,1.4,0.2,2.2,0.3c2.4,0.6,2.4,0.9,1.2,0.9c-2.1-0.1-4.1-0.3-6.1-0.7c-0.5,0.1-1.1,0.1-1.6,0C772.7,49.2,772,48.9,771.4,48.5
	c-0.7-0.2-1.5-0.3-2.2-0.5l-0.3-0.3C769.7,47.9,770.6,48.1,771.4,48.5z M743.1,39.7c0.7,0.6,1.5,1.1,2.4,1.5
	c-1.3-0.3-2.5-0.7-3.6-1.5c-1-0.7-2.2-1.2-3.3-1.6C741.4,38.8,742.5,39.2,743.1,39.7z M737,37.2c0.9,0.2,1.7,0.5,2.5,0.8
	c-0.3,0-0.7-0.1-1-0.2c-0.4-0.1-1-0.2-1.5-0.3c-1.2-0.2-2.5-0.6-3.6-0.9C734.6,36.7,735.8,36.9,737,37.2z M709.5,34.1l1.6-0.4
	l1.7-0.3c0.6-0.1,1.1-0.2,1.7-0.3c0.5-0.1,1.1-0.2,1.6-0.3c1.6,0.2-1.7,0.4-2.8,1c-0.7,0.1-1.4,0.3-2,0.4l-2,0.5
	c-1.3,0.3-2.6,0.8-3.8,1.2C705.7,35.3,707.3,34.6,709.5,34.1L709.5,34.1z M661.8,49.2c0,0.1,0.5,0.2,1.3,0.2c0.9,0.1,1.9,0,2.8-0.1
	c1-0.1,2.1-0.2,2.9-0.3l1.7-0.3c0.8,0.2,0.5,0.4-0.5,0.6c-0.5,0.1-1.1,0.3-1.7,0.4c-0.7,0.1-1.5,0.3-2.2,0.5
	c0.9-0.2,0.2-0.3-1.1-0.3c-0.7,0-1.5-0.1-2.4-0.1c-0.9,0-1.9,0-2.9-0.1C660.4,49.6,661.1,49.4,661.8,49.2z M647,46.1
	c1.2,0.3,2.4,0.7,3.5,1c0.8,0.2,1.6,0.5,2.3,0.9c-4.4-1-8.9-2.8-10.3-2.9C642.4,44.9,644.6,45.4,647,46.1z M605.8,38.6
	c0.5,0,1,0.1,1.4,0.2c1,0.3,2,0.5,3,0.6c-0.8,0-1.6-0.1-2.4-0.1c-1,0.2-0.1,0.3,1.1,0.4c0.9,0.1,1.9,0.3,2.8,0.6
	c-0.7,0-1.6-0.1-2.5-0.2s-1.8-0.1-2.6-0.2l-1-0.1h-0.7c-0.3,0-0.3-0.1,0.3-0.1c2.9-0.1,2.2-0.3,1.3-0.5c-0.5-0.1-1-0.2-1.2-0.3
	c-0.2-0.1,0-0.2,1-0.2c-0.5,0-1.1,0-1.6,0l-1.6,0.1C604,38.7,604.9,38.6,605.8,38.6z M595.1,41.4c0.8-0.1,1.5-0.3,2.2-0.5
	c0.6-0.1,1.2-0.3,1.7-0.4c1.2-0.3,2.4-0.3,3.6-0.1c-0.7,0.3-1.4,0.4-2.2,0.5c-0.6,0.1-1.3,0.2-1.9,0.2h-0.9h-0.9
	C596.2,41.2,595.6,41.3,595.1,41.4c-0.3-0.1-0.6,0-0.9,0.1C594.5,41.4,594.8,41.4,595.1,41.4L595.1,41.4z M539.5,51.3l-1.2-0.3
	l-1.1-0.4c-0.8-0.2-1.5-0.4-2.2-0.8h0.5c1.5,0.5,3,1,4.5,1.3L539.5,51.3z M549.5,54c1.4,0,2.7-0.1,3.9-0.1s2.2-0.2,3.2-0.3
	c-1.1,0.2-2.2,0.3-3.3,0.4l-2.1,0.1l-1,0.1h-1c-2.6,0.1-4.5,0-3.7,0.6l-1.5-0.5h1.4c-1.9-0.1-3.8-0.4-5.7-0.7
	C543.5,53.8,546.7,54,549.5,54L549.5,54z M490.6,38.8c-0.4,0-0.8-0.1-1.3-0.1c-0.6,0.1-1.1,0.1-1.7,0c0.6,0,1.1,0,1.7,0
	c1.3,0,2.5-0.3,2.6,0.3C491.5,38.8,491.1,38.8,490.6,38.8z M501.9,40.8c0.9,0.3,1.8,0.6,2.6,0.8c1.5,0.4,2.6,0.8,2.5,1.4
	c-1-0.6-2-1.1-3.1-1.5c0.5,0.5,2.9,2.1,0.7,1.3c-1.1-0.7-2.2-1.3-3.3-1.8c-1.3-0.6-2.4-1.2-2.2-1.4C500,40.1,500.9,40.5,501.9,40.8z
	 M495.8,34.3c0.9,0.3,1.7,0.7,2.5,1l-2.4-0.5c-0.8-0.1-1.7-0.2-2.5-0.3L495.8,34.3z M488.3,34.9l1.3-0.1l1.4,0.1l1.4,0.1
	c0.5,0,0.9,0.1,1.3,0.2c0.8,0.1,1.7,0.3,2.5,0.5c0.8,0.2,1.4,0.4,2,0.5c0.4,0.2,0.8,0.3,1.2,0.5c0.6,0.3,0.5,0.5-0.4,0.5
	c-0.5-0.5-1.2-0.9-1.9-1c-0.5-0.2-1.1-0.3-1.8-0.5s-1.4-0.2-2.1-0.4c-2.4-0.3-4.8-0.3-7.2-0.2C486.8,35,487.5,34.9,488.3,34.9z
	 M477.9,37c0.6-0.1,1.2-0.2,1.8-0.3c0.5,0,0.9-0.1,1.4-0.1c0.6,0,1.2,0,1.8-0.1c0.8-0.2,1.6-0.3,2.4-0.3c-1,0.1-1.7,0.3-2.4,0.3
	l-1.6,0.3l-1,0.2c-0.5,0.1-0.6,0-0.7-0.2c-0.8,0.1-1.5,0.3-2.2,0.5c-0.7,0.3-1.5,0.5-2.2,0.6C476.1,37.6,477,37.3,477.9,37z
	 M123.6,35.2c-0.8-0.3-1.7-0.4-2.6-0.7c0.9,0,1.7,0,2.6,0.1l2.5,0.2L123.6,35.2z M174.5,51c-1-0.2-2-0.4-2.9-0.7
	c1.4,0.2,2.9,0.4,4.4,0.6C175.5,51,175,51,174.5,51L174.5,51z M229.3,41c-2,0.8-3.9,1.7-5.7,2.8c1.1-0.1,3.8-1.5,5.1-1.8
	c-1.8,1.2-5.5,2.6-8.4,3.5c-2.8,1-4.7,1.6-2.3,1.9c-1.1,0.3-3.4,1-5.2,1.4s-3.1,0.6-2.1,0c3.3-1.1,6.6-2.4,9.8-3.8
	c3.4-1.6,6.4-3.2,8-4.1c0.3-0.4,0.8-0.7,1.2-0.8c-0.4,0.3-0.8,0.6-1.2,0.8C228.5,41,228.8,41.1,229.3,41c0.6-0.3,1.2-0.5,1.8-0.6
	C230.5,40.7,229.9,40.9,229.3,41L229.3,41z M283.4,44.7l-1.5-1.2C286.9,45.8,284.1,44.7,283.4,44.7c0.6,0.5,1.3,0.9,2,1.4
	C283,44.8,283,44.7,283.4,44.7L283.4,44.7z M295.9,49.1c-0.7,0-1.4-0.1-2-0.4c-0.5-0.1-1-0.3-1.6-0.5c-0.6-0.2-1.1-0.4-1.7-0.7
	c-1.1-0.4-2.1-0.9-3.1-1.5c-0.9-0.5-1.5-0.9-1.9-1.2c2.1,1.1,4.2,2.1,6.5,2.9c1.2,0.5,2.4,0.8,3.1,1S296.2,49.2,295.9,49.1
	L295.9,49.1z M302.6,49.2c-4.5-0.9-1.5-0.7-2.5-1c-0.5-0.1-1.1-0.3-1.6-0.4c-0.5-0.2-1.1-0.3-1.6-0.5c2,0.5,2.8,0.8,3.2,0.9
	c0.7,0.2,1.4,0.4,2.1,0.6C302.7,49,302.9,49.1,302.6,49.2L302.6,49.2z M303.2,47.9l1.7,0.3l0.8,0.2c-3-0.3-5.9-0.9-8.6-2
	c2.7,0.6,5.4,1.1,8.1,1.4c0.6,0.1,1.2,0.1,1.8,0.2s1,0.1,1.5,0.2c0.5,0.1,0.8,0.1,1.1,0.2c0.2,0,0.4,0.1,0.6,0.1
	C307.8,48.4,305.5,48.3,303.2,47.9L303.2,47.9z M322.6,46.9c0,0,0.1,0.1,0.1,0.1S322.5,47,322.6,46.9z M312.5,47.8
	c0.5,0.1,1,0.2,1.6,0.3c-0.8,0-1.6-0.2-2.3-0.2L312.5,47.8l-0.4-0.1c3.7-0.2,7.4-1,10.9-2.2C319.6,46.7,316.1,47.5,312.5,47.8z
	 M336.7,39.8c-4,1.8-2.7,1.8-4.5,2.9l0.5-1.2c1.9-1,3.9-1.8,5.9-2.5c0.8-0.2,1.5-0.4,2.3-0.7c0.8-0.2,1.8-0.4,3-0.7
	c-1.7,0.9-3.6,1.7-5.5,2.3C337.3,40.3,336.7,40.2,336.7,39.8L336.7,39.8z M342.6,39.1c-0.6,0.4-1.3,0.8-2,1.1
	C341.3,39.9,341.9,39.5,342.6,39.1c0.4-0.3,0.9-0.6,1.3-1c0.3-0.3,0.7-0.5,1.1-0.8c1.3-0.7,2.7-1,4.1-0.9
	C346.8,37.1,344.7,38,342.6,39.1L342.6,39.1z"/>
<path class="st0" d="M752.8,37.4c-1-0.5-2.1-0.9-3.2-1.3C750.8,36.5,751.8,37,752.8,37.4z"/>
<path class="st0" d="M465.8,38c-0.8,0.4-1.1,0.6-1.1,0.7C465.4,38.4,465.8,38.2,465.8,38z"/>
<path class="st0" d="M454,42.5l0.4-0.1l0.4-0.2L454,42.5z"/>
<path class="st0" d="M57.6,50.1c1.8,0.1,2.6-0.4,4.7-0.6c-1.1,0.2-3,0.2-4.2,0.3C56.8,49.8,56.2,49.9,57.6,50.1z"/>
<path class="st0" d="M74.7,48.4c-1.2,0.1-2.2,0.2-3.1,0.3s-1.6,0.3-2.2,0.4c1.1-0.1,2.1-0.3,3-0.4C73.3,48.6,74,48.5,74.7,48.4z"/>
<path class="st0" d="M65.5,49.8l-4.6,0.7c2.8-0.2,5.7-0.7,8.4-1.3C68.2,49.3,66.9,49.5,65.5,49.8z"/>
<path class="st0" d="M106.7,35l0.9-0.2h-0.1C107.2,34.8,106.9,34.9,106.7,35z"/>
<path class="st0" d="M105.2,34.3c-0.7,0.2-1.5,0.3-2.3,0.6c0.6,0,4.2-1,6.5-1.1c1.1-0.2,1.8-0.1,1.6,0s-0.5,0.2-1.2,0.4
	c-0.5,0.2-1.3,0.3-2.2,0.5c0.5-0.1,1.2-0.3,2-0.4c0.4-0.1,0.8-0.2,1.3-0.2l1.4-0.1c0.9-0.1,1.8-0.1,2.5-0.1c-2.1,0-3.3-0.2-4.8-0.1
	c-0.8,0.1-1.6,0.1-2.8,0.3C106.4,34.1,105.8,34.2,105.2,34.3z"/>
<path class="st0" d="M129.9,34.4c-1-0.2-2.1-0.3-3.2-0.4C127.8,34.1,128.9,34.3,129.9,34.4z"/>
<path class="st0" d="M140,37.7c-0.6-0.4-1.2-0.8-2-1.3c-1.2-0.6-2.5-1.1-3.8-1.5c0.5,0.3,0.1,0.3-0.8,0.2l-1.6-0.3
	c-0.7-0.2-1.3-0.3-2-0.4C133.4,35.2,135.7,36.5,140,37.7z"/>
<path class="st0" d="M236.5,33.9c0.2,0.2,2.4-0.5,3.4-0.7l3.4-0.9c1.1-0.2,1.7-0.4,0.2-0.2c-1.2,0.2-2.4,0.5-3.6,0.8
	C238.6,33.2,237.6,33.6,236.5,33.9z"/>
<path class="st0" d="M268.7,34.4c0.8,0.2,1.6,0.5,2.3,0.7l0.8-0.7c-1.3-0.4-1.4-0.3-1.8-0.2c-0.3,0-0.7,0-1,0
	c-0.5,0-1.4-0.2-2.7-0.4L268.7,34.4z"/>
<path class="st0" d="M261.8,37.3h0.2l-1.6-0.2L261.8,37.3z"/>
<path class="st0" d="M287.9,39.5c0.6,0.7,1.2,1.4,1.7,2.2C290.2,42,291,41.5,287.9,39.5z"/>
<path class="st0" d="M306,46h0.7h1.4c1,0,1.9-0.1,2.9-0.2c-2.7,0.2-5.4,0.1-8-0.3c0.4,0.1,0.8,0.2,1.2,0.3l1.2,0.2L306,46z"/>
<path class="st0" d="M324.9,42.3c0.9-0.4,1.8-1,2.7-1.4l2.7-1.5c-1.7,0.9-3.4,1.7-5,2.5C325.2,42,325,42.1,324.9,42.3z"/>
<path class="st0" d="M554.1,50.9c0.6-0.1,1.3-0.3,2-0.4l2-0.5c1.1-0.2,2.1-0.6,3.1-1c0.7-0.3,1-0.6,0.7-0.7c-0.8,0.5-1.8,1-2.7,1.2
	c-1.1,0.3-2.2,0.5-3.3,0.8c-1.1,0.2-2.1,0.3-3,0.5c-0.7,0.1-1.4,0.3-2,0.7C551.7,51.3,552.9,51.2,554.1,50.9z"/>
<path class="st0" d="M382,14.4c0.1,0,0.1,0,0.2,0C382.2,14.5,382,14.4,382,14.4z"/>
<path class="st0" d="M524.2,26.4c0.2,0,0.3,0,0.3-0.1S524,26.4,524.2,26.4z"/>
<path class="st0" d="M801.2,25.1c0.1-0.1,0-0.2-0.2-0.2S801.1,25.1,801.2,25.1z"/>
<path class="st0" d="M660.4,20.3c0.1,0.1,0.5,0,0.4,0S660.4,20.2,660.4,20.3z"/>
<path class="st0" d="M722.6,13.6c0,0,0.2,0,0.2-0.1s-0.3-0.1-0.3,0S722.6,13.6,722.6,13.6z"/>
<path class="st0" d="M704.2,19.7c0,0,0.1-0.2,0.1-0.2S704.1,19.7,704.2,19.7z"/>
<path class="st0" d="M822.8,21.9c-0.4,0-0.8,0.1-1.2,0.2h0.3l-0.4,0.1c-0.1,0,0.2,0,0.1,0c-2.3,0.1-4.6,0.5-6.9,1l0.2-0.1
	c-0.6,0.1-1.2,0.3-1.8,0.6c-0.4,0.2-0.5,0.1-0.8,0.2l0.7-0.1c0.1,0,0.2,0.1,0.1,0.1c-0.4,0.1-1,0.2-1.5,0.2c-1.1,0.1,0.6,0,0.5,0
	s-0.9,0.1-1,0.1c0.4,0,0.9-0.1,1.3-0.1h-0.2c0.2,0,0.8-0.1,0.9-0.1s0.1,0,0.2,0.1s0.5,0.1,0,0.3c-0.7,0.3-1.5,0.5-2.3,0.6
	c-0.4,0.1-0.9-0.2-1-0.6c0.3-0.1,0.7-0.1,1-0.1c-0.2,0-0.7,0.1-1,0.1l1.5-0.2c0.4,0-0.5,0-0.3,0s0.4,0,0.6-0.1l-1.8,0.2
	c0,0-0.1,0-0.1,0s-0.1-0.1-0.1-0.1c0.2,0,1.4-0.2,1.5-0.2c0.7-0.1,1-0.1,1.5-0.2c-1-0.1-1.9,0-2.8,0.3c0,0,0.1,0,0,0s0,0.1-0.4,0
	c-0.8,0-1.6,0.1-2.4,0.3h0.1l-0.8,0.1l0.8-0.1c0.1,0,0.2,0,0.3,0.1c-0.3,0.1-0.8,0.1-1.2,0.2l1.2-0.1c0.2,0,0.1,0,0.1,0.1
	c-1.4,0.2,0.3-0.1-1.4,0.1c0,0,0,0,0.1,0l0.7-0.1h0.6c-0.4,0.2-0.9,0.4-1.4,0.5c-1.3,0.3-3,0.6-4.4,0.8l2.5-1
	c-1.1,0.1-2.2,0.4-3.3,0.4c0,0,0.2,0.1,0.2,0.2c-0.1,0.6-4.2,0.3-5.2,0.5c0.4-0.1,0.9-0.5,1.3-0.5c0.8-0.1,1.4,0,2.1-0.1h-2.1
	c0.4-0.1,0.8-0.3,1.1-0.6c0.9,0,1.7,0,2.6,0c-0.4,0-0.8,0-1.2,0.1c0.8,0,1.6-0.1,2.3-0.2c-0.3,0.2,0.8-0.1,1.6-0.1
	c0.8,0,1.7,0,2.5-0.2c-1.1-0.1-1.8,0.2-2.8,0.1l1.5-0.2l-3.2,0.2c-1.1,0.1-2.1,0.1-3.2,0.1c0.1-0.1,0.1-0.2,0.2-0.3s0.3,0,0.4,0
	c-0.1,0-0.3,0-0.4,0l0,0h0.8c-0.1,0-0.7,0-0.8,0s0.2-0.3,0-0.2s-0.6,0.2-0.9,0.3c-0.7,0-1.8,0-2.3,0.1c0,0,1.9,0,2.2,0h-1.4h0.4
	c0.1,0,0.6,0,0.9,0h0.1c-0.4,0.1-0.8,0.2-1.3,0.3c-0.4,0-0.7,0-1.1,0c-0.4,0-1.2,0-1.5,0h-0.8c0.3-0.1,0.7-0.2,1.1-0.2
	c0.2,0,0.3,0.1,0.3,0s-0.2,0-0.2,0l0.4-0.1c-0.5,0-1,0-1.5-0.1l1.9,0.1c0.8,0,2,0,2.8,0c-1.1,0,1.9-0.1,0-0.1c-0.8,0-0.8,0-1.5,0.1
	s-1.4,0-2.1,0h0.2c-1.4-0.1-2.9-0.1-4.2-0.2s-2.4-0.3-3.7-0.3c1.9,0.2,3.7,0.4,5.7,0.5h0.8c-0.7,0-1.5,0-2.2,0s-1.1-0.1-1.8-0.1
	c0.5,0.2-0.6,0.9,0.4,0.1l0,0c0.2-0.1,0.4,0,0.6,0c-0.7,0-1.3,0.1-2,0s-1.5-0.2-2.2-0.2l2,0.2c0,0,0,0-0.1,0c-1.1,0-2.3,0.1-3.4,0.2
	c-0.4,0-0.9,0-1.2,0c-0.3,0-0.6-0.1-0.9-0.1c0,0,0.2-0.1,0.2,0s-0.6-0.1-0.7-0.1s0-0.1,0-0.1c0.2,0,0.8,0.1,0.9,0.2l0.4,0.1
	l-1.3-0.3c0-0.2,0.1-0.4,0.3-0.5s0.2,0,0.3,0s0,0,0,0c0.7,0.2,1.4,0.3,2.1,0.3c-0.7-0.1-1.3-0.2-2-0.4c-0.1,0-0.3,0-0.4-0.1
	c0,0,0.1-0.1,0.2-0.1c0.2,0,0.3,0,0.5,0.1c-0.1,0-0.4,0-0.4-0.1s0.3-0.1,0.4-0.1c-1.3-0.2-2.7-0.4-4-0.6c0.5-0.1,1-0.2,1.4-0.4
	c-0.6,0.1-1.1,0.1-1.7,0c0,0-0.1,0-0.1,0l-2.8-0.7c-1-0.2-2.1-0.5-3-0.8c-0.6-0.2-1.2-0.4-1.8-0.6c-0.3-0.2,0,0-0.1,0s0,0,0,0
	c-0.5,0.1-1.1-0.1-1.2-0.4c0,0,0.1,0,0,0s0.2,0-0.1,0c-0.6-0.2-1.1-0.4-1.7-0.6c-0.4-0.2-0.8-0.3-1.3-0.4c-0.4-0.1-0.8-0.3-1.2-0.4
	c0.4,0.1,0.8,0.3,1.2,0.4c-0.4,0-0.8,0.1-1.1,0.3c-1-0.3-1.9-0.7-2.9-1c0.7,0.1,1.4,0.3,2,0.7c0.8-0.5-0.5-1-1-1.3c0,0,0,0,0-0.1
	c-3-1.2-6.2-2-9.5-2.5c-0.5-0.4,0.7-0.3,1-0.3c-2.8-0.9-5.9-1.2-8.7-2l1.8,0.6c-1.7-0.1-3.4-0.3-5-0.5s-3.2-0.4-4.8-0.8l0.8-0.1
	c-0.7,0.1-1.4,0.1-2.2,0c-0.7,0-1.7-0.1-2.3-0.1c-1.1-0.1-2.3-0.1-3.4,0.1c0.3,0.1,0.6,0.2,0.8,0.4c0,0-0.2,0-0.2,0
	c0.1,0,0.1,0,0.2,0c0.3,0,0.5,0.1,0.8,0.1c-1.1,0.1-2.1,0.2-3.2,0.4l-1.6,0.3c-0.5,0.1-1,0.2-1.5,0.3l-0.8-0.6
	c-1.1,0.2-2.1,0.5-3.2,0.8c1,0.6-2.8,0.7-3.8,1.2c-0.3,0.1-0.6,0.3-0.8,0.2s1.2-0.9,1.5-1c-1.1,0.3-2.2,0.7-3.2,1.2h-2.1
	c-1.3,0.6-2.6,1.2-3.8,1.8c0.1-0.1-0.1-0.1,0-0.2c-2,1.2-4.7,1.7-6.5,3c0.1,0,0-0.1,0-0.1c-1.1,0.7-2.3,1.2-3.6,1.5l2-0.7l0,0
	c-0.6,0.2-1.5,0.5-1.9,0.7s-0.5,0.1-1,0.2c1.1-0.3,2.1-0.7,3.1-1.1c-1.2,0.4-2.5,0.8-3.7,1.2c-0.1,0-0.2,0-0.3,0.1
	c-0.1,0-0.2,0.1-0.3,0.1l-0.5,0.2l0.4-0.1c-0.7,0.3-0.7,0.5,0,0.8c-1.1,0.3-1.9,0.6-3.1,0.9c-0.3,0.1-0.3,0.2,0.3,0H695
	c1-0.3,2-0.5,3-0.8c0,0,0.1,0,0,0c-0.9,0.3-2,0.5-2.9,0.8c0,0,0.1,0,0,0l-0.5,0.1c-0.1,0,0,0-0.1,0s0.4-0.1-0.1,0l-3.4,0.8l-0.5,0.1
	c0.5-0.2,1.1-0.3,1.7-0.4l0,0c0.2-0.1,0.4-0.2,0.7-0.2c0.1,0,0,0-0.1,0c-0.8,0.3-1.6,0.6-2.4,0.9c-0.1,0-0.4,0.1-0.5,0.1
	s0.3-0.1,0.3-0.1c-0.8,0.1-1.7,0.3-2.5,0.4c-0.2,0-0.2-0.1-0.2-0.2s0.5,0,0.6-0.1l-0.6,0.1c0.7-0.1,1.2-0.2,1.8-0.3s1.5-0.3,2.2-0.4
	c-0.3,0.1-0.9,0.2-1.1,0.2s-0.7,0.1-0.7,0.1c-0.9,0.1-1.5,0.3-2.3,0.4c0.1-0.1,0-0.1,0.2-0.2c0.2-0.1,0.5-0.1,0.7-0.1l0,0l-0.7,0.1
	c0.1-0.1,0.4-0.2,0.5-0.3s0.1,0,0.1,0l0,0c0.6-0.1,1.2-0.2,1.8-0.3c-0.8,0.1-0.1,0,0.5-0.1c0.9-0.2,1.8-0.3,3-0.6
	c0.3-0.1,2.9-0.8,0.4-0.2c-1.3,0.3-3.3,0.8-4.3,1s-0.6,0.1-1.3,0.2c0.2-0.1,0.4-0.2,0.5-0.3s0,0,0.1,0s-0.1,0,0,0
	c0,0,0.1-0.1,0.1-0.1h0.1c0,0-0.1,0-0.1,0c0.2-0.3-1.1-0.3-1.4-0.2c-2.1,0.9-4.3,1.3-6.5,1.3c-0.9,0-3.2-0.3-4.3-0.4
	c0,0,0.2,0,0.1,0s0,0-0.2,0s-0.7-0.1-1-0.2c-0.9-0.2-1.9-0.4-2.7-0.6s-1.1-0.5-1.9-0.8c0,0.2,0,0.3,0,0.5l-1.7-0.3
	c-0.2,0-0.4-0.1-0.4-0.1l0.3,0.1c0,0-0.1,0-0.1,0c-0.4-0.1-0.8-0.2-1.2-0.3s0.8,0.2,0.9,0.2c-0.6-0.1-1.2-0.2-1.8-0.3
	c0.2,0,0.6,0,0.7,0c0,0,0.1,0,0.2,0c0.4,0.1,0.8,0.2,1.2,0.2c-0.4-0.1-0.8-0.2-1.2-0.3c0.6,0,1.2,0,1.8,0c-0.9,0-1.8-0.1-2.8-0.3
	l-0.2,0l-0.6-0.1c0.2,0,0.5,0.1,0.6,0.2c-0.1,0-0.2,0-0.3,0l-0.3-0.1c-1-0.4-2.1-0.7-3.2-1c0.6,0.2,1.3,0.5,1.9,0.6s1,0.3,1.5,0.5
	c-0.2,0-0.8-0.1-0.9-0.1c-1-0.1-2-0.5-2.8-1.2c-0.5-0.6-1.2-0.7-2.2-0.9c-0.1,0,0-0.2-0.2-0.2c-2.3-0.3-4.5-1.5-6.5-2.3l1.6-0.1
	c0.6,0.3,1.1,0.6,1.7,0.9c-0.8-1-3.4-1.5-4.8-2s-1.5,0-2.7-0.2c-0.1,0-0.3-0.1-0.4-0.1l0.2,0.1c-0.7-0.2-1.4-0.6-2-0.9
	c-0.5-0.4-0.8-0.8,0.1-0.7c0.1,0,0.2,0.1,0.3,0.1l-0.3-0.1c0.4,0,0.8,0,1.2,0c-0.5,0-1-0.1-1.5-0.2c-0.4-0.1-0.8-0.3-1.1-0.5l1,0.5
	c-1.5-0.4-3-1-4.4-1.4c0.2-0.3,0.5-0.3,1-0.2c-0.7-0.2-1.4-0.3-2.1-0.3c-0.3-0.2-0.5-0.6-0.8-0.7c-1.3-0.7-2.8-1.1-4.3-1.2
	c-0.3,0-0.6,0-0.9-0.1c-0.8-0.2-1.5-0.5-2.3-0.8c0.6,0.1,1.1,0.3,1.7,0.6c-1.5-0.5-3-1.9-4.6-1.4l0,0l-1.8-0.4L629,9
	c-0.7-0.2-1.4-0.3-2.2-0.5l-1-0.2c0.5,0,0.4-0.2,0.2-0.5s-0.5-0.6,0.2-0.7c-2.6-0.4-3.3,0.2-5.8,0.2c0.5-0.2,1.1-0.4,1.7-0.6
	c-0.8-0.1-1.6,0-2.3,0.2c-0.8,0.2-1.6,0.2-2.3,0.2c0.8-0.2-1.4-0.2,0.6-0.4c-0.8,0-1.9,0-2.6,0s-0.9,0-1.5,0
	c-1.2,0.1-2.5,0.2-3.7,0.3c0,0.1,0,0.3,0,0.4c-0.8,0.1-1.6,0.2-2.3,0.3c0,0-0.1,0-0.1,0c0.4,0,0.9-0.1,1.3-0.3
	c-0.7-0.2-1.5-0.1-2.2,0.2c-0.7,0.3-1.5,0.4-2.3,0.4c0,0,0.4,0.1,0.4,0.1s-0.2,0-0.4,0.1l-0.7,0.2c0.4-0.1,0.8-0.2,1.2-0.2
	c0.2,0,0,0.3-0.2,0.3s-0.5,0.1-0.7,0.1c-0.6-0.3-2.1,0.1-2.8,0.2c0.1,0.3-2.5,1.1-2.9,1.3c-0.2,0.1-0.6,0.2-0.8,0.3
	c0,0,0.7-0.2,0.7-0.2s-0.1,0.1-0.1,0.2s-0.1,0-0.2,0.1c-0.1,0-0.3,0-0.4,0c0,0,0.4-0.1,0.3-0.1s-0.3,0.1-0.3,0.1s-0.1,0-0.1,0
	s0.2-0.1,0.1-0.1s-0.1,0.1-0.2,0s0.8-0.6,0.9-0.8c-1.1,0.7-2.2,1.2-3.4,1.6c-0.8,0.3-1.8,0.7-2.6,1.1c-0.2,0.1-0.6,0.4-0.8,0.3
	s-0.1,0.1,0,0s0.9-0.4,1.1-0.5l-1.1,0.5c-0.1,0,0.2-0.2,0.2-0.2s-0.3,0.2-0.3,0.2c-0.2,0.1-0.9,0.4-0.9,0.4c0.3-0.1,0.5-0.2,0.7-0.3
	c-1.4,1-3.3,2.1-4.7,3c-0.6,0.4-0.7,0.3-1.2,0.6c0.3-0.2,0.6-0.3,1-0.5c-0.2,0.1-0.3,0.2-0.5,0.4s-0.4,0.2-0.6,0.3
	c0.1-0.2,0.2-0.4,0.4-0.6c-0.7,0.3-1.4,0.7-1.9,1.3c-0.3,0.3-0.6,0.3-0.9,0.5s-0.8,0.4-1.2,0.7c0.4-0.2,0.8-0.4,1.2-0.6
	c-1.4,0.7-2.8,1.5-4.2,2.2c0,0,0-0.1,0-0.1s-0.2,0.2-0.3,0.2c-0.4,0.2-1.2,0.6-1.5,0.8c0.5-0.2,1-0.5,1.4-0.8
	c-0.9,0.7-1.7,1.4-2.4,2.2c0,0,0,0-0.1,0.1s-0.4,0.3-0.5,0.3s0.1-0.3,0.1-0.3s0.4-0.2,0.4-0.2s-0.3,0.2-0.4,0.2
	c0.3-0.3,1.4-1.3,0.1-0.8c-0.7,0.3-1.2,0.9-1.9,1.3l-0.7-0.1c-0.2,0.5-1.5,0.8-1.5,1.2c-0.4-0.1-0.9-0.1-1.3-0.1c0,0,0.1,0,0.1,0
	s-0.1,0-0.1,0s-0.1,0-0.1,0s0.1-0.1,0.1,0s-0.1,0-0.1,0s0,0,0,0c0.5-0.2,1.1-0.5,1.6-0.7c-0.7,0.3,0.8-0.3,1-0.4s0.9-0.4,1.1-0.5
	s0.2-0.1,0.4-0.2c-0.6,0.3-0.6,0.3-1.3,0.6s-2.1,0.9-3,1.3c0,0-0.3,0-0.3,0c0.5-0.3,1.2-0.5,1.8-0.8l2.8-1.3c-0.3,0.2,1-0.5,1.2-0.6
	c-1,0.4-1.7,0.7-2.7,1.2c-0.6,0.3-1.8,0.8-2.4,1l0.8-0.4l-1,0.5c0.2,0,0,0,0.2-0.1c-0.2,0.1-0.5,0.2-0.7,0.3h-0.1
	c-0.1,0,0-0.1-0.1,0c-1.5,0.7-3.3,1.1-4.6,1.9c-0.1,0-0.1-0.1-0.3-0.1s-0.2,0.2-0.3,0.3c-0.5,0.2-1,0.3-1.6,0.5
	c0.1,0,0.3-0.1,0.4-0.1c-1,0.3-2,0.6-3,0.8c0.8-0.2,1.5-0.4,2.2-0.6l1.3-0.4c0.2-0.1,0.4-0.1,0.4-0.2s0,0-0.1,0
	c-0.2,0.1-0.4,0.1-0.6,0.2c-1.2,0.3-2,0.6-3.4,1c-0.9,0.3-1.8,0.5-2.8,0.6c0,0,0.1,0-0.1,0c-0.3,0-0.7,0.1-1,0.2
	c-0.4,0.1-1.4,0.2-2,0.3l-0.7,0.1c-0.8,0.1-0.7,0.1,0,0.1l-1.5,0.2c0.2,0,0.5,0,0.7,0c-0.5,0.1-1.1,0.1-1.6,0.1h0.5
	c-0.9,0-1.8,0.1-2.7,0.1l1,0c-0.4,0-0.7,0-1.1,0c-0.3,0-0.5,0-0.8,0c-0.5,0-0.9,0-1.4,0c-0.9-0.2-1.9-0.4-2.8-0.3
	c-0.3,0-0.9,0-1.2,0c-1-0.1-2.4,0-3.1-0.5c0,0,0,0,0,0c0.8,0,1.5,0.1,2.2,0.3c-0.8-0.1-1.7,0-2.2-0.4c0,0,0,0,0-0.1
	c-0.2-0.2-0.9-0.2-1.2-0.2c-0.2,0-0.4-0.1-0.5-0.1l0.4,0.1l0,0c-0.9-0.2-1.8-0.5-2.7-0.7c0.9,0.2,1.8,0.4,2.7,0.6
	c-0.1,0-0.2,0-0.3-0.1c0.2,0.1,0.4,0.1,0.7,0.2s-0.5-0.1-0.7-0.2c0.8,0.2,1.6,0.3,2.4,0.5c-0.5-0.2-1-0.3-1.5-0.3
	c-0.4,0-0.7-0.1-1.1-0.2c-1.8-0.5-3.8-1.1-5.5-1.6c-0.7-0.2-0.8-0.3-1.3-0.5c0.4,0.1,0.8,0.3,1.3,0.4l-1.3-0.5l0,0
	c-1.5,0.4-3.2-1-3.9-1.5c-0.3-0.2,0.4,0.2,0.3,0.1c-0.5-0.2-1.1-0.5-1.7-0.7l0,0h0l-3-1.4c-0.5-0.2,0.9,0.4,0.8,0.3
	c-0.8-0.4-1.6-0.8-2.4-1.3c1.4,0.7,2.7,1.3,4.3,2c0.3,0.1,0.9,0.4,1.3,0.5c-0.7-0.2-2.2-0.8-1.7-0.8s1.7,0.8,1.4,0.5
	c-0.4-0.1-0.7-0.2-1-0.4c0.2,0,0.4,0.1,0.5,0.2c-0.7-0.3-1.5-0.7-2.2-1l1.4,0.6c-0.2-0.1-0.2-0.1-0.4-0.2c-0.2-0.1-0.4-0.2-0.6-0.3
	c-0.3-0.1-0.3-0.1-0.8-0.3s-2.5-1.2-3-1.5c-0.6-0.3-1.2-0.6-1.7-1c0-0.1,0.3,0.2,0.3,0.2c-0.6-0.3-1.2-0.7-1.8-1l0.4,0.3
	c-1.2-0.7-2.5-1.5-3.7-2.2c0.2,0.2,1.2,0.8,1.4,0.9c0.3,0.2,0.6,0.4,0.9,0.6c1.3,0.8,2.6,1.6,4,2.3l-0.7-0.3
	c0.6,0.3,1.2,0.6,1.8,0.9c1.1,0.6-0.2,0-0.8-0.3l-1.7-0.9c-0.3-0.1-0.6-0.3-0.9-0.5c-0.6-0.3-2.2-1.3-3-1.8c0.5,0.3,0.7,0.5,1.3,0.9
	s1.4,0.8,2,1.2c0.9,0.5,2,1.1,2.9,1.6c-0.9-0.4-1.7-0.8-2.5-1.3c0.3,0.2-1.1-0.6-1.1-0.6c-1.1-0.7-2-1.2-3.1-1.9
	c-0.5-0.3-1-0.7-1.6-1.1c0.6,0.4,1.1,0.7,1.7,1c-1-0.6-1.1-0.8-2.3-1.5c-0.4-0.3-2.7-1.6-3.5-2c0.2,0.1-0.2-0.2-0.5-0.3l-1.2-0.6
	l1.3,0.7c0.3,0.2-1.2-0.6-0.3-0.1c-0.5-0.2-2.3-1.2-2.5-1.3c-0.9-0.4-0.7-0.3-1.3-0.5c-0.3-0.2-2.8-1-2.1-0.8c0.4,0.1,1.5,0.5,2,0.7
	c-1.2-0.5-2.5-1-3.8-1.3l0,0c-0.9-0.2-1.8-0.4-2.7-0.5c0.3,0,0.7,0.1,1,0.2c-2-0.3-4-0.5-6.1-0.6c-3.2-0.1-6.3,0.1-9.5,0.4h0.5
	c-3.3,0.4-6.1,0.9-9.5,1.6c-0.4,0.1-2.2,0.5-2.8,0.7s-1.9,0.5-0.7,0.2c2.7-0.6,5.2-1.2,8-1.7c0.7-0.1,1.5-0.2,2.2-0.3
	c1.1-0.1,2.2-0.3,3.2-0.4s1.9-0.2,2.9-0.2c0.6,0,1.3,0,1.9,0l1,0c0.2,0-0.8,0.1,0.5,0h0.2c0.6,0,1.1,0,1.7,0c-2.8,0-5.7,0.1-8.5,0.4
	H483c-0.4,0-3.3,0.4-2.4,0.3c-1,0.1-2,0.3-3.1,0.5l0.6-0.1c-1.2,0.1-3.7,0.5-3,0.6s0.7-0.2,1.2-0.2c-0.1,0-0.1,0-0.2,0
	c2.5-0.5,4.7-0.8,7.5-1.1c0.1,0,2.2-0.2,2.6-0.2c1.9,0.3,4.5-0.1,6.6-0.1c0.4,0,1.3,0.1,1.8,0.1s0.9,0.1,1.3,0.1s1,0.2,1.3,0.2
	c1,0.1,1.9,0.3,2.8,0.6c-1.4-0.2-2.2-0.5-3.5-0.6c2.4,0.3,4.7,0.9,6.9,1.8c2,0.8,4,1.8,6,2.9l0,0c1.5,0.9,3.5,2.1,4.8,2.9
	c0.5,0.3,0.4,0.2,0.5,0.3s0.5,0.5,0.4,0.4s0.2-0.1,0.1-0.2c1.2,0.7,2.7,1.6,3.9,2.2c0.8,0.4,0.9,0.5,1.5,0.8c-1-0.5-2.1-0.9-3.2-1.2
	h-0.1c-0.2-0.2-0.2,0-0.5-0.3c-0.6-0.5-1.2-1-1.8-1.4c-0.1,0-0.5,0.2-0.7,0.1c-1-0.5-2.1-0.9-3.1-1.5l0,0l0,0l-0.2-0.1l-1.5-0.9
	l0.7,0.4l-1.2-0.6l1.5,0.9c-1.1-0.6-2.2-1.2-3.3-1.9l0.2,0.1l-0.2-0.1l-0.4-0.3l1,0.2c-1.7-0.9-3.5-1.6-5.4-2.1
	c-0.3-0.1-0.4-0.2-0.7-0.3c0.6,0.2-0.2-0.1-0.3-0.1l0.5,0.2c-2.3-0.8-4.6-1.3-7-1.5l0.2,0.1c2.4,0.4,4.7,0.9,7,1.6
	c-0.3-0.1-0.7-0.1-1-0.2c-1-0.2-1.9-0.3-3-0.5s-2.5-0.4-3.7-0.5c-0.3,0-0.6-0.1-0.9-0.1c-1-0.3,0.9-0.5-1.2-0.6
	c-0.3,0-0.6,0.1-0.9,0.3c-0.2,0.1-0.2,0.1-0.4,0.1c-0.2,0.1-0.3,0.1-0.5,0.1c-0.2,0-0.4,0-0.5,0h-0.2h-1.5c0-0.1,0.1-0.2,0.1-0.3
	c0.6,0,1.3,0,1.9,0c-0.6,0-1.3,0-1.9,0v-0.1c-0.5,0.1-1.2,0.4-1.7,0.5s-0.9,0-1.4,0.1l0,0l-1.2,0.1c-0.5,0-0.9,0.1-1.5,0.2
	s-1.2,0.1-1.8,0.2c-0.1,0-0.2,0-0.3,0c-0.2,0-1,0.1-1.1,0.2s0.2,0,0.1,0c-0.3,0.1-0.6,0.1-0.9,0.2c-1,0.1-1.6,0.3-2.7,0.5
	c-0.6,0.1,1.5-0.3,1.5-0.3c-0.5,0-1.1,0.1-1.6,0.3c-0.1,0-0.3,0.1-0.5,0.1c-1.3,0.2-3.4,0-4,0.9l0,0c-1.5,2.1-7.6,2.3-10.8,3.1
	c-0.4,0.1-0.7,0.2-1.1,0.3c0.2-0.2,0.4-0.4,0.6-0.6c-0.9,0.3-1.7,0.7-2.5,1.1c-0.7,0.4-1.2,0.4-1.9,0.7c0.4-0.1,1-0.4,1.3-0.4
	c0.1,0-1.5,0.5-0.5,0.2l0.8-0.3c-0.1,0-0.2,0.1-0.3,0.2c-0.4,0.1-0.8,0.3-1.2,0.4l0.4-0.1c-0.2,0.1-0.6,0.2-0.9,0.3s-0.6,0-0.8,0.1
	s-0.2,0.2-0.4,0.3c-1,0.3-2,0.6-2.9,1l-0.1,0.1c-1,0.4-2.1,0.8-3.2,1.1c-0.6,0.1-0.5,0.2-0.6,0.2c-2,0.7-4.1,1.3-6.3,1.8
	c-0.5,0.1-1,0.1-1.4,0.2s-0.2,0.1-0.2,0.2s-0.1,0-0.2,0.1l-1.6,0.3c0.1-0.1,0.3-0.2,0.3-0.3c-1.5,0.3-3,0.6-4.5,1
	c-0.4,0.1-1.4,0.2-1.7,0.3c0.6,0,1.1-0.1,1.6-0.2l0,0c-0.1,0-1.4,0.2-0.9,0.2l0.6-0.1c-1.5,0.4-3,0.7-4.5,0.8l0.7-0.2
	c-1.4,0.1-2.8,0.2-4.2,0.2l0.2-0.1c-1.1,0.1-2.2,0.3-3.4,0.3l0.1-0.2c-0.7,0.1-1.4,0.2-2.1,0.2l0.4-0.3c-2.3,0.6-4.8,0.6-7.1,0.1
	c-0.1,0-0.2-0.2-0.3-0.2c-0.5,0-1.1,0-1.6,0h-0.1l-0.7-0.1l0.7,0.1h-0.3l-0.4-0.1h-0.2l-1.5-0.3c-0.4-0.1-0.6-0.2-1-0.2
	c1.9-0.1-0.4-0.3-1.1-0.4l1.5-0.3c-1.1-0.2-2.2-0.4-3.3-0.8c-1-0.3-1.6-0.5-2.5-0.7c0.3,0.2,2.1,0.9,0.9,0.9
	c-1.3-0.7-2.8-1.1-4.2-1.3c-0.1,0-0.3-0.1-0.4-0.1h-0.2c0.1,0,0.4,0.1,0.4,0.2s-2.3-0.4-2.1-0.4c0.9,0.4,1.9,0.6,2.9,0.7
	c0.7,0.3,0.3,0.5,1,0.7c0.4,0.1,1.5,0.2,2,0.3c0.1,0.2,0.1,0.3,0.2,0.5c-0.4-0.1-0.9-0.3-1.3-0.4c-0.6-0.3-1.3-0.5-1.9-0.7
	c0,0-1.4-0.5-0.7-0.2c-0.8-0.3-1.6-0.6-2.3-0.9h0.2L397,21l-2.8-1.2c0.9,0.2,2.1,0.5,2.9,0.7s2.3,0.9,0.7,0.2l-0.3-0.1
	c0.9,0.2,2.8,0.8,3.7,0.4l-2.2-0.5c-0.5-0.1-1-0.4-1.2-0.5s0.9,0.4,0.8,0.4l-1.8-0.4c-0.7-1.2-3.3-1.8-4.9-2.4
	c0.8,0.3,1.7,0.6,2.5,1c-0.5-0.2-0.8,0.2-1.3,0c-2.7-1.2-5.7-2-8.2-3.3h0.2c-0.9-0.2-2.3-0.5-3-0.7s-0.5-0.4,0-0.5
	c-2.8-0.5-5.7-1-8.5-1.5l0.6,0.2c0.4,0.2,0.9,0.3,1.3,0.4c-1.4-0.3-2.8-0.5-4.3-0.7c-0.2,0-0.4,0-0.7-0.1c0.8,0,1.7-0.1,2.5-0.1
	c-1-0.1-2-0.1-3-0.2c0.1,0.1,0.3,0.2,0.4,0.4c-0.2-0.1-0.4-0.1-0.7-0.1c-0.1,0,0,0,0,0c0.8,0.2,1.7,0.2,2.6,0.3h-0.7
	c0.6,0.1,1.4,0.2,2,0.3s1.3,0.2,1.8,0.3c1,0.2,1.9,0.4,2.8,0.7c-0.1,0-0.1,0-0.2-0.1l1.8,0.5c0,0,0.1,0,0.1,0
	c-0.7-0.2-1.3-0.3-2-0.5s-1.3-0.4-1.9-0.5c0.9,0.2,1.8,0.3,2.8,0.5h0.3l0.7,0.2l-0.7-0.2c0.3,0,0.6,0.1,0.9,0.2
	c0.2,0,0.3,0.1,0.5,0.1c0.7,0.2,1.8,0.6,2.5,0.8l-0.3-0.1l0.5,0.2c0.1,0,0.3,0.2,0.2,0.1l-0.9-0.3c-0.3-0.1,0.7,0.2,1,0.4
	c0.1,0,0.2,0.1,0.2,0.1s-0.1,0-0.1,0c-0.1,0-0.1,0-0.2-0.1c0,0,0.2,0,0.2,0.1s0,0-0.1,0l-0.3-0.1c0,0,0.4,0.1,0.3,0.1l0,0l0.3,0.1
	c0,0-0.2-0.1,0,0l1.1,0.4c-0.2-0.1-0.2-0.1-0.5-0.2l-0.7-0.3c0.4,0.1,1,0.3,1.2,0.4s-0.5-0.1,0.3,0.1c0.1,0,0.2,0.1,0.3,0.1l0.8,0.4
	c-0.6-0.2-1.2-0.5-1.9-0.7c1.7,0.6,3.3,1.3,5,2c0.1-0.3,0.9,0.4,1.4,0.5c-0.8-0.3,0.3,0.2,0.5,0.2c0.1,0,0.2,0.1,0.3,0.1
	c0.2,0.1,0.5,0.2,0.8,0.3c1,0.4,1.5,0.6,2.7,1.1s3.3,1.4,4.7,1.9c0.9,0.3-0.7-0.3-0.5-0.2s0.8,0.3,1.1,0.4c-0.2-0.1-2-0.8-1.6-0.6
	c0.7,0.2,1.9,0.7,2.6,0.9l0.2,0.1l0.9,0.3c0.8,0.2,1.3,0.4,2.1,0.6s1.4,0.4,2.3,0.6l1.5,0.4l-0.4,0c0.2,0,0.5,0.1,0.7,0.2
	c0.1,0,0.2,0.2-0.2,0.1s-1.5-0.3-2-0.4c0.7,0.1,1.4,0.3,2,0.5c0,0-0.2,0-0.1,0l0.8,0.1c0.3,0,0.9,0.2,1.3,0.2s0.7,0.1,1,0.2
	c0.9,0.1,1.8,0.2,2.7,0.2c0.2,0,0.5,0.1,0.6,0.1s0.1,0,0.1,0h-0.2c0,0,0.2,0,0.2,0c0,0.2-2.6,0-1.2,0.1c1.7,0.2,4,0.3,5.9,0.3
	c0.5,0,1,0,1.5,0c2.5,0,5,0,7.6-0.2s5-0.5,7.5-0.8s4.9-0.9,7.3-1.4l-0.8,0.4c0.8-0.4,1.6-0.8,2.4-1.2c1.7-0.2,3.3-0.5,4.9-1
	c0.8-0.2,1.9-0.6,2.7-0.9c0.6-0.3,1.2-0.6,1.8-1c0.3-0.2-0.1,0.3-0.2,0.3c3.9-1.4,8.1-2.4,12.1-3.6c2-1.3,5.5-1.1,7.3-2.6
	c-0.3,0.1-0.5,0.3-0.7,0.4s-0.6-0.1-0.3-0.2c0.8-0.2,1.7-0.3,2.5-0.4c0.3-0.1,0.7-0.2,1-0.2c0.3,0,0.6,0.2,1,0.2l-1.8,0.1l0.7,0.5
	c2.2-1,4.6-1.6,7.1-1.6c1.3-0.1,2.2,0,3.3-0.1c0.9,0,1.8-0.2,2.7-0.5c-0.2,0.1-0.2,0.2-0.3,0.2c1,0.1,1.9,0,2.9-0.1
	c0.8-0.2,1.7-0.3,2.5-0.4c-0.1,0.4-1.4,0.5-1.9,0.6c0.5,0,1,0.1,1.5,0.1s1.1,0.1,1.6,0.1s1.2,0.1,1.6,0.2s0.6,0.1,0.9,0.1
	s0.6,0.1,0.8,0.2c2.1,0.5,4.2,1.3,6,2.5c0.3,0.1,0.6,0.1,0.8,0c0.1-0.1,0.3,0.2,0.4,0.2c0.1,0.1,0.3,0.1,0.4,0.2l0.7,0.3l0,0
	c0,0-0.1,0-0.1,0s0.2,0,0.1,0c-0.3,0-0.5-0.1-0.8-0.2c1.9,1.5,4,2.9,6.2,3.9c1.2,0.7,3,1.6,4.3,2.3c0.5,0.2,1.1,0.5,1.6,0.8
	l-0.9-0.4l0.6,0.3l0.5,0.2c0.7,0.3,1.5,0.9,2.1,1.2c0.6,0.2,1.1,0.4,1.7,0.5c0.3,0.1,0.7,0.3,1,0.5c0.8,0.3,0.1,0-0.1-0.1
	c0.9,0.4,1.8,0.8,2.8,1.2c-0.4,0.3-1.3-0.1-1.7-0.3l-0.6,0.1c1.2,0.5,2.3,1,3.5,1.4s2.5,0.9,3.8,1.2c0.6,0.2,1.3,0.3,1.9,0.5
	s1.2,0.2,1.8,0.3s1.1,0.2,1.6,0.2c0.5,0,0.9,0,1.4,0c0,0.1,0,0.2,0,0.3c0.1,0.1-0.1,0,0,0c0.2,0.1,0.4,0.2,0.6,0.2
	c0.5,0.1,1.3,0.3,2.1,0.5s-0.1-0.2-0.4-0.2c0.1,0,0.1,0,0.2,0l0.9,0.1h0.1l1.1,0.2l0,0c0.4,0,1.1,0.1,1.4,0.2s0.3,0,0.6,0l-0.5,0
	c0.5,0,0.6,0,1.1,0s0.9,0.1,1.6,0.1s1.9,0.1,2.7,0h0.2c0,0,0.1,0,0.1,0c-0.1,0-0.1,0-0.2,0c-0.1,0-0.4,0-0.7,0s-0.9,0-1.2,0
	c0.3,0,0.9,0,1.2,0h0.8c0.2,0,0,0.1,0.2,0.1s-0.1,0,0-0.1c0.3-0.1,0.6-0.1,0.8,0c0.3,0,0.7-0.1,1.1,0c0.6,0.1,1.1,0,1.7-0.1
	c0,0-0.2,0-0.2-0.1s0.3,0,0.3,0l0.4-0.1c1.1-0.1,2.2-0.2,3.3-0.4c0,0,0.1,0,0.2,0s0,0,0,0s-0.7,0.2-0.8,0.2c0.8,0,1.5,0,2.3-0.1
	c0.8-0.1,1.6-0.3,2.4-0.6c1.6-0.4,3-1,4.7-1.4l-0.3-0.1c1.1-0.3,2-0.7,3.1-1c0.8-0.2,1.8-0.5,2.5-0.8c0.2-0.1,0.4-0.3,0.6-0.5
	c0.1-0.1,0.4-0.2,0.5-0.2s0.7-0.2,0.5-0.3s-0.9,0.4-1.1,0.5s-0.1,0,0,0l0.3-0.1c0.1-0.1-0.2,0.1-0.3,0.1s-0.1-0.2,0-0.2l2.3-0.8
	l-1,0.9c2.7-2,7-3.2,9.2-5.5h0.1c1.2-0.2-0.5,0.7,0.2,0.6c0,0,0.1,0,0.1,0h-0.1l0.1-0.1c2.6-1.2,5.1-2.6,7.5-4.2
	c0.4-0.2,1.6-0.8,1.7-0.9s-1.6,0.8-1.7,0.8c0.6-0.4,1.3-0.7,2-1l-0.4,0.2c0,0,0.3-0.2,0.5-0.2s0.6-0.2,1-0.3c2.8-1,5.4-2,8.3-3
	c3-1,6.1-1.7,9.2-2l-0.2-0.2c1.5-0.2,3-0.2,4.5-0.3c2-0.5,4.2-0.4,6.3-0.5c-0.2,0.2,0.1,0.4-0.3,0.5c1.7,0,3.4,0.2,5.1,0.7h-0.7
	c2,0.4,4.7,1.2,6.5,1.7s3.9,1.2,5.1,1.5c1.5,0.5,0.8,0.5,1.3,1.1c1.4,0.6,2.8,1.1,4.2,1.5c0.5,0.2,1,0.5,1.3,0.6l0.3,0.1
	c0.3,0.1,0.5,0.2,0.8,0.4c0.2,0.1,0.2,0.2,0.4,0.3s0.1,0,0.4,0c0.4,0.1,0.7,0.3,1,0.5c-0.3-0.2-0.7-0.4-1-0.5h0.9
	c0.5,0.3,0.1,0.5,0.4,0.8c3.7,1.2,6.8,2.9,10.3,4.3l-0.2-0.3c0.4,0.1,3.2,1.2,1.6,1c2.4,0.9,4.9,1.6,7.5,2.1c2.9,0.5,6.5,1,9.7,1.3
	c0.1,0.1,0.1,0.1,0.2,0.1l-1.3-0.1l1,0.1c0.1,0,0.3,0,0.4,0c0.5,0.1,1,0.2,1.5,0.3c0.7,0,2,0.1,2.8,0.1c1.5,0,3.4-0.3,4.8,0.2
	c2.9-0.4,5.8-0.6,8.3-1.6c0.2,0.1,0.2,0.1-0.1,0.2c1.4-0.1,2.7-0.4,4-0.8c0.7-0.2,1.7-0.5,2.5-0.8l1.2-0.5c0.4-0.2,0.8-0.4,1.3-0.4
	c0.1,0,0.1,0.1,0.3,0.1s0.2-0.3,0.5-0.3c0.7-0.3,1.6-0.5,2.4-0.8c-0.8,0.3-1.6,0.5-2.4,0.8c1.7-0.9,3.6-1.6,5.3-2.6h0l0,0
	c-0.2-0.2,0.4-0.5,0.7-0.5s-0.5,0.6-0.7,0.6c1-0.1,2-0.4,2.9-0.9c0.2-0.1,0.7-0.2,0.9-0.3c-0.2,0.1-0.3,0.1-0.5,0.2
	c0.3-0.1,0.7-0.3,1-0.3c-0.1,0,0.2-0.1,0.3-0.1c0.1,0,0.2,0.1,0.3,0.1c0,0-0.1,0-0.1,0s0,0,0.1,0s0,0.1,0,0.2l0,0
	c0,0.1-0.3,0.1-0.4,0.2c0,0,0.1,0,0.1,0c0.2-0.1,0.4-0.2,0.6-0.2c2.4-0.7,4.7-1.4,7.1-2.2c0.5-0.2,1.1-0.3,1.7-0.5
	c-0.3,0.1-0.7,0.2-1,0.3c1.1-0.3,2.3-0.7,3.5-1l0.6-0.1l1-0.2c0,0,0.9-0.1,1.3-0.2c0,0,1.1-0.2,1.5-0.2s1.3-0.1,1.5-0.1s0,0-0.4,0
	s-1.6,0.2-2.2,0.2h-0.3c0.8-0.1,1.5-0.2,2.3-0.3c-0.4,0-0.8,0-1.2,0.1l-1.2,0.2c-0.4,0.1-0.7,0.1-1.1,0.2c1.6-0.3,3.2-0.6,4.8-0.7
	c2.3-0.2,4.5-0.1,6.8,0.1c0.9,0.1,0.9,0.1,1.2-0.1l0.7,0.1h-0.4h-0.3l0,0c0.5,0,1,0.1,1.5,0.1c0,0,0,0-0.1,0s-0.3,0,0,0
	c0,0,0,0-0.2,0l-0.9-0.1l0.9,0.1c-0.3,0.2,0.3,0.3,0.7,0.3c0.4,0,0.8-0.1,1.2-0.1c0.9,0.1,1.9,0.3,2.8,0.4c-0.5,0.2-1,0.3-1.5,0.2
	c-0.1,0-0.3-0.1-0.5-0.1l-0.8-0.1c0.4,0.1,0.9,0.1,1.3,0.2c0,0-0.1,0-0.1,0c0.9,0.2,1.8,0.4,2.8,0.4c0.6,0.1,1.4,0.3,1.9,0.4
	l1.3,0.3c0.4,0.1-0.8-0.1-0.7-0.1c0.5,0.1,2.3,0.6,2.5,0.6c1.2,0.4-0.7-0.2,0,0c1,0.2,2,0.5,3,0.9c1,0.4,1.6,1.5,3,0.9l0,0
	c2.3-1.2,3.9,1.2,5.7,2c-0.1,0-0.3-0.2,0.2,0.1c1.8,0.7,3.6,1.3,5.4,1.8l0.3,0.1c-1.4-0.5-2.8-0.9-4.3-1.4c-1-0.3-2-0.7-2.9-1.1
	c0.1,0,0.5,0,0.6,0c0.3,0.1,0.6,0.2,0.9,0.3c0,0,0.1,0.1,0.1,0.1h-0.2l0,0c0.1,0,0.3,0,0.4,0.1c0.8,0.3,1.7,0.6,2.4,0.8
	c-0.2,0-1.3-0.4-1.3-0.5c-0.5-0.2-0.6-0.2-1-0.4c0.3,0,0.5,0.1,0.8,0.1c0.3,0.1,0.6,0.2,0.9,0.3c0.2,0.1,0.2,0.3,0.4,0.3
	s-0.1-0.1,0-0.2c0.8,0.3,1.6,0.5,2.5,0.8c0.3,0.1,0.8,0.4,1.2,0.5l-0.2-0.1c-0.7-0.2-1.5-0.6-2.1-0.7c0.8,0.3,1.6,0.6,2.4,0.8
	c-0.2,0-0.5-0.1-0.7-0.2c0.3,0.1,0.7,0.2,0.9,0.3s0.4,0.2,0.6,0.3s0.1,0,0.4,0s0.8,0.2,1.1,0.3l-0.4-0.2l-0.4-0.1c0.2,0,0.5,0,0.7,0
	c1.1,0.3,1.7,0.4,0.5,0c-0.1,0,0.1,0,0.2,0c0.4,0.1,0.8,0.2,1.2,0.3l-1.2-0.3c0.1,0,0.2,0,0.3,0c0.7,0.2,1.5,0.4,2.2,0.6
	c-0.1,0,0.2,0.1,0.2,0.1s0.1,0.1,0,0l-0.7-0.2c0.3,0,0.5,0.1,0.8,0.2c0.9,0.4,1.8,0.7,2.8,0.8c1.2,0.2,3.2,0.4,4.5,0.7
	c0,0.1-0.1,0.1-0.2,0.2c0.7,0,1.4,0,2.1,0.1h0.1c0.6,0.1,1.2,0.1,1.8,0.2c-0.4-0.1-0.8-0.1-1.1-0.1c0.3,0,1.3,0.1,1.5,0.1
	c0.7,0.1,1.4,0.2,2.1,0.2c0.8,0,1.8,0.1,2.2,0.2c0.6,0,2,0.2,1.5,0.4c1,0,2.2,0,3.3-0.1c0.5,0,1.1-0.1,1.5-0.2s0.4,0,0.7,0
	c-0.1,0-0.5,0-0.6,0c0.1,0,0.2,0,0.3-0.1c0.1,0,0.1,0,0.1,0c0.1-0.1,0.3-0.1,0.4-0.1c0.1,0,0.3,0,0.4,0c0.2,0,0.8,0.1,1,0.2h-1.2h1
	h0.2c0.7,0,1.3,0.2,2,0.3c0.4-0.2,0.8-0.3,1.2-0.4c0.4,0,0.6,0,1-0.1 M823.2,21.7l-2.1,0.4h0.3l-0.5,0.1c0,0,0,0,0.1-0.1l0.8-0.1
	h0.4h0.1l0.4-0.1c-0.1,0,0,0,0.1,0 M822.2,22.3c-0.4,0-0.9,0-1.3,0l0.4-0.1 M796.6,24.5C796.6,24.5,796.6,24.5,796.6,24.5
	C796.4,24.5,796.5,24.5,796.6,24.5z M604.6,8.2c0-0.1,0.3-0.1,0.4-0.1s0,0,0,0S604.6,8.3,604.6,8.2L604.6,8.2z M382.4,15.1
	c-0.5-0.1-1.7-0.5-2.3-0.7c0.9,0.2,1.8,0.5,2.6,0.8C382.5,15.2,382.9,15.2,382.4,15.1z M385,16.3c0.8,0.3,1.5,0.5,2.2,0.8L385,16.3z
	 M407.5,24.4l0.2,0.1c-0.7-0.2-1.4-0.3-2-0.5c1.7,0.5-1-0.3-0.6-0.2c-0.3-0.1-0.7-0.2-1-0.3c1,0.2,2,0.3,3,0.5
	c-0.1,0.4,1.2,0.6,1.7,0.7L407.5,24.4z M408.7,24.6c-0.5,0-0.8-0.4-0.4-0.4c0.3,0,0.6,0.1,0.9,0.2c0.4,0.1,1.3,0.2,1.8,0.3
	C410.4,24.8,409.2,24.7,408.7,24.6L408.7,24.6z M414.4,25.6c0.1,0,0.1,0,0.2,0c0,0,0.1,0,0.1,0H414.4z M438,23.5l0.3,0L438,23.5
	L438,23.5z M439.2,23.6c-0.2,0-0.5,0-0.7,0c-0.2,0-0.5,0.3-0.8,0.4c-0.5,0-0.2-0.3,0.2-0.4c0.2-0.1,0.4-0.1,0.6-0.1
	c0.5-0.2,1.1-0.2,1.6-0.3C440.4,23.1,439.7,23.6,439.2,23.6L439.2,23.6z M448.1,21.7c-0.1,0-0.3,0.1-0.5,0.1
	C447.2,22,448,21.7,448.1,21.7C448.2,21.7,448.1,21.7,448.1,21.7l-0.2,0.1C447.9,21.8,448.1,21.7,448.1,21.7
	c-0.1,0.1-0.1,0.3-0.2,0.4c-0.5,0.1-1,0.2-1.5,0.2c0.2-0.1,0.4-0.1,0.6-0.2c0.2-0.1-0.5,0.1-0.6,0.2c0.1-0.1,0.1-0.1,0.2-0.2
	l1.6-0.5C448.3,21.5,448.1,21.6,448.1,21.7L448.1,21.7z M452,19.7c-0.1,0-0.5,0.1-0.6,0.2s-1.3,0.4-0.6,0.2
	C450.4,20.1,451.6,19.9,452,19.7c-0.3,0.1-0.6,0.3-0.9,0.4c-0.9,0.4-1.8,0.8-2.7,1.3c-0.4,0.2-0.8,0.2-1,0.3
	c-0.2,0.1-0.4,0.2-0.6,0.2l0.7-0.4c-1.8,0.7-3.6,1-5.5,1h0.1c2.4-0.6,5.7-1.7,7.7-2.3s-1.2,0.5,0.8-0.2L451,20
	c0.2,0,1.2-0.4,0.4-0.1c0.6-0.2,1.3-0.5,2-0.7C452.9,19.3,452.5,19.5,452,19.7L452,19.7z M454.2,18.6l-1,0.3
	c2.2-0.8-0.8,0.3,0.4-0.1c0.1,0,0.3-0.1,0.4-0.1l-0.1,0.1c-0.4,0.2-0.9,0.3-1.4,0.5c-0.2,0,0.3-0.1,0.2-0.1
	c-0.6,0.3-1.3,0.5-1.9,0.7c-0.3,0,0.3-0.1,0.2-0.1c-0.4,0.2-1.4,0.5-1.7,0.6c-1.3,0.5-2.6,0.9-3.9,1.2c-0.2,0,1.2-0.3,1.4-0.5
	c-0.4,0.1,1.3-0.5,1.6-0.6s0.1,0,0.5-0.1c0.5-0.3,1.1-0.5,1.7-0.6l0,0c0-0.5,1.1-0.4,1.5-0.5c0,0-1.4,0.5-1.6,0.5s0.3-0.1,0.6-0.2
	s0.5-0.2,0.7-0.3c0.6-0.2,1.2-0.4,1.7-0.6l0.4-0.1c0.1,0,0.2-0.1,0.3-0.1C454.4,18.5,454.4,18.5,454.2,18.6z M455.8,18
	C455.8,18,455.9,18,455.8,18l1.2-0.4C456.8,17.7,456.2,18.2,455.8,18L455.8,18z M459.8,16.5c0.9-0.2,1.8-0.8,2.8-0.8
	S460.7,16.4,459.8,16.5C459.7,16.6,459.7,16.5,459.8,16.5L459.8,16.5z M459.9,17.5c0-0.1-0.2-0.4-0.2-0.4s0,0,0.1,0
	c1.4-0.4,2.9-0.9,4.3-1.4C462.7,16.3,461.2,16.8,459.9,17.5L459.9,17.5z M465,15.4l-1.6,0.5l0.8-0.2c-1.4,0.4-2.7,0.8-4.1,1.3
	l0.6-0.2c-0.2,0.1-0.8,0.3-0.9,0.3s-0.1-0.1,0-0.1c1.5-0.5,3-1,4.6-1.4l-0.3,0.1l1.6-0.5L465,15.4z M466.8,14.7l-2.1,0.6
	c-1.6,0.5-3.4,1-5,1.5c0,0,0-0.1,0-0.1c0.1,0,0.2-0.1,0.3-0.1c1.5-0.5,2.8-0.9,4.4-1.3c0.2-0.1,0,0-0.3,0.1c1.4-0.4,2.7-0.8,4.1-1.2
	C467.7,14.3,467.5,14.5,466.8,14.7L466.8,14.7z M475.9,13.6c-1.1,0.3-2.2,0.5-3.4,0.8c0.1,0,0.1-0.1,0.2-0.1s0.6-0.1,0.2,0
	c0.8-0.2,1.7-0.3,2.4-0.5c-0.6,0.1-1.2,0.2-1.9,0.4c-0.2,0-0.6,0.2-0.7,0.1s0.2-0.1,0.3-0.2c0.6-0.3,1.2-0.6,1.8-0.9
	C475.3,13.2,475.6,13.4,475.9,13.6C476,13.6,475.9,13.6,475.9,13.6z M476.9,12.1c-2.4,0.6-4.8,1.2-7.2,1.7l1.5-0.4l-0.6,0.1
	c1.2-0.3,2.3-0.6,3.5-0.8c-2.1,0.5-4.2,0.9-6.2,1.5l0,0c-1.2,0.5-2.5,0.9-3.7,1.1c1.5-0.6,3.1-1.1,4.7-1.4c1.1-0.3,0.6-0.2,1.4-0.4
	s1.7-0.4,2.5-0.6h-0.2l1.5-0.3c0.3,0-0.5,0.1-0.4,0.1l2-0.4L477,12l0.8-0.1L476.9,12.1z M485.4,10.9c0.1,0-0.1,0.1-0.2,0.1
	S485.5,11,485.4,10.9c0.1,0,0.2,0,0.2,0h0.3c0.2,0,0.6-0.1,0.8-0.1s-0.3,0-0.2,0.1c0.7,0.1,1.4,0.2,2.1,0.2c0,0-0.5,0-0.3,0
	c-0.7,0-1.5,0.1-2.2,0.1l1.7-0.1c0.2,0,0.7,0,0.5,0c-0.3,0-1.6,0.1-1.6,0.1c-1,0.1-1.6,0.1-2.4,0.2c-0.1,0,0.1-0.1,0.2-0.1l0.7-0.1
	h-0.4h-0.3c0,0,0.7-0.3,0.6-0.3c-0.3,0-1,0-1.4,0C484.2,10.9,484.9,10.9,485.4,10.9L485.4,10.9z M488.7,11.4
	c-0.9-0.1-1.8-0.1-2.6,0.1c-1,0.2-2,0.3-3,0.2c0.3-0.1,0.7-0.2,1-0.3l0,0l0,0l2.6-0.2c0.4,0,0.8,0,1.2,0c0.4,0,1.1-0.1,1.5,0
	C489.2,11.3,488.9,11.4,488.7,11.4L488.7,11.4z M489.5,11.2c-0.2,0-0.7,0-0.4,0C489.2,11.2,489.3,11.2,489.5,11.2
	C489.5,11.1,489.4,11.1,489.5,11.2L489.5,11.2z M490.2,10.7c-0.6,0.1-1.2,0.4-1.8,0.1v0c0.7-0.1,1.3-0.2,2,0
	C490.3,10.6,489.6,10.6,490.2,10.7L490.2,10.7z M506.4,15.7l0.3,0.2l-0.4-0.2C506.2,15.7,506.3,15.7,506.4,15.7L506.4,15.7z M506,16
	c-0.2-0.1-0.3-0.1-0.4-0.2l0,0C505.6,15.8,506.1,16,506,16L506,16z M507.1,16.6c-0.3,0-0.6-0.4-0.9-0.5c0.3,0.2,0.2,0,0-0.1
	s-0.5-0.2-0.7-0.3s0,0,0,0s0.4-0.1,0.6,0s0.5,0.3,0.7,0.4S507.2,16.6,507.1,16.6L507.1,16.6z M516.7,19.4c0,0,0.2,0,0.2,0
	s0.1,0.1,0.1,0.1s0.1,0,0,0S516.7,19.4,516.7,19.4L516.7,19.4z M522.5,25.2L522.5,25.2l0.2,0.1L522.5,25.2z M526.1,26.4
	c-0.6-0.2-1.2-0.5-1.8-0.7l-0.1-0.1c-0.9-0.5-0.4-0.1-0.2-0.1C524.8,25.9,525.3,26.1,526.1,26.4L526.1,26.4c-0.1,0-0.1,0-0.2,0
	C525.7,26.3,526,26.5,526.1,26.4C526.2,26.5,526.1,26.5,526.1,26.4l-0.7-0.2l0.4,0.2c-0.9-0.3-1.8-0.7-2.7-1.1h-0.1l-0.4-0.2l0,0
	c0.1,0,0.1,0.1,0.2,0.1c0,0-0.3-0.1-0.2-0.1c0.1,0,0.3,0,0.4,0.1c0.2,0,0.4,0.1,0.6,0.1c0.3,0.1,1,0.5,1.5,0.6c0.1,0,1,0.4,0.6,0.2
	c0.1,0,0.2,0.1,0.3,0.1C526.2,26.3,526.1,26.4,526.1,26.4L526.1,26.4z M526.2,26.3L526.2,26.3L526.2,26.3L526.2,26.3
	c-0.2-0.1-2.3-1-1.2-0.5l-0.7-0.3c0.1,0,0.2,0.1,0.3,0.1L526.2,26.3L526.2,26.3L526.2,26.3z M526.4,26.3c-0.3-0.1-0.7-0.2-1-0.4
	c-0.1,0-0.1-0.1-0.2-0.1l1.5,0.5C526.6,26.3,526.4,26.3,526.4,26.3L526.4,26.3z M532.2,27.3c0,0-0.1-0.1,0-0.1l0.4,0.1H532.2z
	 M532.2,27L532.2,27c0.1,0,0.3,0,0.3,0.1S532.2,27,532.2,27L532.2,27z M533.2,27.3c-0.3-0.1-0.6-0.2-0.9-0.3c-0.1,0,0.1-0.2,0.2-0.1
	l1.3,0.4C533.6,27.3,533.4,27.3,533.2,27.3L533.2,27.3z M537.3,27.4c-0.1,0-0.6-0.1-0.7-0.2c-1-0.2-1.4-0.4-2.4-0.7s-2.3-0.7-3.3-1
	L532,26c0,0-0.2-0.1-0.2-0.1c1.5-0.3,1.6,0.4,2.8,0.9l-1.3-0.4l1.7,0.5c0.6,0.2,1.2,0.3,1.8,0.5c-0.5-0.1-1.4,0-1.9-0.1
	c-0.3-0.1-0.6-0.1-0.9-0.2l0.3,0.1c0.1,0,0.5,0.1,0.5,0.1c-0.2,0-0.5,0-0.7,0c-0.3,0-1-0.3-1.3-0.4c0.1,0,0.2,0,0.3,0
	c0.2,0.1,0.7,0.2,0.9,0.3c0.2,0.1,0.3,0.1,0.5,0.1c-0.4-0.2-0.9-0.3-1.3-0.4h0.9c-3.3-1.2-6.7-2.3-9.8-3.7c-0.1,0-0.1-0.1-0.1-0.1
	l0.8,0.4l-0.8-0.4c-0.1-0.1-0.1-0.2-0.1-0.2s0.5,0.3,0.6,0.3c0.8,0.4,1.1,0.5,1.9,0.9h0.1c1.5,0.6,3.1,1.2,4.7,1.8
	c-0.2-0.1-0.8-0.2-0.7-0.3c-0.8-0.3-1.6-0.6-2.3-0.8s-0.9-0.4-1.8-0.8c-0.4-0.2-2-0.8-2.5-1.1c0,0,0.2-0.1,0.3-0.1l0.4,0.2
	c1.9,0.8,3.9,1.6,5.8,2.4l-0.6-0.2c0.1,0,0.3,0.1,0.4,0.2c0.3,0.1,0.6,0.2,1,0.3c0.2,0.1,0.2,0.1,0.4,0.1s0.5,0.2,0.8,0.3
	c0.5,0.2,1.2,0.7,1.9,0.6l0,0c0.9-0.3,2.7,0.6,3.1,0.8s0.1,0,0.1,0S537.4,27.3,537.3,27.4L537.3,27.4z M542.5,31.2l0.5,0.1
	C542.8,31.3,542.7,31.2,542.5,31.2l-1.6-0.2C541.4,31,541.9,31,542.5,31.2L542.5,31.2z M539.3,28C539.3,28,539.3,27.9,539.3,28
	c0.8,0,1.5,0.1,2.2,0.3C540.6,28.2,539.7,28.4,539.3,28L539.3,28z M540.4,31h0.3h0.1c0.6,0.1,1.8,0.2,2.2,0.3h0l-0.9-0.1H542
	c0.2,0,0.8,0.1,1,0.1s0.3,0.1,0.6,0.1C542.5,31.2,541.4,31.1,540.4,31L540.4,31z M549,31.7c-1.2,0-2.5,0-3.8-0.1h0.8l0,0h0.5h-0.8
	h1.3c0.6,0,1.6,0,2.2,0c0,0,0.2,0,0.1,0L549,31.7z M548.1,31.4c0.3,0,0.6,0.1,0.9,0.2c0.1,0,0.1,0,0.1,0c-0.9,0-2,0-2.9-0.1l1.5-0.1
	C547.8,31.4,547.9,31.3,548.1,31.4L548.1,31.4z M547.9,31.4L547.9,31.4z M549.7,31.4h0.3C550,31.4,549.7,31.4,549.7,31.4L549.7,31.4
	z M549.7,31.4c0.1,0,0.3,0,0.4,0c0.4,0,0.8,0.1,1.2,0.2c-0.5,0.1-1,0.1-1.5,0c-0.1,0-0.2,0-0.2-0.1s0-0.2,0.1-0.2l0,0L549.7,31.4z
	 M549.8,31.7C549.6,31.7,549.6,31.7,549.8,31.7s0.1-0.1-0.1-0.1L549.8,31.7z M549.7,31.7L549.7,31.7c0,0,0.1,0,0.1,0
	S549.7,31.7,549.7,31.7L549.7,31.7c0.5-0.1,1-0.1,1.5-0.1h0.1l0,0C550.8,31.7,550.2,31.7,549.7,31.7L549.7,31.7z M552.7,29.8
	c0.1,0,0.2-0.1,0.3-0.1c0.2,0,0.6-0.1,0.8-0.1l-0.7-0.1c-0.1,0,0,0,0,0l1.5-0.1c0.5,0,1-0.1,1.5-0.2c-0.1,0.1-0.3,0.2-0.5,0.2h-0.3
	c-0.4,0.1-0.7,0.1-1.1,0.1c-0.4,0-1.3,0.1-1.8,0.1c0.2,0,0,0,0.3-0.1s1-0.1,1.4-0.1c-0.4,0.1-0.9,0.1-1.4,0.2L552.7,29.8z M556,29.3
	L556,29.3c0,0-0.3-0.1,0-0.1L556,29.3z M553,31.5L553,31.5l1-0.1C553.6,31.5,553.3,31.5,553,31.5c-0.3,0-0.2-0.1-0.3-0.1
	c0.9,0,1.8-0.1,2.8-0.2c0.6-0.1,1.1-0.2,1.7-0.2c-1.3,0.4-2.7,0.5-4.1,0.4L553,31.5z M559.5,28.2l-1.2-0.2c-0.7,0.1-1.4,0.4-2,0.9
	c-0.7,0.1-1.5,0.2-2.2,0.3c0.2,0,0.3,0,0.5,0c-0.1,0-0.8,0.1-1,0.1l-0.5,0.1l1.4-0.1c0.4,0,0.5-0.1,0.8-0.1c0.3-0.1,0.7-0.1,1-0.2
	c0.1,0-0.1,0.2-0.2,0.2c-0.1,0-0.2,0-0.3,0h0.2c0,0,0.1,0,0.1,0s0,0,0,0l-1.1,0.2c-0.7,0.1-1.2,0.1-1.9,0.2
	c-0.1-0.2-0.5-0.2-0.9-0.2c-0.7,0-2-0.2-2.7-0.2c-1.2-0.1-2.2,0-3.3,0c-1.1-0.1-2.1,0-3.2,0.1c1.2-0.3,2.4-0.4,3.7-0.4
	c0,0-0.1,0,0,0h0.6c0.6,0,1.4,0,2,0c1.1,0,2.1,0,3.1-0.1H552c0.7-0.1,1.6-0.2,2.2-0.2s1.6-0.2,2-0.3c0.7-0.1,1.3-0.2,2-0.4
	c0.7-0.2,1.2-0.3,2-0.5c0.5-0.1,0.9-0.2,1.4-0.3l-0.3,0.1l1.7-0.5c-1.2,0.4-2.9,0.7-3.5,1.4L559.5,28.2z M563.9,26.2l-0.8,0.2
	C563.4,26.4,563.8,26.2,563.9,26.2C564,26.1,564,26.1,563.9,26.2L563.9,26.2z M564.7,28.8c0.5-0.3,1.1-0.5,1.8-0.6
	c-0.3,0.1-0.5,0.2-0.8,0.3c0.2-0.1,0.5-0.2,0.8-0.3c0.1,0,0.1,0,0,0c-0.3,0.1-0.6,0.2-0.9,0.3c-0.2,0.1-0.5,0.2-0.8,0.2
	C564.6,28.7,564.8,28.7,564.7,28.8L564.7,28.8z M565.6,29C565.6,29,565.5,29,565.6,29c0.2-0.1,0.4-0.1,0.6-0.2
	C566.2,28.7,565.7,28.9,565.6,29L565.6,29z M566.5,28.6c-0.3,0.2-0.7,0.3-1,0.4c-0.3,0-0.6-0.1-0.6-0.2s0.1,0,0.3-0.1l1-0.3
	c0.1-0.1,0.2-0.1,0.4-0.1C566.5,28.3,566.5,28.4,566.5,28.6L566.5,28.6z M575.6,23c0,0-0.5,0.1-0.4,0c0.2-0.1,0.4-0.2,0.6-0.3
	C575.8,22.7,575.7,22.9,575.6,23L575.6,23z M582.4,19c-1.1-0.5-2.7,1.7-3.7,1.2c0.1-0.1,0.5-0.2,0.6-0.3c1.5-0.8,2.8-1.5,4.2-2.3
	c0,0-0.1,0,0,0.1s0.3-0.1,0.4-0.2C583.5,18.2,583,18.7,582.4,19L582.4,19z M585.2,17c-0.1,0,0-0.1,0.1-0.1s0.2-0.1,0.2-0.1
	S585.3,17,585.2,17L585.2,17z M586.5,16L586.5,16L586.5,16z M591.5,12.7L591.5,12.7z M591.7,12.7c0,0-0.2,0-0.1,0s0.4-0.2,0.4-0.2
	L591.7,12.7z M598.1,10.4H598H598.1C598.2,10.4,598.2,10.4,598.1,10.4L598.1,10.4z M604.1,8.7L604.1,8.7l0.4-0.1L604.1,8.7z
	 M610,7.7c-0.2,0.1-0.4,0.1-0.7,0.1l-0.4,0.1c-0.1,0-0.2,0-0.3,0c0.1,0,0.6-0.1,0.8-0.1c-0.3,0-0.6,0.1-0.9,0.1
	c-0.2,0-0.5-0.1-0.7-0.1c0.8-0.1,1.5-0.2,2.3-0.3C610,7.5,610.1,7.6,610,7.7L610,7.7z M634.8,10.7c-0.2,0-0.2-0.1-0.6-0.2
	s-1.3-0.5-1.8-0.6C633.2,10.1,634,10.4,634.8,10.7c-1.3-0.2-2.4-0.4-3.6-0.8c0.4-0.1-1.2-0.5-1.9-0.6s-2.9-0.6-3.9-1
	c0.5,0.1,0.4,0.1,1.1,0.2s1.3,0.3,2.4,0.5c1.8,0.4,3.6,0.9,5.4,1.5c0.1,0,0.7,0.2,0.7,0.2S635,10.7,634.8,10.7L634.8,10.7z
	 M642.7,17c0.4,0.1,1,0.2,1.4,0.4s0.5,0.4,0.8,0.6L642.7,17z M687.9,25.1l1.2-0.2l-0.7,0.1L687.9,25.1
	C687.8,25.2,687.9,25.1,687.9,25.1L687.9,25.1z M688.9,25.4c-0.2,0-0.3,0-0.5,0l1.4-0.2C689.6,25.3,689.2,25.4,688.9,25.4
	L688.9,25.4z M693.3,24c-0.1,0-0.6,0.2-0.7,0.1s0.1,0,0.2-0.1l0.8-0.2C693.6,23.9,693.5,23.9,693.3,24L693.3,24z M701.1,24.8
	c0.3-0.2,0.6-0.4,1-0.4c0,0,0.1,0,0.1,0.1C702.1,24.7,701.5,24.7,701.1,24.8L701.1,24.8z M711.6,20.4c0.4-0.2,0.8-0.4,1.2-0.5
	c0,0,0,0,0,0L711.6,20.4z M718.9,15c-0.2,0-0.4,0-0.6,0c0.2-0.1,0.4-0.2,0.7-0.2C718.9,14.8,718.9,15,718.9,15L718.9,15z
	 M740.8,15.6l-1.6-0.2l0,0L740.8,15.6L740.8,15.6z M749,17.6l0.2,0.1l-1.4-0.3l-0.8-0.2c1,0.1,2,0.4,3,0.7
	C749.8,17.8,749.3,17.7,749,17.6L749,17.6z M761.8,21.6c-0.1,0-0.6-0.4-0.8-0.3l0,0c-1.7,0.6-3-0.8-4.2-1.5c-0.1,0-0.5-0.1-0.8-0.2
	c-0.6-0.2-2.9-0.8-3.1-1s3.4,1,3.9,1.1c-0.9-0.3-2-0.7-3-1l1.2,0.4l-1.7-0.5c-0.4-0.1-0.7-0.2-0.9-0.3c-0.1,0-0.2-0.1-0.3-0.1
	c-0.3-0.1-0.7-0.2-1-0.3c-0.1,0,0.2-0.1,0.4-0.1s0.7,0.2,0.9,0.2c-0.3-0.1,0.3,0,0.5,0.1c0.2,0.1,0.3,0.1,0.5,0.1
	c0.2,0,0.6,0.1-0.1-0.1c-0.3,0-0.7-0.1-1-0.2c-0.2-0.1-0.3-0.1-0.5-0.2c-0.1,0-0.2,0-0.2-0.1c0.1,0,0.2,0,0.3,0h0.2
	c0.5,0.1,1.1,0.3,1.6,0.4s1,0.3,1.5,0.5s1.2,0.3,1.7,0.5c0.8,0.3,1.4,0.7,2.2,1l-0.3-0.1c0.7,0.2,1.4,0.5,2.1,0.7
	c-0.3-0.1,0.4,0.1-0.7-0.3l-0.7-0.2c0,0,0,0,0.1,0s1,0.2,0.2-0.1c0.8,0.2,1.5,0.6,2.2,1c0.1,0.1,0,0,0.1,0S761.9,21.6,761.8,21.6z
	 M769.8,19.9c0.4,0.1,0.8,0.2,1.1,0.4l0,0C770.6,20.2,769.8,20.2,769.8,19.9C769.8,19.9,769.6,19.9,769.8,19.9L769.8,19.9z
	 M769.7,19.9L769.7,19.9L769.7,19.9C769.6,19.9,769.7,19.8,769.7,19.9L769.7,19.9z M768.3,19.5c0.1,0,0.3,0.1,0.3,0.1
	C768.5,19.6,768.5,19.5,768.3,19.5L768.3,19.5L768.3,19.5l1.3,0.4H768C767.6,19.5,767.6,19.3,768.3,19.5L768.3,19.5z M767.5,23
	l-0.8-0.3L767.5,23z M762.7,18.2C762.7,18.2,762.7,18.2,762.7,18.2S762.7,18.1,762.7,18.2L762.7,18.2z M763.6,22.2
	c-0.3-0.1-0.6-0.2-0.8-0.4c0.4,0,0.9,0.1,1.3,0.3c0,0,0.1,0,0,0c-0.2,0-0.3,0-0.5,0L763.6,22.2z M762.2,18.3c0.1,0,0.2-0.1,0.2-0.1
	c0.8,0.3,1.6,0.6,2.4,0.9c-0.3-0.1,0.5,0.2,0.6,0.2c-1.1,0-2.4-0.7-3.2-1.1L762.2,18.3z M768.6,23.6c-0.2,0-0.2,0-0.4-0.1
	s-1-0.4-1.3-0.5l0.3,0.2c-0.4-0.1-0.8-0.2-1.2-0.4c-0.2-0.1-0.4-0.2-0.6-0.3l0.2,0.1c-0.1,0-0.3-0.1-0.4-0.1c0.1,0,0.3,0.1,0.4,0.2
	c0,0,0.1,0,0,0c-0.3,0-0.6-0.1-0.8-0.3c0.2,0,0.4,0.1,0.6,0.1l-0.2-0.1l0.2,0.1l-0.3-0.1c0,0-0.1-0.1-0.1-0.1l1.4,0.5
	c-0.2-0.1,0,0-0.2-0.1s-1-0.3-1.3-0.4c0,0-0.1-0.1,0,0l0.3,0.1c0.2,0.1,0.8,0.2,1.1,0.3s0.7,0.2,1,0.4c-0.8-0.3,0.4,0.1,0.5,0.1
	c0.3,0.1,0.6,0.2,0.9,0.3c0,0,0,0.1,0,0.1L768.6,23.6z M772,22c-0.6-0.2-1.2-0.4-1.8-0.6c0.3,0,1.2,0.3,1.3-0.1
	c0.5,0.2,1.2,0.4,1.7,0.6c0.1,0,0.3,0.2,0.3,0.2c-0.3-0.1-0.6-0.2-0.9-0.3c0.1,0,0.3,0.1,0.5,0.2s0.4,0.1,0.4,0.1s0.3,0.1,0.2,0.2
	c-0.3,0.1-0.6,0.1-0.9,0C772.6,22.2,772.3,22.1,772,22z M773,24.8c0.7,0.1,1.4,0.3,2.1,0.5c0,0,0,0.1,0.1,0.1L773,24.8z M776.6,23
	c0,0-0.3-0.1-0.3-0.1S776.7,23,776.6,23c-0.6-0.1-1.2-0.1-1.7-0.3c-0.3-0.1-0.5-0.3-0.3-0.3c0.4,0,0.8,0.1,1.2,0.2l0,0l0,0
	c0.5-0.3,1,0.2,1.1,0.3S776.6,23,776.6,23L776.6,23z M777,23c-0.5-0.1-1.5-0.4-1.8-0.5s-0.3-0.1-0.3-0.1c0.2,0,0.3,0,0.5,0
	c0.4,0.1,1.1,0.3,1.4,0.4c0.6,0.1-0.6-0.2,0.8,0.2C777.3,23,777.2,23,777,23L777,23z M778,22.3h-0.4c-0.2,0-0.8-0.2-0.8-0.2
	s0.6,0.2,0.7,0.2c-0.4,0-0.6,0.1-0.7,0.4c0.4,0,0.8,0,1.2,0.1c-0.3,0-0.2,0.2-0.6,0.2s-1.4-0.4-2-0.5c0.1,0,0.2-0.1,0.1-0.1
	c-1-0.1-1.7-0.5-2.7-0.7c0,0,0.3,0.2,0.3,0.2s-0.2,0-0.2,0c-0.3-0.1-0.9-0.3-1-0.4s-0.4-0.1-0.4-0.1c-0.1-0.2-0.2-0.3-0.3-0.4
	c0,0,0,0.1,0,0.1c-0.5-0.1-1-0.2-1.6-0.3c-0.1,0-0.2-0.1-0.2-0.1c-0.1,0,0,0,0.1,0c-0.4-0.1-0.8-0.2-1.1-0.5l1.2-0.3
	c0.4,0.2,0.9,0.2,1.2,0.4c0.1,0.1,0,0.4,0.2,0.5l-0.9-0.3l-0.3-0.1c0.4,0.1,0.8,0.2,1.2,0.4c0.1,0.1,0.2,0.1,0.2,0.1s0-0.1,0-0.1
	c0.1,0,0.2,0.1,0.2,0.1c-0.1,0-0.2-0.1-0.3-0.1c-0.1-0.1-0.3-0.4-0.2-0.5s0.2,0,0.2,0s-0.2,0-0.2-0.1s0,0,0,0
	c0.5-0.1,0.8,0.3,1.2,0.4c0.8,0.3,1.6,0.5,2.4,0.7l4,1L778,22.3z M781.5,24.3c0.1,0,0.3-0.1,0.4-0.2c0.1,0,0.1,0,0.1,0l1.1,0.2
	L781.5,24.3z M796,24.6c-1.4,0.2-2.7,0.2-4.1,0.1c0.3-0.1,0.6-0.2,0.9-0.2c0.4,0,0.7,0,1.1,0l0,0c0.7,0,1.6,0,2.2,0
	C796.2,24.6,796.1,24.6,796,24.6z M803.4,27.8h0.1c0.2,0,0.3,0,0.5,0"/>
<path class="st0" d="M812.3,23.8c0-0.1-0.5,0-0.4,0s0.2,0,0.3,0S812.3,23.8,812.3,23.8z"/>
<path class="st0" d="M763.7,17.4c1.2,0.4,2.3,0.9,3.6,1.2C766.7,18.2,764.8,17.2,763.7,17.4z"/>
<path class="st0" d="M643.7,13.1c1.2,0.6,2.5,1,3.8,1.3C646.2,14.1,645,13.5,643.7,13.1z"/>
<path class="st0" d="M501.9,11.3c-0.5-0.2-1-0.3-1.6-0.2c0,0,0,0.1,0,0.1C500.9,11.3,501.4,11.4,501.9,11.3z"/>
<path class="st0" d="M554.4,29.1c0.2-0.1,0.3-0.3,0.4-0.4c-0.3,0.1-0.7,0.3-1,0.4C554,29.1,554.2,29.1,554.4,29.1z"/>
<path class="st0" d="M352.7,11c-0.8,0.1-1.5,0.2-2.2,0.3h2.6L352.7,11z"/>
<path class="st0" d="M346,11.5c1.3-0.2,2.7-0.3,4-0.4c-0.7-0.2-1.5-0.3-2.3-0.2c-0.9,0.1-1.7,0.2-2.6,0.4c-1.5,0.4-3.1,0.7-4.8,0.7
	c0.1,0,0.1-0.1,0.1-0.1c-2.8,0.9-6.3,1.7-8.5,2.9c-1.5,0.8-3.4,2-3.3,3.1c0.7-0.6,1.4-1.2,2.1-1.8c1.6,0.1,3.1-0.9,4.2-1.5
	c-0.6,0.3-1.2,0.5-1.9,0.8c0.3-0.2-0.1-0.5,0.2-0.6c1.1-0.4,2.2-0.9,3.3-1.4c1.1-0.5,2.3-0.8,3.6-0.9l-0.1,0.1
	c0.7-0.2,1.6-0.7,2.3-0.8s0.8,0.1,0.5,0.3C343.8,12,344.9,11.7,346,11.5z"/>
<path class="st0" d="M342.8,12.3c0,0-0.2,0-0.2,0S342.8,12.4,342.8,12.3z"/>
<path class="st0" d="M234.9,9.6c-0.1,0.1-0.1,0.2,0,0.2S235,9.5,234.9,9.6z"/>
<path class="st0" d="M272.4,10c0,0-0.1-0.1-0.1-0.1C271.8,9.9,272.2,10,272.4,10z"/>
<path class="st0" d="M77.2,22.6l-0.8,0.1C76.7,22.8,77,22.7,77.2,22.6z"/>
<path class="st0" d="M78,26.1l1,0.2C78.7,26.1,78.4,26,78,26.1z"/>
<path class="st0" d="M329.2,16.2c0.4-0.2,0.8-0.4,1.2-0.7C330,15.7,329.5,15.9,329.2,16.2z"/>
<path class="st0" d="M146.4,16.6c0-0.1-0.4,0-0.4,0S146.4,16.6,146.4,16.6z"/>
<path class="st0" d="M104.4,12.4c0,0-0.1,0-0.1,0s0.2,0.1,0.2,0S104.5,12.4,104.4,12.4z"/>
<path class="st0" d="M116.7,10c0,0-0.1,0.1-0.1,0.1S116.7,10,116.7,10z"/>
<path class="st0" d="M329.2,16.2c-0.6,0.2-1.1,0.6-1.5,1.2c-0.5,0.2-0.8-0.1-1.1,0.1c-0.3,0.2-0.6,0.5-0.8,0.8l-0.7-0.1l-1.6,1.2
	c-0.6-0.2-1.6,0.7-1.6,0.1c-1.1,0.5-2.1,1.1-3,1.9c-1.1,0.1,0.9-0.9,0.1-0.5c-0.6,0.2-1.3,0.7-1.9,1c-0.6,0.3-1.2,0.5-1.9,0.7
	c-1.4,0.4-2.8,0.6-4.2,0.6c-3-0.1-6-0.8-8.8-1.9h0.7c-0.8,0-1.5-0.1-2.2-0.2c-1.7-1.5-3.7-2.4-5.9-2.8c-0.1-0.1,0.3,0,0.5,0
	c-2.7-1.3-4.9-2.9-7.5-4.2c-2.4-0.4-3.2-2-5.8-2.1l0.8,0.1c0.3,0.6-2.2,0-2.8,0c0-0.5,0.2-0.9,0.1-1.4l0.9,0.7
	c0.1-0.2,0.2-0.4,0.3-0.6c-2-0.3-4-0.9-5.8-1.8c-1.5-0.9-3.3-1.3-5.1-1.2c0.2,0,0.3-0.1,0.4-0.1c-1.7-0.5-3-0.2-4.8-0.1
	c0.1-0.4,1.2-0.4,1.8-0.4C267,7,266,6.9,265.1,6.8c-1-0.1-2.2-0.1-3.3-0.2c-2.2-0.1-4.4-0.1-6.6-0.3c-0.9,0.3,0.1,0.5-0.9,0.8
	c-0.9-0.1-1.9-0.3-0.5-0.6c-1.1-0.1-2.2-0.2-3.2-0.1c-1.4,0.1-2.7,0.3-4.1,0.5c-2.8,0.5-5.5,1.2-8.3,1.7c-0.5,0.3-1,0.6-1.4,1
	c-0.7,0.5-1.4,0.9-2.2,1.3c0.3-0.7-1.2-0.5,0.3-1.3c0-0.1,0-0.2,0-0.4c-1.8,0.7-3.6,1.5-5.3,2.4c-0.7,0.4-1.3,0.8-1.9,1.4
	c-0.4,0.3-0.8,0.8-1,1.3c-0.8-0.3-1.4,0.4-2,0.7c-0.3,0.3,0.2,0,0.4,0c-0.4,0.8-1.2,0.9-2,1.5l0.1-0.2l-1.3,1.5
	c-0.4,0.2-0.8,0.3-1.3,0.3l0.6,0.3c-0.7,0.4-1.5,0.4-2.1,0.9h0.6c-0.6,0.4-1.3,1.4-2.3,1.4c-0.2,0,0.2-0.3,0.3-0.3
	c-2,0.7-2.7,2.1-4.4,3l1.2,0.2c-0.5,0.5-0.8,0.8-1.3,0.3c-0.8,0.5-1.9,0.8-2.8,1.3c-0.4,0.2-0.1,0.4-0.1,0.6c-0.5,0.2-1,0.4-1.5,0.6
	c0.1-0.2,0.3-0.5,0.5-0.7c-0.1,0.2-0.3,0.5-0.5,0.7c-0.3,0.2-0.5,0.4-0.8,0.5c-0.6,0.3-1.3,0.6-2,0.8c-0.7,0.2-1.4,0.4-2,0.6
	c-0.5,0.2-0.9,0.4-1.3,0.8c-1.1,0,0.6-0.5-0.1-0.5c-0.8,0.1-1.6,0.2-2.3,0.4c-0.4,0-0.8,0.2-1.2,0.3l-1.2,0.2
	c-0.4,0.1-0.8,0.2-1.2,0.2s-0.8,0.1-1.2,0.1c-0.7,0.1-1.5,0-2.2-0.1c-1.1-0.2-2.2-0.2-3.3-0.4c-0.6-0.1-1.1-0.1-1.7-0.2
	c-0.6-0.1-1.1-0.2-1.7-0.2c-1.2-0.2-2.3-0.3-3.5-0.6c-1.1-0.2-2.2-0.6-3.3-0.9l-0.1,0.2c-1-0.4-2-0.7-3-1.1c-0.7,0-1.5-0.2-2.2-0.4
	c-0.8-0.2-1.6-0.4-2.5-0.5c0.2-0.1,0.2-0.3,0.6-0.4c-1.1-0.2-2.2-0.7-3.1-1.3h0.5c-2.3-1.2-4.7-2.3-7.2-3.2c-1.3-0.5-0.3-0.5-0.6-1
	c-1.2-0.6-2.5-1.1-3.9-1.5c-0.2-0.2-0.4-0.5-0.6-0.8l-1,0.1c-0.3-0.3,0.1-0.4,0-0.7c-2.5-0.9-4.3-2.2-6.4-3.3c0,0.1,0,0.2,0,0.3
	c-0.3-0.1-1.9-1-0.8-0.9c-1.4-0.8-3-1.4-4.6-1.9c-0.9-0.3-1.7-0.5-2.7-0.8s-2.3-0.8-3.3-1.1c-0.3-0.7-1.6-0.9-2.6-1.1
	c-1-0.2-2.4-0.4-2.8-1.1c-1.1-0.1-2.3-0.4-3.3-0.5c-1-0.1-2-0.1-2.9,0c-0.1-0.1-0.1-0.1,0.2-0.1c-1-0.3-2-0.4-3.1-0.3
	c-0.7,0-1.4,0-2.2,0.1c-0.7,0.1-1.5,0.1-2.1,0.2c-0.1-0.1-0.1-0.2-0.2-0.3c-1,0.4-2.1,0.7-3.2,0.7c-1,0.1-2.1,0.4-3,0.8
	c-0.3-0.1,0.5-0.4,0.7-0.4c-1.6-0.3-2.4,0.5-3.9,0.7c0-0.2-0.4-0.2-0.2-0.4c-1.5,0.1-3,0.3-4.5,0.6c-1.5,0.4-3,0.8-4.5,1.4
	c-2.7,1.1-5.7,2.5-8.2,3.6c-1.4,0.6,0.8,0.4-0.7,1.2c-0.8-0.1,0.1-0.8-1.1-0.4c-0.5,0.7-1.2,1.2-1.9,1.5c-0.1-0.4-0.1-0.5,0.2-0.8
	c-1.6,0.7-2.3,1.8-4,2.5c0.2,0.1,0.2,0.2,0.2,0.4c0,0.1-0.1,0.1-0.1,0.1c-1.2,1.2-3.9,1.6-4.9,2.7c-0.2,0.2-0.4,0.4,0.1,0.2
	c-0.3,0.2-1.6,1-2,0.6c-0.2,0.4-0.5,0.8-0.8,1l-0.1-0.4c-0.2,0.3-0.4,0.6-0.7,0.8l0.8-0.1c-0.8,0.2-2,1.4-2.8,1l0.3-0.2l-2,0.5
	c-0.6,0.7-1.3,1.1-2.2,1.4c-0.8-0.1-1.6,0-2.3,0.3c-0.9,0.4-1.8,0.7-2.7,0.9c0-0.1,0-0.2-0.1-0.2c-0.8,0.4-1.6,0.7-2.4,0.9
	c-0.6,0.2-1.3,0.3-1.4,0.4c-0.3,0-2.9,0.5-2.5,0.1c-1.3,0.2-2.5,0.5-3.7,1l-2.3-0.4c-0.3,0.2-0.8,0.4-1.2,0.4c-0.5,0-1,0-1.4,0
	c-0.8,0-1.6-0.1-1.8,0.4c-0.6-0.1-1.2-0.3-1.8-0.5c-0.9,0.2-1.7,0.3-2.6,0.2c-0.9,0.1-1.8,0-2.6-0.3c0,0,0-0.1,0-0.1
	c-2.1-0.3-4.2-0.2-6.3-0.6c0-0.2-0.1-0.5-0.1-0.8c-1,0.1-1.9,0-2.9-0.2c-0.2-0.1,0.3-0.2,0.4-0.1c-0.6-0.1-1.2-0.3-1.8-0.5
	c-0.5-0.2-0.9-0.4-1.4-0.7c-1.8-0.2-3.2-0.7-5-0.9c-0.3-1,1.7,0.5,1.6-0.4c-2.1-1.2-4.3-2.2-6.6-3.1c0-0.2,0.3-0.2,0.6-0.2
	c-0.4-0.1-0.6-0.1-1-0.2s-1.5-0.4-2-0.5c-0.9-0.2-2.7-0.7-3.2-0.1c-1.7-0.2-1.4,0.3-0.8,1.2c1.1,0.4,2.7,1,2.8,1.8l0.7-0.2
	c0.7,0.2,1.3,0.8,1.1,1.2s-0.2,0.2,0,0.6s0.9,0.7,1.4,1c-0.2-0.2-0.4-0.3-0.6-0.5c0.7,0.3,1.6,0.4,2.1,0.8c0.2,0.2-0.7,0-0.8,0
	c0.6,0.2,1.2,0.3,1.8,0.5s1.2,0.3,1.8,0.4c-0.2,0.4-0.7,0.3-1.2,0.3c1.9,0.6,1.5-0.3,3.5,0.6c0.4,0.4-0.8,0.2-1.1,0.1
	c0.7,0.4,1.4,0.8,2.2,0.9c0.9,0.2,1.7,0.3,2.6,0.5c-0.5,0.4-1.2,0.2-0.1,0.7c-0.2-0.5,0.4-0.5,1.1-0.4c-0.7,0.3,1.4,0.7,1.8,0.9
	c0-0.2,0.1-0.4,0.6-0.3s1.2,0.3,1.8,0.4l-1.2-0.7c1.9,0.1,2.9,0.8,4.5,1.3c-0.3,0-0.5,0-0.8,0c0.9,0.2,1.6,0.5,2.5,0.7
	c1,0.2,2,0.2,3,0.2c-0.1,0-0.1,0-0.2,0c0.6,0,1.9,0,1.7-0.4s1.2-0.6,2.2-0.4c0.7,0.1,0.2,1.3,2.5,0.9c-0.7-0.3,0.1-0.5,0.9-0.6
	s2.4-0.4,3.4-0.6c-0.6,0.3-1.3,0.6-1.9,0.9c0.9,0,1.8-0.3,2.7-0.3c0,0-0.1-0.1-0.1-0.2c0-0.6,3.1-0.5,3.9-0.7
	c-0.9,0.7-1.6,1.1-1.7,2c0.8-0.4,1.4-0.7,2.3-1c1-0.3,2.1-0.5,3.1-0.7c-0.6,0.4-1.2,0.7-1.8,1c0.4,0,0.9-0.1,1.3-0.2
	c0.5,0,0.9-0.1,1.4-0.2c0.8-0.2,1.7-0.5,2.5-0.9c1.3-0.7,2.7-1.4,3.9-2.2c-0.1,0.6,0.6,0.8,0.1,1.3c1-0.3,2-0.7,3-1
	c-0.1,0.3-0.3,0.5-0.4,0.8c0.6-0.5,2.2-1,1.6-1.7c-0.2,0.2-0.4,0.4-0.7,0.4c0-0.6,0.5-1.1,1.6-1.3c0.7-0.2-0.1,0.3,0.1,0.6
	c0.6-0.4,1.4-0.4,2-0.8c-0.4,0-0.8,0.1-1.2,0.1c0.4-0.6,1.5-0.8,2.2-1.3c-0.6,0.5-0.6,0.7,0.4,0.8H78c0.6-0.3,1.1-0.9,1.9-1
	c0,0.3,0.1,0.5,0.1,0.8l0.5-0.8c0.6-0.1,0.8,0,0.5,0.3c2-0.9,0.4-1.5,2.8-2.6c0.3,0.5-0.6,0.8-1.2,1c0.5,0.5,1.3,0.2,2,0
	c0,0,0.1,0.1,0.1,0c1.8-1.1,3.8-2.2,4.9-3.6c0.6,0,0.3,0.4,0.2,0.6c1.6-0.9,2.7-2,4.5-2.8l-1.2,0.4c1.2-1.3,2.8-2.3,4.5-2.6
	l-0.1,0.3c0.9-0.8,2.6-0.9,3.4-1.6c-0.4-0.1-0.9-0.1-1.3-0.1c0.8-0.5,1.7-1.1,2.6-1.5l0.9,0.5c0.5-0.2,0.9-0.5,1.4-0.7
	c-0.1-0.1,2-0.6,2-1c1.1,0,0.1,0.5-0.2,0.9c0.6-0.2,1.2-0.4,1.8-0.8c0.5,0.1,1,0.2,1.4,0.3c0.8-0.3,1.6-0.6,2.5-0.9
	c-0.1,0.1,0.1,0.1,0,0.1c0.7-0.3,1.5-0.5,2.3-0.5c0.9,0,1.8-0.3,2.6-0.7c0,0-0.1,0.1,0,0.1c0.7-0.3,1.4-0.4,2.1-0.4
	c0.6-0.1,1.7,0.1,2.1,0c1.4-0.1,0.8-0.3,0.8-0.8h1.5c0.4,0,0.6,0.1,1.1,0.1c0.4,0,0.9,0,1.4,0c1.1-0.1,2.4-0.2,3.5-0.2
	c0.7,0.5,0.4,0.6-0.5,0.9c-0.9,0.2-0.9,0.5,0,0.8c1.4-0.5,3.4,0,4.9,0.2c2.1,0.8,4.1,1.8,5.9,3.1l0.3-0.5c0.9,0.3,1.8,0.5,2.7,0.8
	l-2-0.1c0.8,0.1,2.4,0.3,3,0.5c1.8,0.6,1.2,1.5,3,1.9c0.1,0-0.1,0.2,0.1,0.2c1.5,0.4,2.9,1,4.2,1.8l-1.3,0.1l-1-0.7
	c0.3,0.8,2.1,1.2,3,1.5s1.3-0.2,2.1,0c0.5,0.1,1,0.4,1.4,0.7c0.6,0.7-0.5,0.6-1.2,0.6c1.4,0.1,2.8,0.5,4,1.1
	c-0.2,0.2-0.5,0.3-0.8,0.2c0.5,0.2,1,0.2,1.5,0.2c0.6,0.5-0.4,0.1,0.5,0.8c0.9,0.7,4.3,1.1,5.9,1.7c0,0,2.7,1.4,3.2,1.8
	c-1.1-0.2-0.5,0.7-1.4,0.9c1.6,0.7,2.2,0.2,3.9,0.5l-1.6,0.3c1.1,0.2,2.1,0.2,3.2,0.4c-0.7,0.1,0.7,0.4-0.7,0.3
	c1.6,0.5,3.1,1.1,4.7,1.6l0.8-0.6c0.5,0.1,1,0.3,1.3,0.8c-0.3-0.1-0.6-0.2-0.9-0.2c0.7,0.7,2,0.4,2.9,1c-0.3-0.5,0.1-0.5,0.9-0.5
	c-0.4,0.5,1.2,0.6,1.6,0.9c-0.2-0.3,0.8-0.1,1.2,0c0.4,0,1.6,0.2,1.9-0.1c1,0.5-0.2,0.3-0.8,0.5c2.2-0.2,4.3,0.4,6.4,0.2
	c0.1,0,0,0.1,0.1,0.1c2.4-0.2,4.8-0.6,7.2-1.1l-1,0.5c2.1-0.2,2.3-1,4.1-1.4c0.5,0.6,3.3-0.8,3.2-0.1c0.5-0.3,1.2-0.7,1.7-1
	c0.4-0.3,0.8-0.6,1.1-1c1.4,0-1.4,1.4,0.2,1c0.6-0.1,1-0.7,1.6-0.9c0.2,0,0.4,0.1,0.6,0.1c0.1-0.4,1.1-0.7,1-1
	c0.6,0,1.3,0.1,1.9,0.3c1.1-0.6,2.5-1.1,3.1-2l0.3,0.1c0.4-1,2.2-1.7,2.1-2.8c0.3,0,0.7-0.1,1-0.1c0.8-0.7,0-1.2,0.4-1.8
	s1-0.8,1.6-1.3c-0.7,1.3,1.5-0.1,2.3-0.4c1.1-0.7,2-1.5,2.6-2.6c-0.2,0.8,0,1-0.8,1.7c1.9-0.4,2.5-1.9,3.8-2.7l0.4,0.2
	c1-0.8,1.7-1.9,2.1-3.1c0.8,0.2,0.5,0.6,0.3,1.1c2.3-1,4.5-2.2,7-3c1,0.1,0.4,0.4,0,0.7c1.1-0.5,2.3-1,3.5-1.3c1-0.2,2.1-0.6,3-1.1
	c-0.3,0.3,1.8,0,2.1,0c0-0.1,0-0.3,0.2-0.3c0,0,0,0,0,0c2.4-0.7,4.8-0.9,7.2-0.6l-0.7,0.2c1.9,0,3.7-0.1,5.6-0.2
	c0.9-0.1,1.8-0.1,2.8,0c1.1,0,2.1,0.2,3.2,0.5c0.7,0.3-0.9,0.5,0.7,0.7c1-0.4,2.1-0.4,3.1-0.2l-0.4,0.4c0.6-0.1,1.2-0.1,1.8-0.1
	c-0.5-0.4-2.8-0.9-1.2-1c0.6,0.3,1.3,0.4,2,0.5c0.8,0,1.5,0.3,2.2,0.7c-0.7-0.1-1.4,0-2.1,0.1c1.8,0.7,3.6,1.3,5.6,2
	c1.8,0.6,3.5,1.4,5.1,2.4c2.4,0.8,4.6,1.8,7,2.5c-0.7,0.4-1.6,0.6-2.4,0.5c1.4,0.6,3.4,0.6,4.2,1.7c2.3,0.3,4.4,1.8,6.8,1.5
	c0.3,0.5,1.4,0.7-0.4,0.5c1.8,0.6,2.5,1.8,4,2.4c0.8,0.3-0.1-0.7,1.3-0.2c0.2,0.1,0.1,0.2,0.3,0.3c0.3,0,0.5,0,0.8,0
	c0.3,0.4-0.9,0.3-1.3,0.4c1.1,0.4,2.2,0.5,3.4,0.6c1.2,0,2.5,0,3.8,0l-0.5,0.1c1,0.1,2,0.1,3,0l-0.2,0.1c0.4-0.1,0.8-0.2,1.1-0.3
	s0.7-0.2,1.1-0.4c0,0.1,0,0.2,0.1,0.2c0.4-0.2,0.7-0.4,1.2-0.6v0.3c0.5-0.5,1-0.9,1.6-1.2c0.6-0.5,1.3-0.9,2.1-1.1
	c0.1,0,0.2,0,0.3,0c0.7-0.6,1.4-1.2,2-1.7c1.5-0.2-0.8,1.2,1.5-0.1c0,0.3-0.1,0.5-0.1,0.8c1.1-0.7,2.4-1.2,3.5-1.9
	c-0.5,0.1-1.7,0.6-1.4,0C327.7,18.2,328,17.2,329.2,16.2z"/>
<path class="st0" d="M82.3,25.1c0.7-0.2,2.5-0.8,2.2-1.3C83.8,24.1,83,24.5,82.3,25.1z"/>
<path class="st0" d="M248.5,9.6c0,0-0.5-0.1-0.5,0S248.4,9.7,248.5,9.6z"/>
<path class="st0" d="M212.6,28.9c0.3-0.3,0.7-0.6,0.5-1C212.7,28.2,212.5,28.5,212.6,28.9z"/>
<path class="st0" d="M154.4,21.1c0.8,0.3,1.7,0.6,2.5,0.9C156.1,21.5,155.2,21.2,154.4,21.1z"/>
<path class="st0" d="M261.2,9C261.2,9,261.2,8.9,261.2,9c-0.4-0.1-0.8,0-1.1,0.2C260.4,9.1,260.8,9.1,261.2,9z"/>
<path class="st0" d="M249.8,9.3c0.5-0.2,1-0.3,1.6-0.4C251,8.9,249.4,9.1,249.8,9.3z"/>
<path class="st0" d="M221.4,21.8l0.2-0.6l-0.4,0.2L221.4,21.8z"/>
<path class="st0" d="M806.1,27.7"/>
<path class="st0" d="M739.7,15.6C740.4,15.7,739.9,15.6,739.7,15.6C739.6,15.6,739.7,15.6,739.7,15.6z"/>
<path class="st0" d="M775.2,25.8l0.5,0.1l-1.5-0.3c0.9,0.2,1.7,0.5,2.6,0.7L775.2,25.8z"/>
<path class="st0" d="M774.8,25.7l-2.4-0.6C773.1,25.3,774,25.5,774.8,25.7z"/>
<path class="st0" d="M756.8,19.8c0.1,0-0.3-0.1-0.3-0.1C756.5,19.8,756.6,19.8,756.8,19.8z"/>
<path class="st0" d="M749,17.6c0,0-0.7-0.2-0.8-0.2C748.3,17.4,748.9,17.6,749,17.6z"/>
<path class="st0" d="M768.1,23.8c0.3,0.1,0,0,0.2,0l-2-0.7C766.9,23.3,767.8,23.7,768.1,23.8z"/>
<path class="st0" d="M774,25.3c0.2-0.1,0.3,0.1,0.4,0.1L773,25C773.3,25.2,773.7,25.3,774,25.3z"/>
<path class="st0" d="M773.5,25.1l0.7,0.2c0.1,0,0.3,0.1,0.4,0.1L773.5,25.1z"/>
<path class="st0" d="M758.2,20.2c0.3,0.1,0.6,0.2,0.8,0.3c0,0-0.2-0.1,0.2,0C758.8,20.4,758.5,20.3,758.2,20.2z"/>
<path class="st0" d="M758.1,20.2l-0.4-0.1L758.1,20.2z"/>
<path class="st0" d="M760,20.7h-0.2c0.4,0.1,1,0.4,1.4,0.5S760.3,20.8,760,20.7z"/>
<path class="st0" d="M767.7,23.2l0.7,0.2l-1-0.3C767.5,23.1,767.5,23.2,767.7,23.2z"/>
<path class="st0" d="M731.3,16c0.6,0,1.2,0,1.8-0.1c0.1,0-0.4,0-0.7,0S731.6,16,731.3,16z"/>
<path class="st0" d="M734.9,15.9c-0.2,0-0.1,0-0.4,0S734.7,15.9,734.9,15.9z"/>
<path class="st0" d="M725.2,16.8c0.3-0.1,1.3-0.2,1.4-0.3c0.3-0.1,0.6-0.1,0.9-0.1c-0.6,0.1-1.2,0.2-1.7,0.3L725.2,16.8z"/>
<path class="st0" d="M738.6,15.7c-0.3,0-1.3-0.1-1.4-0.1S738.4,15.7,738.6,15.7c0.2,0,1.4,0.1,1.4,0.1S738.9,15.7,738.6,15.7z"/>
<path class="st0" d="M738.6,15.7L738.6,15.7C738.5,15.7,738.6,15.7,738.6,15.7z"/>
<path class="st0" d="M736.6,15.6c-0.2,0-0.4,0-0.5,0c-0.2,0-0.4,0-0.6,0C735.8,15.6,736.2,15.6,736.6,15.6z"/>
<path class="st0" d="M718.6,18.6c-0.6,0.2-1.5,0.5-2,0.7c-0.3,0.1,1.1-0.3,0.7-0.2s-0.6,0.2-1,0.3c0.7-0.2,2.5-0.9,2-0.6L718.6,18.6
	z"/>
<path class="st0" d="M715.6,19.6L715.6,19.6c-0.4,0.1-0.8,0.2-1.1,0.4C714.8,19.9,715.5,19.9,715.6,19.6z"/>
<path class="st0" d="M710,21.7l1.4-0.5l-0.7,0.2L710,21.7z"/>
<path class="st0" d="M708.6,21.5c0,0-0.3,0-0.3,0.1s0.1,0,0.1,0S708.7,21.5,708.6,21.5z"/>
<path class="st0" d="M782.1,24.2c0,0-0.1,0-0.2,0l0,0C782,24.2,782.1,24.2,782.1,24.2z"/>
<path class="st0" d="M805.1,24.5c-0.8,0-1.4,0.1-2.2,0.1s-2,0.1-3,0.1h-0.3c0.6,0,1.2,0,1.8,0c-0.3,0-0.6,0.1-0.9,0.1
	C802,24.7,803.6,24.6,805.1,24.5z"/>
<path class="st0" d="M811.2,23.6c-0.1,0-0.2,0-0.2,0h-0.3H811.2z"/>
<path class="st0" d="M813.9,23.2c-0.4,0.1-0.9,0.1-1.3,0.2C813.1,23.3,813.5,23.3,813.9,23.2z"/>
<path class="st0" d="M795.8,24.6H794h0.8C795,24.6,795.5,24.6,795.8,24.6z"/>
<path class="st0" d="M820.1,21.8L820.1,21.8L820.1,21.8z"/>
<path class="st0" d="M819.3,21.9c0.5-0.1,0.3,0,1-0.2S819.7,21.8,819.3,21.9z"/>
<path class="st0" d="M822.5,21.1"/>
<path class="st0" d="M820.2,21.4c-1.3,0.2,0.2,0-0.5,0.1l-2.4,0.4c-0.8,0.1-1.7,0.3-2.5,0.4c-1.7,0.3-3.3,0.5-5,0.7h0.4
	c-3.4,0.4-6.7,0.7-10.1,0.9c1.2,0,2.6-0.2,3.7-0.2c0.5,0-1.6,0.2-0.7,0.1s2.9-0.2,4.3-0.3c0.2,0,2.2-0.3,2.7-0.3h-0.5
	c0.7-0.1,1.7-0.2,2.3-0.2l1.6-0.2c0.1,0,0.3-0.1,0.5-0.1s0.7-0.1,0.9-0.1h-0.4l2.5-0.4c0.1,0-0.3,0.1-0.1,0c0.6-0.2,1.3-0.3,1.9-0.3
	c-0.7,0.1-1.3,0.2-2,0.3c1.6-0.2,3.2-0.6,4.8-0.8c-0.5,0.1-1,0.2-1.5,0.2s0.8-0.2,1.2-0.2l1.3-0.2"/>
<path class="st0" d="M813.6,22.8c-1.8,0.3-4,0.6-6,0.8c0.9-0.1,1.8-0.2,2.7-0.3c1.3-0.1,2.6-0.3,3.9-0.5H814l1.2-0.2
	C815.6,22.4,814.2,22.7,813.6,22.8z"/>
<path class="st0" d="M764.9,19l0.3,0.1L764.9,19z"/>
<path class="st0" d="M775.9,21.5c0.7,0.2,1.3,0.4,2,0.5L775.9,21.5z"/>
<path class="st0" d="M577,24.2c1-0.5,2-0.9,2.9-1.4c-0.2,0.2-0.5,0.3-0.8,0.4c-0.4,0.1-0.5,0.3-0.9,0.5l-0.7,0.3l0.3-0.2l-0.6,0.3
	c0.1,0,0.1-0.1,0.2-0.1c-0.6,0.3-1.1,0.5-1.7,0.8c0.7-0.3,1.4-0.7,2.1-1l-0.5,0.2L577,24.2z"/>
<path class="st0" d="M541.1,31.1c0.1,0,0.2,0,0.2,0C541.3,31.1,541.2,31.1,541.1,31.1z"/>
<path class="st0" d="M695.5,23.3c-0.7,0.2-1.3,0.3-1.9,0.5C694.2,23.6,694.9,23.4,695.5,23.3z"/>
<path class="st0" d="M697.2,22.5C697.2,22.5,697.2,22.5,697.2,22.5C697,22.5,696.2,22.8,697.2,22.5z"/>
<path class="st0" d="M542,31.1l-0.6-0.1L542,31.1z"/>
<path class="st0" d="M689.8,24.2L689.8,24.2c-0.4-0.1-0.1,0-0.5,0.1c1-0.2,2-0.4,2.9-0.6C691.4,24,690.6,24.1,689.8,24.2z"/>
<path class="st0" d="M525.2,26.3l-0.5-0.2L525.2,26.3z"/>
<path class="st0" d="M524.7,26l-0.5-0.2C524.2,25.9,524.7,26,524.7,26z"/>
<path class="st0" d="M523.1,25.4l-0.2-0.1L523.1,25.4z"/>
<path class="st0" d="M704,19.5l-1.8,0.7L704,19.5z"/>
<path class="st0" d="M677.9,24.8c0.3,0,1.4,0,1.9,0.1c-0.8,0-1.6-0.1-2.4-0.1c0,0-0.2,0-0.1,0C677.5,24.8,677.7,24.8,677.9,24.8z"/>
<path class="st0" d="M677.2,24.7C677.3,24.7,677.3,24.7,677.2,24.7C677.3,24.7,677.2,24.7,677.2,24.7z"/>
<path class="st0" d="M649.1,16.4c0,0-0.6-0.3-0.7-0.4L649.1,16.4z"/>
<path class="st0" d="M632.8,10.1l-0.7-0.2L632.8,10.1l0.2,0c-0.7-0.2-1.4-0.4-2.1-0.6C631.5,9.8,632.2,9.9,632.8,10.1z"/>
<path class="st0" d="M634.3,10.5L634.3,10.5h0.1H634.3z"/>
<path class="st0" d="M665.4,22.4l0.5,0.2l-1.9-0.6L665.4,22.4z"/>
<path class="st0" d="M632.3,9.7l-1.6-0.5c0.2,0.1,0,0,0.2,0.1L632.3,9.7z"/>
<path class="st0" d="M631,9.3h0.2C630.7,9.2,629.9,9,631,9.3z"/>
<path class="st0" d="M631.3,9.2c-0.3-0.1-2.1-0.5-1.7-0.4s1.7,0.4,2.2,0.6L631.3,9.2z"/>
<path class="st0" d="M634.6,10l1,0.3l-1.7-0.6c-0.3-0.1-0.7-0.2-0.9-0.2s0-0.1-0.1-0.1c-0.5-0.2-2.2-0.6-1.6-0.5c-1-0.2-2-0.5-3-0.7
	c0.9,0.2,1.5,0.4,2.5,0.7s2.2,0.6,3.2,1C634.2,9.9,634.4,9.9,634.6,10z"/>
<path class="st0" d="M632.9,9.4L632.9,9.4C632.9,9.4,632.9,9.4,632.9,9.4z"/>
<path class="st0" d="M554.6,29.5l-0.7,0.1L554.6,29.5C554.7,29.5,554.7,29.5,554.6,29.5z"/>
<path class="st0" d="M580.6,19.1c0.8-0.4-0.2,0.1-0.4,0.2C579.5,19.7,580.2,19.3,580.6,19.1z"/>
<path class="st0" d="M587.5,15.1L587.5,15.1c-0.6,1.4-4.1,2.2-6,3c1.8-0.9,3.5-1.9,5.3-2.8c-2.4,1.1-4.6,2.3-6.9,3.5l-0.7,0.4
	l1.8-0.9c-1.5,0.8-3,1.6-4.5,2.4c0.3-0.1,0.9-0.5,1.1-0.6s0.7-0.4,0.7-0.4c-1,0.5-2.2,1.1-3.4,1.6c0.5-0.2,0.4-0.1,1.1-0.5l-0.7,0.4
	l0.9-0.4c-0.8,0.4-0.1,0.1-0.8,0.5c0.6-0.3,0.4-0.2,1.2-0.5c2.2-1.1,4.8-2.6,7.2-3.8c-0.3,0.1,1.2-0.7,1.5-0.8
	c0.5-0.2,1.1-0.4,1.6-0.7C586.9,15.3,587.2,14.3,587.5,15.1z"/>
<path class="st0" d="M575.8,21.2c0.6-0.3,1.1-0.6,1.7-0.9c-0.5,0.1-1,0.3-1.3,0.7C576.1,21.1,575.9,21.2,575.8,21.2z"/>
<path class="st0" d="M530.6,25.4c0,0,0.1,0.1,0.1,0S530.6,25.4,530.6,25.4L530.6,25.4z"/>
<path class="st0" d="M526.6,23.9c0.1,0,0.2,0.1,0.3,0.1L526.6,23.9z"/>
<polygon class="st0" points="534.1,26.5 534.2,26.5 534.2,26.5 "/>
<path class="st0" d="M559.3,27.4c-1.8,0.3,1.2-0.3-0.8,0.1h0.2c-0.6,0.2-1.2,0.3-1.8,0.4c-0.3,0-0.4,0.1-0.2,0
	c0.7-0.1,1.4-0.3,2.1-0.4c-0.4,0.1-1.2,0.3-1.5,0.3s-0.7,0.1-0.8,0.1s0.5,0,0.5,0l0,0C557.1,27.3,558.4,27.5,559.3,27.4z"/>
<path class="st0" d="M557,27.9L557,27.9C557,27.9,557,27.9,557,27.9z"/>
<path class="st0" d="M532.5,25.9c-1.3-0.4-0.4-0.1,0.2,0.1c-1.8-0.6-3.6-1.3-5.3-2c0.8,0.3,1.6,0.6,2.3,0.9
	c-0.4-0.1-1.6-0.6-1.9-0.7c-0.8-0.3,2.4,0.9,2.9,1.1c0.5,0.1,0.9,0.3,1.3,0.5c0.8,0.3,1.4,0.4,2.2,0.7c-0.4-0.2-0.8-0.3-1.3-0.4
	C533.3,26.1,531.5,25.6,532.5,25.9z"/>
<path class="st0" d="M529.9,25L529.9,25c0,0-0.1-0.1-0.1,0S529.9,24.9,529.9,25z"/>
<path class="st0" d="M551.9,28.6c0.4,0,0.9-0.1,1.3-0.1c0,0,0.2,0.1,0,0C552.8,28.4,552.4,28.5,551.9,28.6z"/>
<path class="st0" d="M529.8,24.9l-1-0.4L529.8,24.9z"/>
<path class="st0" d="M537.7,27.3l-0.6-0.1C537.1,27.1,537.7,27.3,537.7,27.3z"/>
<path class="st0" d="M499,9.6l1,0.2L499,9.6z"/>
<path class="st0" d="M515.8,17.9C515.9,17.9,515.8,17.9,515.8,17.9s-0.5-0.3-0.6-0.4C515.3,17.7,515.5,17.8,515.8,17.9z"/>
<path class="st0" d="M525.5,22.6l0.2,0.1L525.5,22.6z"/>
<path class="st0" d="M549.7,28.8h0.7C550.3,28.7,549.7,28.8,549.7,28.8z"/>
<path class="st0" d="M524.8,22.3c0,0,0.6,0.3,0.6,0.3L524.8,22.3z"/>
<path class="st0" d="M515.7,17.5L515.7,17.5L515.7,17.5C515.7,17.5,515.6,17.5,515.7,17.5z"/>
<path class="st0" d="M538.7,27.4C538.5,27.4,538.5,27.4,538.7,27.4S538.8,27.4,538.7,27.4z"/>
<path class="st0" d="M482.6,9.6l0.7-0.1c0.1,0,0.3,0,0.2,0L482.6,9.6z"/>
<path class="st0" d="M527,23.6l1.2,0.5L527,23.6z"/>
<path class="st0" d="M537.6,27.3l-0.8-0.2L537.6,27.3z"/>
<path class="st0" d="M515.7,17.6c-0.1-0.1-0.2-0.1-0.2-0.1C515.6,17.6,515.8,17.7,515.7,17.6z"/>
<path class="st0" d="M585.9,15.6c0.2,0.1-1,0.5-1.2,0.6l0.2,0C586.1,15.7,586.5,15.4,585.9,15.6c-1.7,0.8-2.1,1-3.4,1.8
	C583.6,16.6,584.7,16,585.9,15.6z"/>
<path class="st0" d="M575.2,21.4l-1.7,0.8l0.9-0.5l-0.9,0.4C574.2,21.9,574.7,21.6,575.2,21.4z"/>
<path class="st0" d="M585.5,15.6c-0.1,0-0.5,0.3-0.3,0.2C585.3,15.8,585.4,15.7,585.5,15.6z"/>
<path class="st0" d="M585.9,15.4l-0.2,0.1l0.5-0.3L585.9,15.4z"/>
<path class="st0" d="M579.3,19.1l-1.5,0.8l0.7-0.4L579.3,19.1z"/>
<path class="st0" d="M551.9,29.1h-0.3H551.9z"/>
<path class="st0" d="M550.3,29.1c0.4,0,0.9,0,1.3,0H551H550.3z"/>
<path class="st0" d="M571.8,22.9l0.3-0.2L571.8,22.9z"/>
<path class="st0" d="M573.4,22.1c0.5-0.2,0.9-0.4,1.3-0.6c-0.1,0-1.5,0.7-1.8,0.9l0.4-0.2c-0.4,0.2-0.8,0.4-1.2,0.6
	C572.4,22.6,573.5,22.1,573.4,22.1z"/>
<path class="st0" d="M550.6,29.1c0,0,0.6,0,0.8,0s0.6,0,0.8-0.1c-1.2,0.1-2.4,0.1-3.7,0.1C549.2,29.1,549.8,29.1,550.6,29.1z"/>
<path class="st0" d="M552.7,28.9h-0.5C552.4,28.9,552.5,28.9,552.7,28.9z"/>
<path class="st0" d="M594.9,10.9c0.6-0.2,1.3-0.4,1.9-0.7C596.1,10.4,595.5,10.6,594.9,10.9z"/>
<path class="st0" d="M573.8,21.7l-1,0.5c0.4-0.2-0.8,0.4-1,0.5c1.4-0.6,2.7-1.3,4.1-2c-0.2,0.1,0.8-0.5,0.9-0.5
	c-1.1,0.6-2.2,1.1-3.4,1.7L573.8,21.7z"/>
<path class="st0" d="M558.5,27.8c0.2,0,0.7-0.1,0.9-0.2c-0.1,0-0.2,0-0.2,0L558.5,27.8z"/>
<path class="st0" d="M559.4,27.6C559.5,27.6,559.5,27.6,559.4,27.6z"/>
<path class="st0" d="M570.8,23.3c-0.2,0.1-0.9,0.4-1.2,0.5c0.4-0.3,0.6-0.5,0.6-0.9c-0.4,0.2-0.7,0.6-0.9,1
	c-0.2,0.3-0.7,0.2-0.9,0.5l1-0.4l0,0l0.2-0.2C569.5,23.9,571,23.2,570.8,23.3z"/>
<path class="st0" d="M575.9,20.6l0.3-0.1c0.1,0,0,0,0.1-0.1L575.9,20.6z"/>
<path class="st0" d="M562.9,26.4c-0.1,0-0.2,0-0.3,0.1l0,0C562.7,26.5,562.8,26.4,562.9,26.4z"/>
<path class="st0" d="M563.7,26.1c0,0-0.2,0-0.4,0.1c-0.5,0.1-0.8,0.3-1.5,0.5c-0.5,0.1-1,0.3-1.5,0.5c0,0,1.4-0.4,0.8-0.2l1.3-0.4
	C562.9,26.3,563.3,26.2,563.7,26.1z"/>
<path class="st0" d="M562,26.4c0.6-0.1,1.3-0.3,1.9-0.5c0.6-0.2-0.2,0-0.2,0c0.8-0.3,2-0.6,2.8-1c-0.7,0.3-0.2,0,0.1-0.1
	C565.2,25.4,563.5,26,562,26.4z"/>
<path class="st0" d="M485.9,10.8c0,0-0.1,0-0.1,0s-0.1,0-0.1,0S485.9,10.8,485.9,10.8z"/>
<path class="st0" d="M464.7,15.2l-0.4,0.1C464.1,15.3,464.7,15.2,464.7,15.2z"/>
<path class="st0" d="M453.7,18.7c-0.1,0-0.2,0.1-0.2,0.1C453.7,18.8,453.9,18.6,453.7,18.7z"/>
<path class="st0" d="M573.4,21.5c-0.3,0.1,0.5-0.3,0.7-0.4c-0.8,0.4-1.5,0.8-2.3,1.1C572.3,21.9,572.8,21.7,573.4,21.5z"/>
<path class="st0" d="M574.1,21.1l0.4-0.2l-0.3,0.1L574.1,21.1z"/>
<path class="st0" d="M568.7,23.5l-0.7,0.3c-1,0.4-1.9,0.7-2.8,1.1c1.2-0.3,2.1-0.8,3.4-1.3c0.1,0,0.2,0-0.4,0.2
	c0.3-0.1,0.8-0.3,0.9-0.4c0.8-0.3,0.7-0.3,0-0.1c0.7-0.2,1.3-0.5,1.9-0.9C570.3,22.8,568.3,23.9,568.7,23.5z"/>
<path class="st0" d="M571,22.4l-0.8,0.4c0.8-0.3,1.8-0.8,2.5-1.1C572.1,21.9,571.6,22.1,571,22.4z"/>
<path class="st0" d="M558.8,27.1c0.3,0,1.2-0.2-0.4,0.2c-0.3,0.1-0.8,0.2-1.2,0.2c0.5-0.2,0.9-0.9,0.8-0.2l0,0l-0.9,0.2
	c-0.3,0.1-0.6,0.1-0.9,0.2c0.4,0,0.8-0.1,1.2-0.2L558.8,27.1c1.6-0.3-0.2,0,1.3-0.3C559.7,26.9,559.2,27,558.8,27.1z"/>
<path class="st0" d="M533.8,26.5l-0.3-0.1l1.6,0.5L533.8,26.5z"/>
<path class="st0" d="M558.5,27.1l-1.7,0.4C557.4,27.3,558,27.2,558.5,27.1z"/>
<path class="st0" d="M562.8,25.9c-1,0.2-1.9,0.5-2.9,0.8c-0.4,0.1-1,0.2-1.4,0.3c1.1-0.2,2.1-0.5,3.1-0.8L562.8,25.9z"/>
<path class="st0" d="M551.5,28.2c-0.4,0-0.8,0-1.2,0c0.9,0,1.9,0,2.8-0.1c0.9-0.1,1.8-0.2,2.8-0.4c-0.7,0.1-1.6,0.2-2.3,0.3
	S552.1,28.2,551.5,28.2z"/>
<path class="st0" d="M535.6,26.9l0.5,0.1l-1-0.2L535.6,26.9z"/>
<path class="st0" d="M403.6,23.6c0.5,0.2,1.1,0.3,1.6,0.5L403.6,23.6z"/>
<path class="st0" d="M509.5,15.4c-0.4-0.2-0.3-0.1-0.8-0.4s0.8,0.5,1,0.6c-0.3-0.2,0.7,0.4,1.1,0.6
	C510.4,15.9,509.9,15.6,509.5,15.4z"/>
<path class="st0" d="M548,28.3c-0.9,0-1.9,0-2.8-0.1C546.2,28.3,547.1,28.3,548,28.3C548,28.4,548.2,28.3,548,28.3z"/>
<path class="st0" d="M391.3,18.9L391.3,18.9C391.3,18.9,391.3,18.9,391.3,18.9z"/>
<path class="st0" d="M384.8,16.3c-0.1,0,0.3,0.1,0.3,0.1S384.9,16.2,384.8,16.3z"/>
<path class="st0" d="M400,22.4c0.1,0-0.1,0-0.2-0.1l-0.3-0.1C399.6,22.3,400,22.5,400,22.4z"/>
<polygon class="st0" points="384.4,16.1 384.4,16.1 384.4,16.1 "/>
<path class="st0" d="M404.2,23.7c-0.9-0.3-1.8-0.5-2.7-0.8C402.4,23.2,403.3,23.5,404.2,23.7z"/>
<path class="st0" d="M557.3,27.2c0.4-0.1,0.9-0.2,1.3-0.3L557.3,27.2z"/>
<path class="st0" d="M398.9,22l1.4,0.5l-1-0.4L398.9,22z"/>
<path class="st0" d="M480,11.2l0.4-0.1L480,11.2z"/>
<path class="st0" d="M481.6,11c0.1,0-0.9,0.1-1.1,0.1C480.6,11.1,481.6,11,481.6,11z"/>
<path class="st0" d="M485.6,10.5c-0.1,0-0.2,0-0.2,0l-0.5,0.1L485.6,10.5z"/>
<path class="st0" d="M534.7,26.4c0.7,0.2,1.4,0.3,2.1,0.5C536.1,26.7,535.4,26.6,534.7,26.4z"/>
<path class="st0" d="M450.6,20.2c-0.4,0.2-0.9,0.3-1.3,0.5C449.7,20.5,450.1,20.4,450.6,20.2z"/>
<path class="st0" d="M484.3,10.6c0,0-5.1,0.6-5.7,0.8s1.5-0.3,1.1-0.1c0.8-0.1,3.2-0.6,2.5-0.3C482.5,10.8,484.4,10.7,484.3,10.6z"
	/>
<path class="st0" d="M538.9,27.3h0.3c-0.6-0.1-1.1-0.2-1.7-0.4C538,27.1,538.5,27.2,538.9,27.3z"/>
<path class="st0" d="M476.4,11.8l0.4-0.1l-1.6,0.3c1.2-0.2,2.4-0.5,3.6-0.7C478,11.5,477.2,11.7,476.4,11.8z"/>
<path class="st0" d="M512.2,16.5l-0.9-0.4c0.5,0.3,1,0.6,1.5,0.8c0.3,0.2,0.5,0.3,0.8,0.5c0.2,0.1,0-0.1,0,0
	c0.2,0.1,0.3,0.2,0.5,0.3c-0.3-0.2-0.8-0.5-1.1-0.7c0,0,0.1,0,0.1,0c0.2,0.1,0.8,0.5,0.9,0.5c1,0.6-0.7-0.5-0.8-0.5s0,0,0,0
	c0.3,0.1,0.6,0.3,0.9,0.5c-0.2-0.2-0.6-0.4-0.8-0.5c0,0,0.1-0.1,0-0.1s-0.4-0.1-0.4-0.1c-0.3-0.2-0.6-0.4-0.9-0.6
	c0,0,0.8,0.5,0.6,0.4c-0.3-0.2-0.6-0.4-0.9-0.5c-0.3-0.2,0.7,0.5,1.1,0.7h-0.1l-0.1-0.1c0,0,0.1,0.1,0,0s0,0-0.1,0s-0.3-0.2-0.5-0.3
	c0.2,0.1,0.4,0.2,0.5,0.3l-1.4-0.9l0.9,0.6c-0.5-0.3-1.1-0.6-1.6-0.9L512.2,16.5z"/>
<polygon class="st0" points="512.5,16.6 512.5,16.6 512.5,16.6 "/>
<path class="st0" d="M444.1,22.2c0.5-0.1,0.9-0.2,1.4-0.4C445.5,21.8,444.3,22.2,444.1,22.2z"/>
<path class="st0" d="M542.7,27.7c-0.8-0.2-1.5-0.3-2.3-0.3C541.1,27.5,541.9,27.7,542.7,27.7z"/>
<path class="st0" d="M499,10.7c-0.6-0.1-1.3-0.3-1.9-0.4c0.5,0.1,1,0.2,1.5,0.3L499,10.7z"/>
<path class="st0" d="M472.9,12.6L472.9,12.6l-0.5,0.1L472.9,12.6z"/>
<path class="st0" d="M445.4,21.8l0.3-0.1l-1.2,0.3L445.4,21.8z"/>
<path class="st0" d="M444.4,22.1l0.2-0.1l0,0L444.4,22.1z"/>
<path class="st0" d="M504.5,12.2l2.1,1c0.7,0.3,2,1.1,2.5,1.4s0.1,0.1,0.3,0.1c0.4,0.1,0.7,0.3,0.9,0.5c-0.4-0.2,0.2,0.1-0.4-0.3
	l-0.4-0.2c-2.2-1.4,1.5,0.7-1.4-0.9c-0.2-0.1-0.5-0.3-0.7-0.4c0.1,0,0.8,0.5,0.8,0.5c-1.2-0.7-2.7-1.4-4.2-2
	C504.3,12.1,503.9,12,504.5,12.2z"/>
<path class="st0" d="M500.9,11.1l-1-0.3l1.1,0.3c-1.5-0.5-3-0.8-4.6-1c-0.8-0.1-1.8-0.2-2.6-0.2l-1.2-0.1h-1.1h-1.1
	c1.3,0,2.5,0,3.8,0.1l0.4,0c1.7,0.1,3.4,0.4,5,0.8L500.9,11.1z"/>
<path class="st0" d="M486.9,10.1c-0.3,0-0.4,0-0.6,0c0.5,0,1,0,1.6-0.1L486.9,10.1z"/>
<path class="st0" d="M470.6,13.2c0,0-0.2,0-0.2,0S470.6,13.2,470.6,13.2z"/>
<path class="st0" d="M470.1,13.2c0.1,0,0.2,0,0.2,0c0,0-0.1,0,0,0c0.2-0.1,0.3-0.1,0.5-0.1L470.1,13.2z"/>
<path class="st0" d="M503,11.8l0.8,0.3l-1.2-0.4L503,11.8z"/>
<path class="st0" d="M529.7,24.4c1.1,0.5,2.4,0.9,3.6,1.2C532,25.3,530.9,24.9,529.7,24.4z"/>
<path class="st0" d="M467.7,13.8c1.1-0.3,2.2-0.6,3.4-0.9C469.9,13.2,468.8,13.5,467.7,13.8z"/>
<path class="st0" d="M484.3,10.2c-0.7,0.1-1.4,0.2-2.1,0.2l-1.1,0.2c0.4-0.1,0.8-0.1,1.2-0.1c-0.1,0-1.1,0.1-1,0.1l2.1-0.2
	c0.6-0.1,1.9-0.2,2.6-0.2c-0.3,0,0.6-0.1,0.9-0.1C486.1,10,485,10.1,484.3,10.2z"/>
<path class="st0" d="M540.8,27.2c0.1,0,0.1,0,0.2,0.1s0.5,0,0.6,0.1L540.8,27.2z"/>
<path class="st0" d="M504.9,12.2c0.4,0.2,0.1,0.1,0.7,0.4s0,0-0.1-0.1c0.8,0.3,1.5,0.7,2.2,1.1C507,13.2,505.9,12.7,504.9,12.2z"/>
<path class="st0" d="M451.9,19.2c-1.3,0.4-2.7,0.9-4.1,1.4c0.7-0.2,1-0.3,1.8-0.6C449.7,20,451.5,19.3,451.9,19.2z"/>
<path class="st0" d="M503.2,11.6l-0.2-0.1C503,11.6,503.1,11.6,503.2,11.6z"/>
<path class="st0" d="M502.2,11.2c0.3,0.1,0.5,0.2,0.8,0.3C503,11.5,502.5,11.3,502.2,11.2z"/>
<path class="st0" d="M474,11.3c-1.8,0.4-3.6,0.9-5.5,1.3c0.1,0,1.4-0.3,0.6-0.2s-1.7,0.5-2.5,0.6l0.4-0.1c-0.8,0.2-1.5,0.4-2.2,0.6
	c1.1-0.3,2.2-0.6,3.4-0.9l-1.2,0.4c0.4-0.1,0.8-0.2,1.3-0.3l-0.7,0.2c0.4-0.1,1.1,0,1.3-0.3l0,0c-0.1-1,0.9-0.3,2.7-0.6l0.3-0.1
	c-0.1,0-1.3,0.3-1.1,0.3c0.7-0.2,1.5-0.4,2.2-0.5h0.2c3.2-0.5,6.4-1.3,9.6-1.7c0.5-0.1,2.6-0.2,2.1-0.1c0,0-1.1,0.1-1.2,0.1
	s-1.1,0.1-0.9,0.1c0.6,0,1.7,0.2,2.1-0.2l0,0c0.6-0.5,1.8-0.2,2.9-0.2c0.3,0,1.3-0.1,2.1-0.1s2.6,0,3.7,0.1c0.5,0.1,1.2,0.1,1.8,0.1
	s1.3,0.2,1.9,0.2c1.2,0.2,2.3,0.5,3.5,0.7c-0.8-0.2-1.7-0.4-2.5-0.6l1.2,0.2c-0.4-0.1-1-0.2-1.4-0.3s-0.8-0.1-1.2-0.2
	c-0.6-0.1-1.2-0.2-1.9-0.2l-2.4-0.2c0.8,0.1-1.7,0-2.3,0c-0.3,0,1,0,1.1,0c-1.2,0-2.1,0-3.4,0c-0.5-0.1-1-0.1-1.4,0L486,9.6
	c-1.2,0.2-2.1,0.1-3.5,0.3c-0.5,0-1.6,0.3-2.2,0.3c-0.4,0-0.9,0.1-1.3,0.2c0.5,0,0.9-0.1,1.4-0.2c-2.5,0.4-4.9,0.8-7.3,1.3L474,11.3
	z"/>
<path class="st0" d="M501.8,11.1l0.5,0.2l-0.9-0.3L501.8,11.1z"/>
<path class="st0" d="M381.5,15.1c-0.1,0-0.1-0.1-0.2-0.1c-0.5-0.2-1.1-0.4-1.6-0.5c0.5,0.1,1.1,0.4,1.5,0.5s0.7,0.3,1,0.4
	c0.1,0,0,0,0,0c0.4-0.1,0.8,0.2,1.1,0.4c-0.4-0.1-0.5-0.2-0.9-0.4L381.5,15.1z"/>
<path class="st0" d="M487,9.8c1.2,0,2.4-0.1,3.6-0.1C489.4,9.6,488.2,9.7,487,9.8z"/>
<path class="st0" d="M499.3,10.2c-0.6-0.2-1.1-0.3-1.7-0.3l-1.7-0.2c-0.3,0-1.9-0.1-1.7-0.1c1.6,0.1,3.2,0.3,4.8,0.6l-0.6-0.1
	c0.6,0.1,1.2,0.2,1.8,0.4c-0.5-0.2,1.2,0.3,1.3,0.4C500.7,10.7,500,10.5,499.3,10.2L499.3,10.2z"/>
<path class="st0" d="M416,24.9c0.7,0,1.6,0.1,2.2,0.2c-0.3,0-0.5-0.1-0.8-0.1c-1.2-0.1-2.4-0.2-3.6-0.4l0.2,0.1l-1.5-0.2
	C413.7,24.7,414.8,24.8,416,24.9C415.8,24.9,416,24.9,416,24.9z"/>
<path class="st0" d="M446.6,21c0.6-0.2-0.6,0.1-1.2,0.3s-2.1,0.6-2.9,0.8c0.5-0.1,0.8-0.2,1.3-0.3c0.3-0.1,1-0.3,1.3-0.4
	c-0.5,0.2-1.1,0.3-1.6,0.4c1.5-0.4,3-0.8,4.4-1.3L446.6,21z"/>
<path class="st0" d="M478.8,10.9c-0.1,0-0.2,0-0.1,0s0.7-0.1,0.9-0.2C479.3,10.8,478.9,10.8,478.8,10.9z"/>
<path class="st0" d="M478.6,10.9c0,0-0.2,0-0.2,0H478.6L478.6,10.9z"/>
<path class="st0" d="M475.5,11.5c0.5-0.1,1.1-0.2,1.7-0.3l-0.7,0.1l2-0.4c-0.6,0.1-1.1,0.2-1.7,0.3l1.5-0.3
	C477.3,11.1,476.3,11.3,475.5,11.5z"/>
<path class="st0" d="M532.2,24.9c-0.7-0.2-1.5-0.5-2.3-0.8l-0.2-0.1l-0.6-0.2c1.1,0.5,2.3,0.9,3.5,1.3
	C531.8,24.8,532.6,25.1,532.2,24.9l0.4,0.1C532.9,25.1,532.4,25,532.2,24.9z"/>
<path class="st0" d="M533.2,25.3l1.6,0.5C534.2,25.5,533.7,25.4,533.2,25.3z"/>
<path class="st0" d="M450.1,19.6L450.1,19.6l-0.8,0.3L450.1,19.6z"/>
<path class="st0" d="M444.1,21.6c0.5-0.2,1-0.4,1.5-0.5c0,0,0,0,0.1,0c0.6-0.1,1.1-0.3,1.7-0.5c0,0,0.9-0.4,1.1-0.4
	c-0.5,0.1-0.9,0.3-1.4,0.4c0.5-0.1,0.7-0.3,0.1-0.1c-1.2,0.4-3.2,1-4.1,1.2c-0.2,0,2-0.5-0.4,0.1c1-0.2-1.4,0.4-1.4,0.4
	s0.7-0.2,0.9-0.2s-0.8,0.2-0.9,0.2s-0.9,0.2-1,0.2c-1.2,0.3,0,0,0.4,0l-1,0.3C441.2,22.3,442.7,21.9,444.1,21.6z"/>
<path class="st0" d="M459.1,16.3c0.4-0.1,1.7-0.6,0.9-0.3C459.7,16,459.4,16.1,459.1,16.3z"/>
<path class="st0" d="M459.1,16.3c-0.1,0-0.2,0.1-0.3,0.1L459.1,16.3z"/>
<path class="st0" d="M476.5,11.2c-0.5,0.1-1.4,0.2-2.1,0.4l-2.7,0.6c0.9-0.2,1.9-0.4,2.8-0.6c-1.1,0.2,0,0,0.1-0.1l1.5-0.3
	C475.6,11.4,476.8,11.1,476.5,11.2z"/>
<path class="st0" d="M460,15.8l-0.8,0.3c0.4-0.1,0.9-0.3,1.2-0.4S460,15.8,460,15.8z"/>
<path class="st0" d="M515,17.2c-0.2-0.2-1.6-1-1.4-0.9S514.6,16.9,515,17.2z"/>
<path class="st0" d="M481.4,10.1c-0.4,0-0.8,0.1-1.1,0.2c0.7-0.1,1.4-0.1,2.1-0.3L481.4,10.1z"/>
<path class="st0" d="M511.3,14.9c0.1,0.1,0.1,0.1,0.2,0.1L511.3,14.9z"/>
<path class="st0" d="M510.6,14.5c-1-0.6,0.4,0.2,0.6,0.4c-0.1,0-0.1-0.1-0.2-0.1S510.6,14.5,510.6,14.5z"/>
<path class="st0" d="M512.1,15.4l-0.8-0.6c-0.2-0.1-0.2-0.1-0.3-0.2C511.4,14.9,511.8,15.2,512.1,15.4z"/>
<polygon class="st0" points="452.3,18.5 452.4,18.5 452.4,18.5 "/>
<path class="st0" d="M451.3,18.8c-1.2,0.4,0.6-0.2-0.9,0.4c0.8-0.3,1.5-0.5,2.3-0.8c-0.1,0-0.3,0.1-0.4,0.1
	C452.1,18.6,451.6,18.8,451.3,18.8L451.3,18.8z"/>
<path class="st0" d="M452.5,18.4l-0.1,0.1l2-0.7L452.5,18.4z"/>
<path class="st0" d="M466.2,13.6l0.6-0.1l0,0c0.1-0.8,0.3-0.2,1.1-0.3c-0.9,0.2-2.7,0.7-3.4,0.9c-1,0.3-0.8,0.2-1.6,0.4
	c0.3,0,0.5-0.1,0.8-0.2c0.1,0-0.1,0,0.2-0.1c1.4-0.4,3-0.9,4.5-1.2c0.8-0.2-0.4,0-0.6,0.1c1.3-0.4,2.6-0.7,3.9-1
	C469.8,12.6,468,13.1,466.2,13.6z"/>
<path class="st0" d="M512.7,15.6c0.1,0,0.4,0.3,0.4,0.2s-0.6-0.4-0.7-0.5C512.4,15.4,512.6,15.6,512.7,15.6z"/>
<path class="st0" d="M376.1,13.3c-0.3-0.1-0.7-0.2-1-0.3c-0.1,0-0.9-0.1-1.1-0.1C374.5,12.9,375.8,13.2,376.1,13.3z"/>
<path class="st0" d="M397.5,20.2L397.5,20.2C397.5,20.2,397.5,20.2,397.5,20.2z"/>
<path class="st0" d="M476.8,10.7l-0.8,0.1l-0.4,0.1L476.8,10.7z"/>
<path class="st0" d="M475.5,10.9c0,0,2.6-0.5,3-0.5l-0.7,0.1c2.3-0.4,0.4-0.1-0.2,0c-0.4,0.1-0.8,0.1-1.2,0.2
	c-0.5,0.1,1.3-0.2,0.5,0C476.4,10.7,475.6,10.9,475.5,10.9z"/>
<path class="st0" d="M449,19.4c0.7-0.2,1.5-0.5,2.2-0.7C450.5,18.9,449.8,19.2,449,19.4z"/>
<path class="st0" d="M508.6,13.1c-0.4-0.2-2.6-1.3-3.3-1.6c0.6,0.3,1.4,0.7,2.1,1c-0.3-0.1-0.6-0.3-0.8-0.4c0.8,0.4,1.6,0.8,2.4,1.2
	C510.4,14.1,510.4,14,508.6,13.1z"/>
<path class="st0" d="M504.2,11.1h-0.2c-1.4-0.4-2.7-0.9-4.2-1.3c0.4,0.1,0.5,0.1,1,0.3s1.3,0.5,1.9,0.6h0.2c0.7,0.2,1.4,0.5,2,0.8
	L504.2,11.1l1,0.5C504.9,11.3,504.6,11.2,504.2,11.1z"/>
<path class="st0" d="M505,11.5l0.4,0.2L505,11.5z"/>
<path class="st0" d="M431.2,23.9c0.2,0,0.2,0,0.2,0c-0.2-0.2-0.9,0.1-1.2,0.2C430.4,24,431,23.9,431.2,23.9z"/>
<path class="st0" d="M466.4,12.8L466.4,12.8c-0.1,0.5-1.5,0.5-2.1,0.6c0.5-0.1-0.2,0.1,0.1,0c-0.8,0.2-1.7,0.5-2.5,0.7
	c0.3-0.1,1.4-0.4,0.4-0.1c1.9-0.5,3.7-1.1,5.6-1.6c0,0-0.4,0.1-0.4,0.1c2.3-0.6,4.7-1.1,6.9-1.6c0.1,0-1.7,0.4-0.7,0.1l0.7-0.2
	c-0.6,0.1-1.2,0.2-1.8,0.3l0.4-0.1C471.1,11.4,467.5,11.6,466.4,12.8z"/>
<path class="st0" d="M466.7,12.9l-0.4,0.1L466.7,12.9z"/>
<path class="st0" d="M466.3,13.1c-0.9,0.3-1.9,0.6-2.8,0.8c-0.5,0.1,0.6-0.2,0.6-0.2c-2,0.6-3.9,1.2-5.9,1.9
	c0.2-0.1,0.5-0.1,0.7-0.2l-0.4,0.1c1.6-0.5,3.3-1.1,5-1.5C462.5,14.1,465.4,13.3,466.3,13.1z"/>
<path class="st0" d="M463.7,13.8c-1.2,0.4-2.4,0.7-3.6,1.1C461.3,14.5,462.5,14.1,463.7,13.8z"/>
<path class="st0" d="M475.4,10.5l-0.7,0.2l2.1-0.4C476.4,10.3,475.9,10.4,475.4,10.5L475.4,10.5z"/>
<path class="st0" d="M463.3,13.6c-0.5-0.2,1.1-0.3,1.6-0.5c-0.5,0.1-0.9,0.2-1.4,0.4C463.7,13.4,463,13.6,463.3,13.6z"/>
<path class="st0" d="M465,13.1L465,13.1l0.1,0L465,13.1z"/>
<path class="st0" d="M467.1,12.5c-0.5,0.2-1,0.4-1.5,0.5L465,13c0,0.1,3.2-0.8,1.9-0.5l1-0.3C467.7,12.3,467.4,12.4,467.1,12.5z"/>
<path class="st0" d="M470.5,11.4l-0.2,0.1L470.5,11.4z"/>
<path class="st0" d="M473.2,10.8c-0.5,0.1-2,0.5-2.7,0.6c1.3-0.3,2.7-0.6,4-0.9l-0.4,0.1C473.8,10.6,473.5,10.7,473.2,10.8z"/>
<path class="st0" d="M446.3,19.6c-0.3,0.1-0.9,0.3-1.3,0.4l1.4-0.4C446.9,19.5,446.7,19.5,446.3,19.6z"/>
<path class="st0" d="M466,12.6c-0.8,0.2-1.5,0.4-2.3,0.6c0.5-0.1,1.3-0.1,1.6-0.5C465.6,12.8,465.8,12.7,466,12.6z"/>
<path class="st0" d="M1.4,72.7c0.2,0.3,0.4,0.6,0.6,0.9c0.4-0.3,0.8-0.7,1.1-1.1c3-0.2,4.9-1.3,7.7-1.9c0,0-0.1,0.1,0,0.1
	c1,0.5,2.2,0.8,3.3,0.8c1.2,0,2.1-0.1,3.2-0.1c0.3-0.1,0.5-0.3,0.8-0.4c0.9-0.2,1.9,0,2.5,0.7c0.6,0.4,1.2,0.8,1,0
	c4.1,0.8,8.5,1.9,12.4,2.9c3.8,0.9,7.7,1.6,11.6,1.9c1.2,0.5,5.4,0.3,4.3,1.5c1.7-0.8,3.4-1.3,5.2-1.5c1.8-0.3,3.6-0.5,5.3-0.5
	c-0.1-0.2-0.4-0.3-0.6-0.2c0.8-0.4,1.6-0.7,2.5-0.7c0.7,0,1.4,0.1,2.1,0.3c1.4,0.4,2.9,0,4-1c1.1,0.8,2.6,0.3,4-0.1
	c0.8-0.3,1.6-0.5,2.5-0.7c0.8-0.2,1.7-0.1,2.5,0.1c0.1-0.4-0.1-0.8-0.5-1c2.7-1.2,5.3-2.7,7.8-4.5c2.7-1.9,5.6-3.7,8.5-5.3
	c3.3-0.9,6.6-1.9,9.8-3.2c3.2-1.3,6.7-1.9,10.2-1.7c3-0.9,6-1.4,9.1-1.6c3.8-0.2,7.7,0.3,11.4,1.4c-0.2-0.1-0.4-0.3-0.5-0.4
	c3.9,0.9,7.6,2.2,11.2,3.9c2.5,1.1,4.7,2.7,6.6,4.6c3.5-0.3,5.6,0.8,8.6,1.7c1.9,1.6,3.9,3,6.1,4.1c2.4,1.3,5.4,2.7,7.9,4
	c1-0.1,1.9,0.1,2.8,0.5c0.8,0.4,1.7,0.4,2.5,0c1.7,0.7,3.6,1.2,5.4,1.5c2,0.4,4.1,0.5,6.1,0.2c4.4-0.6,8.7-1.8,12.7-3.8
	c4.1-1.9,8.3-4.3,12.4-6.5c4.5-2.4,9.1-4.6,13.8-6.5h-0.4c1.8,0,3.6,0,5.4,0.3c1.8,0.2,3.5,0.5,5.2,0.7c0.2-0.3-0.1-0.3-0.5-0.2
	c1-0.1,1.9-0.3,2.8-0.5s1.8-0.5,2.8-0.7s1.9-0.4,2.8-0.6c1-0.2,2-0.2,3-0.2c0-0.3-0.3-0.3-0.7-0.4c2.1,0.2,4,0,6.2,0.1
	c2.1,0,4.2,0.4,6.1,1.4c0.2-0.1,0.3-0.2,0.5-0.2c0.7,0.4,1.3,0.8,2,1.2c0.3-0.4,0.5-0.8,0-1.1c3,1.1,5.8,2.4,8.5,4
	c2.5,1.5,4.7,2.9,7.2,4.2c2.4,1.4,5,2.6,7.6,3.6c0.5,0.2,1.4,0.6,2,0.8l2.2,0.8c1.6,0.5,3,1,4.5,1.5c3.1,1,6.2,1.7,9.3,2.2
	c3.1,0.6,6.2,0.6,9.3,0.2c2.9-0.4,5.8-1.4,8.4-2.8c2.5-1.4,4.9-2.9,7.2-4.7c-0.4,0.1-0.8,0.1-1.2,0.2l4.6-2.2
	c-0.3-0.1-0.6-0.1-0.9,0c2.4-2.1,5.2-3.8,8.2-5.1c3.4-1.4,6.9-2.6,10.5-3.5c-0.5-0.3-1.4-0.3-0.6-0.8c0.7,0,1.5-0.1,2.2-0.2
	s1.4-0.2,2-0.3s1.2-0.3,1.8-0.4s1.1-0.2,1.7-0.3c1-0.2,2-0.3,3-0.2c0.9,0.1,1.8,0.5,2.5,1.1c0.5-0.2,0.4-0.6,0-0.9
	c4.2,0.5,8.4,1.4,12.5,2.7c2,0.7,3.9,1.3,5.6,2.1s3.5,1.5,5.2,2.3c3.4,1.5,6.6,3.1,9.9,4.6s6.3,2.8,9.8,4.1c2.4,1.5,5.2,2.6,8,3
	c3.3,0.5,6.7,0.5,10,0.2c3.5-0.3,7-0.9,10.4-1.4s7-1.1,10.4-1.6l-0.4-0.3c4-0.9,7.9-2.3,11.6-4.2c3.6-1.8,7-3.8,11.1-5.3
	c4.5-1.4,9.1-2.3,13.7-2.6c4.8-0.3,9.5-0.2,14.3,0.2c3.5,0.2,7,0.8,10.3,1.9c3,1,6,2.3,8.9,3.7l0.8-0.3c2.2,1.8,4.5,3.3,7,4.6
	c2.8,1.4,5.7,2.6,8.8,3.4c3.2,0.8,6.4,1.4,9.7,1.8c3.4,0.4,6.7,0.7,10.1,1l-1-0.7c0.7,0.2,1.4,0.3,2.2,0.3c0.8-0.1,1.7-0.2,2.5-0.3
	c1.4-0.2,2.6-0.5,3.2,0.5c0.6-0.4,1.2-0.7,1.8-1.2c0.6,0,1.3-0.1,1.9-0.2s1.2-0.2,1.7-0.4c1-0.3,2-0.6,3-1.1
	c1.7-0.8,3.3-1.8,4.7-2.9c1.5-1.2,3.1-2.2,4.8-3.1c1-0.5,2.1-1,3.2-1.3c0.6-0.2,1.2-0.4,1.8-0.5s1.4-0.3,2.1-0.4l-1-0.2
	c0.8-0.1,1.5-0.3,2.3-0.4s1.6-0.2,2.3-0.4c1.3-0.2,2.6-0.6,3.8-1c-0.4,0-0.6-0.2-1-0.2c4.7-1.7,9.7-2.4,14.7-2c0.3,0,0.6,0,1,0.1
	s0.6,0.1,1,0.1s1.4,0.2,1.8,0.3c1.2,0.2,2.4,0.5,3.6,0.8s2.2,0.6,3.3,1s2.1,0.7,3.2,1.1c-0.1-0.4-0.2-0.7-0.3-1.1
	c1,0.6,2.1,1.2,3.2,1.7c1.2,0.6,2.7,1.2,4,1.8c2.7,1.2,5.5,2.4,7.9,3.7c0-0.2,0.1-0.3,0.1-0.5l1.7,1.6l0.8-0.7
	c3.1,1.3,6,2.6,9.2,3.9c3.2,1.3,6.5,2.3,9.8,3c0-0.3,0-0.5,0-0.8c3.3,1.1,6.8,1.4,10.3,1c3.7-0.4,7.1-1.2,10.7-1.8l-0.6-0.1
	c4.1-1.1,8.1-2.4,12-4.1c3.8-1.7,7.3-3.5,10.9-5.3c3.7-1.9,7.4-3.7,11.2-5.2c4.3-1.6,8.7-2.7,13.2-3.3c-0.3-0.1-0.6-0.2-0.9-0.3
	c1,0.2,2.1,0.3,3.2,0.2c0.4-0.1-0.5-0.4-0.7-0.3c0.5-0.2,1.1-0.4,1.6-0.5c0.7-0.1,1.3-0.2,2-0.2c0.7,0,1.5-0.1,2.2,0
	s1.5,0.1,2.2,0.2l2.1,0.2c0.6,0.1,1.3,0.2,1.9,0.2c1,0.1,2,0.1,3,0c0.8,0.3,1.5,0.7,0.6,1.2c3.6,0.6,7,1.6,10.4,3
	c3.4,1.4,6.5,3,9.9,4.6c3.6,1.7,7.3,3.2,11,4.6c1,0.3,2,0.7,3,1s2,0.7,3,0.9c2.1,0.5,4.1,1.1,6.2,1.6c0.8-0.1,1.1-0.3,1.2-0.8
	c0.8,0.3,1.7,0.6,2.5,0.8s1.8,0.4,2.7,0.6c1.9,0.4,3.9,0.7,5.8,0.9c4.1,0.3,8.1,0.3,12.2-0.2c3.8-0.4,7.3-1.2,10.8-1.9
	s6.2-1.3,9.6-1.8c0.4,0.5-0.8,0.7,0.3,1.1c-0.9,0.2-1.9,0.4-2.8,0.5c-1,0.1-1.9,0-2.9,0.1c-1.9,0-3.8,0.3-5.6,1l0.8,0.4
	c-2,0.5-2-0.7-3.9,0.1c-0.8,0.3,0.6,0.6,0,0.7c-3.4,0.4-7,1-10.7,1.2c-3.7,0.2-7.4-0.2-11-1c-1.6,0.4-3.4,0.4-5,0
	c-1.8-0.4-3.7-0.5-5.5-0.4c-1.3-0.5-3-0.9-3.7-1.9c-5.8-1.2-11.4-2.9-16.9-5.2c-5-2.1-9-4.2-13.8-6.1c-1.2-0.5-2.1-0.8-3.3-1.1
	s-2.2-0.6-3.4-0.8c-2.4-0.5-4.9-0.7-7.3-0.9l-1.9-0.1c-0.6,0-1.3,0-1.9,0s-1.2,0.1-1.8,0.1s-1.2,0-1.8,0.1c-1.2,0.1-2.4,0.3-3.5,0.5
	s-2.3,0.5-3.4,0.8c-0.6,0.1-1.3,0-1.9,0.2s-1.2,0.2-1.8,0.3s-1.2,0.2-1.8,0.4s-1.1,0.4-1.7,0.6c-2.2,0.9-4.3,2-6.2,3.3
	c-4.1,2.7-8.1,5.6-13,7.8c0,0.1,0.1,0.2,0.2,0.2c-2.2,0.7-4.3,1.4-6.5,2.2c-1.1,0.4-2.4,0.8-3.6,1.2s-2.2,0.7-3.4,1.1
	c-1.4,0-2.9,0.1-4.3,0.1c-3.5,1-7,1.7-10.6,2c-3.8,0.3-7.6,0.1-11.3-0.4c-3.5-0.6-6.9-1.4-10.3-2.5c-1.7-0.5-3.1-1-4.8-1.6
	c-0.6-0.2-1.6-0.6-2.3-0.9s-1.7-0.7-2.2-0.9c-3-1.2-5.8-2.6-8.5-3.9c-2.7-1.3-5.5-2.5-8.3-3.5c-2.8-1-5.8-1.7-8.8-2.1
	c-3.2-0.3-6.4-0.2-9.5,0.1c-0.9,0.1-1.8,0.2-2.8,0.4s-1.8,0.3-2.8,0.5s-1.8,0.4-2.7,0.6s-1.7,0.4-2.5,0.7c-3.1,0.9-6.1,2.2-9,3.7
	c-3,1.6-5.7,3.2-9,5c-3.9,2-8,3.4-12.2,4.3c-1.1,0.2-2.5,0.4-3.7,0.5s-2.5,0.2-3.7,0.3c-2.4,0.1-4.8,0-7.2-0.2
	c-1.2-0.1-2.3-0.2-3.5-0.4s-2.4-0.3-3.5-0.6s-2.3-0.5-3.3-0.8s-2.2-0.7-3.1-1c-3.6-1.4-7-3.2-10.2-5.3c-3-1.9-5.3-3.7-8.3-5.5
	c-0.3,0.2-0.3,0.3,0.1,0.6c-3.4-1.7-7.1-2.9-10.9-3.5c-1-0.2-1.9-0.2-2.9-0.3c-0.5,0-1-0.1-1.5-0.1l-1.6-0.1
	c-2.2-0.1-4.2-0.3-6.4-0.4c0,0.1,0,0.1,0,0.2c-5.2-0.5-10.4-0.3-15.5,0.7c-0.5,0.1-1.2,0.3-1.8,0.4s-1.1,0.4-1.7,0.6
	c-0.6,0.2-1.1,0.4-1.7,0.6c-0.5,0.2-1.1,0.4-1.6,0.7c-2.2,1.1-4.2,2.2-6.3,3.4c-1.1,0.6-2.2,1.2-3.4,1.8c-0.5,0.2-1.2,0.6-1.8,0.8
	s-1.4,0.6-1.9,0.8s-0.6,0.2-1,0.4s-0.6,0.2-1,0.4s-1.4,0.5-2,0.7c-1.4,0.4-2.8,0.8-4.3,1.1c-5.6,1.2-11.3,1.9-17,2.2
	c-1.8,0.1-3.4,0.4-5.2,0.4c-0.9,0-1.8,0.1-2.7,0s-1.8,0-2.7-0.1c-3.5-0.3-7-0.9-10.3-2c-6.2-2.2-11.6-5.1-17.2-7.8s-11-5.2-17.5-6.9
	c-6.2-1.6-12.7-1.7-19-0.3c0.1,0.1,0.2,0.3,0.3,0.4c-4.3,1.1-8.4,2.8-12.1,5.2c-3.6,2.2-6.1,4.7-9.5,7.2c-3.6,2.8-7.6,4.8-11.9,6.2
	c-2.7,0.7-5.4,1.1-8.2,1.1c-2.8,0-5.6-0.3-8.3-0.8c-5.1-0.6-10.2-1.8-15.1-3.5c-4.3-1.5-8.4-3.4-12.2-5.8c-3.7-2.2-6.6-4.6-10.4-6.6
	c-2-1.1-4.2-2-6.5-2.5c-2.6-0.6-5.2-0.8-7.9-0.6c-3.5,0.4-7,1.1-10.7,1.7s-7.9,1.3-11.6,2.3c-3.7,1-7.3,2.2-10.9,3.6
	c-2.9,1.2-5.7,2.7-8.2,4.6c-2.4,1.7-5,3.2-7.6,4.5c-3.1,1.5-6.4,2.6-9.8,3.2c-1.9,0.3-3.9,0.5-5.9,0.5c-2,0-3.9-0.1-5.9-0.4
	c-3.6-0.5-7.1-1.4-10.5-2.6c-5.8-2.2-11.4-5.1-16.6-8.6c-5-3.3-9.6-6.4-15.4-9.2c-3.2-0.9-6.5-1.6-9.8-2c-3.3-0.3-6.5-0.3-9.8,0
	c-3.1,0.3-6.2,0.9-9.3,1.6c-1.5,0.4-2.9,0.8-4.3,1.2s-2.8,0.9-4.2,1.4c-4.9,2-9.7,4.5-14.2,7.4c-2.1,1.3-4.3,2.5-6.6,3.6L77.9,76
	c-0.6,0.2-1.2,0.5-1.9,0.7c-1.2,0.5-2.6,0.9-3.9,1.3c-6,0.3-11.6,1.1-17.6,1.8c-3.2,0.4-6.3,0.6-9.5,0.6c-3.2,0-6.5-0.3-9.7-1
	c0.2-0.2,0.5-0.3,0.7-0.4c-2.3,0.1-4.6-0.5-6.6-1.7c-1.9-0.9-3.4-1.6-5.7-0.9l0.4,0.2c-1.6,0.3-2.5-0.7-3.3-1.4s-1.6-1.6-3-1
	c-0.1-0.2-0.2-0.4-0.2-0.6c-2.2-0.3-1,0.6-2.9,0.6c-0.7,0-0.5-1.1-1.9-0.8c-0.7,1.1-2.2,1-3.9,0.8s-3.3-0.1-3.6,1.2
	c0.5,0.1-1.1,1.1,1,1.6c-1.7,0.3-4.9,0.3-5.3-1C0.2,74.6-1,73.8,1.4,72.7z"/>
<path class="st0" d="M793,76.2c-0.1-0.1,0-0.2,0.1-0.2S793.2,76.3,793,76.2z"/>
<path class="st0" d="M781.4,74.8c0-0.1,0.5,0,0.5,0.1s-0.3,0-0.3,0S781.4,74.8,781.4,74.8z"/>
<path class="st0" d="M832.2,69.6c-1.2,0.4-2.5,0.8-3.8,1.1C829.2,70.3,831.2,69.3,832.2,69.6z"/>
<path class="st0" d="M788,78.8"/>
<path class="st0" d="M856.8,68.2C856.1,68.2,856.6,68.2,856.8,68.2z"/>
<path class="st0" d="M820,77.7l-0.6,0.1l1.5-0.3c-0.9,0.2-1.8,0.4-2.7,0.6L820,77.7z"/>
<path class="st0" d="M820.4,77.6l2.5-0.6C822,77.2,821.2,77.4,820.4,77.6z"/>
<path class="st0" d="M839.2,72.1c-0.1,0,0.3-0.1,0.3-0.1C839.4,72,839.3,72,839.2,72.1z"/>
<path class="st0" d="M847.2,70c0,0,0.8-0.2,0.9-0.2L847.2,70z"/>
<path class="st0" d="M827.3,75.8c-0.3,0.1,0,0-0.2,0l2-0.6C828.6,75.3,827.6,75.7,827.3,75.8z"/>
<path class="st0" d="M821.2,77.2c-0.2,0-0.3,0.1-0.4,0.1c0.5-0.1,1-0.2,1.5-0.4C822,77.1,821.6,77.2,821.2,77.2z"/>
<path class="st0" d="M821.8,77l-0.8,0.2l-0.4,0.1L821.8,77z"/>
<path class="st0" d="M837.7,72.4c-0.3,0.1-0.6,0.2-0.8,0.3c0,0,0.2-0.1-0.2,0L837.7,72.4z"/>
<path class="st0" d="M837.7,72.4c0,0,0.4-0.1,0.4-0.1L837.7,72.4z"/>
<path class="st0" d="M835.8,72.9h0.2l-1.5,0.5C834,73.5,835.5,73,835.8,72.9z"/>
<path class="st0" d="M827.8,75.2c-0.2,0.1-0.5,0.1-0.7,0.2l1.1-0.3C828,75.2,827.9,75.2,827.8,75.2z"/>
<path class="st0" d="M812.9,75.9c0,0,0.1,0,0.2,0s0,0,0,0S812.9,75.9,812.9,75.9z"/>
<path class="st0" d="M789,75.6c0.8,0,1.4,0.1,2.3,0.2s2.1,0.2,3.1,0.2h0.4c-0.7,0-1.3,0-1.9-0.1c0.3,0,0.6,0.1,0.9,0.1
	C792.1,75.9,790.6,75.7,789,75.6z"/>
<path class="st0" d="M782.6,74.7c0.1,0,0.2,0,0.3,0h0.4H782.6z"/>
<path class="st0" d="M779.7,74.2c0.4,0.1,0.9,0.1,1.3,0.2C780.6,74.3,780.2,74.3,779.7,74.2z"/>
<path class="st0" d="M798.7,75.9c0.5,0,1.4,0,1.8,0h-0.9C799.5,75.9,798.9,75.9,798.7,75.9z"/>
<path class="st0" d="M773.2,72.8L773.2,72.8L773.2,72.8z"/>
<path class="st0" d="M774,72.9c-0.6-0.1-0.3,0-1-0.2S773.6,72.8,774,72.9z"/>
<path class="st0" d="M770.7,72.1"/>
<path class="st0" d="M773,72.4c1.4,0.2-0.3,0,0.5,0.1s1.7,0.3,2.6,0.4s1.8,0.3,2.7,0.4c1.7,0.3,3.5,0.5,5.3,0.7h-0.4
	c3.5,0.4,7,0.8,10.6,1.1c-1.3,0-2.7-0.2-3.9-0.3c-0.5,0,1.7,0.2,0.7,0.1s-3-0.2-4.5-0.4c-0.2,0-2.3-0.3-2.8-0.4c0.1,0,0.4,0,0.6,0
	c-0.8-0.1-1.8-0.2-2.4-0.3l-1.7-0.3c-0.1,0-0.3-0.1-0.5-0.1s-0.7-0.1-0.9-0.1h0.4l-2.7-0.4c-0.1-0.1,0.3,0.1,0.1,0
	c-0.7-0.2-1.3-0.3-2-0.3c0.7,0.1,1.4,0.2,2.1,0.3c-1.7-0.2-3.4-0.6-5.1-0.8c0.5,0.1,1.1,0.2,1.5,0.2s-0.8-0.2-1.3-0.2
	s-1-0.1-1.4-0.2"/>
<path class="st0" d="M780,73.7c1.9,0.3,4.3,0.6,6.3,0.8c-0.9-0.2-1.9-0.3-2.9-0.3c-1.4-0.2-2.8-0.4-4.2-0.6h0.2l-1.2-0.2
	C777.9,73.4,779.5,73.6,780,73.7z"/>
<path class="st0" d="M830.9,71.1l-0.4,0.1L830.9,71.1z"/>
<path class="st0" d="M819.5,73.3c-0.7,0.2-1.4,0.3-2.1,0.5L819.5,73.3z"/>
</svg>
