<?xml version="1.0" encoding="utf-8"?>
<!-- Generator: Adobe Illustrator 23.0.4, SVG Export Plug-In . SVG Version: 6.00 Build 0)  -->
<svg version="1.1" id="Layer_1" xmlns="http://www.w3.org/2000/svg" xmlns:xlink="http://www.w3.org/1999/xlink" x="0px" y="0px"
	 viewBox="0 0 720 100" style="enable-background:new 0 0 720 100;" xml:space="preserve">
<style type="text/css">
	.st0{enable-background:new    ;}
	.st1{fill:#FFFFFF;}
</style>
<g class="st0">
	<path class="st1" d="M29.4,38.5C27,43.6,25,47,23.3,48.7c-2.6,2.6-4.1,4.1-4.3,4.3c-1.8,1.4-3.6,2.3-5.5,2.6
		c-0.3,1.3-0.4,2.7-0.4,4.4c0,1.2,0.1,3,0.3,5.4c0.2,2.4,0.3,4.2,0.3,5.3c0,4.3-1,7.5-3,9.6L8.1,79c-1.1-0.6-1.7-1.3-1.8-2.1
		c-0.6-4.1-0.9-8.6-0.9-13.6c0-3.3,0.2-8.3,0.6-14.9c0.4-6.6,0.6-11.6,0.6-14.9c0-4.9-0.3-9.4-0.8-13.4c-0.5,0.2-1-0.1-1.4-0.9
		c-0.4-0.8-0.8-1.3-1.1-1.4c0.3-2,0.8-3,1.6-3c0.9-0.3,2.9-0.2,5.8,0.2c8.1,1.3,14.3,4.9,18.4,10.7c1.3,1.9,2,4,2,6.4
		C30.9,34.1,30.4,36.2,29.4,38.5z M23.3,31.2c0.3-2.5-0.8-4.5-3.2-5.9c-0.1,0-2.4-0.9-6.8-2.7C14,34.1,14.3,42.2,14,46.8
		C19.6,41.6,22.7,36.4,23.3,31.2z"/>
	<path class="st1" d="M67.4,50.7C63.7,59,58.5,64,51.7,65.5c-0.8,0.2-1.6,0.3-2.4,0.3c-3.6,0-7.2-1.9-10.8-5.8
		c-2.4-2.6-3.7-6-3.7-10.2c0-4.6,1.4-9.6,4.1-14.9c1.2-2.3,2.6-4.2,4.3-5.8c1.9-1.9,3.8-2.9,5.5-2.9c1,0,1.9,0.4,2.8,1.1
		c0.9,0.8,3.2,1.8,7.1,3c3,1,5.1,2.7,6.4,5.1c2.2,4.2,3.3,7.8,3.3,10.8C68.3,47.8,68,49.3,67.4,50.7z M59.9,44.9
		c-0.4-4.6-1.7-7.3-3.7-8.2c-0.3-0.1-0.6-0.2-0.8-0.2c-0.8,0-1.7,0.6-2.8,1.9c-1.3,1.4-2.2,2.3-2.9,2.5c-0.4,0.2-1.1,0-1.9-0.6
		c-0.8-0.6-1.3-0.8-1.6-0.8c-0.2,0-0.3,0.1-0.5,0.2c-2.2,1.9-3.3,4.8-3.3,8.7c0,2.7,0.6,5,1.9,6.9c1.8,2.6,3.2,3.9,4.4,3.9
		c2.8,0,5.4-1.7,8-5.2C59.1,50.7,60.2,47.7,59.9,44.9z"/>
	<path class="st1" d="M112.3,22.6c1.4,0.7,2.2,1.7,2.2,3c0,0.9-0.4,2.1-1.1,3.6c-0.9,2-1.4,3.1-1.5,3.4c-1.5,4.6-2.9,11.7-4.3,21.2
		c-1.3,9.5-2.7,16.4-4.1,20.9c-0.4,1.3-1.4,1.9-3.2,1.9c-0.8,0-1.5-0.2-2.2-0.5c-2.3-1.2-4-3.5-5-7c-0.1-0.3-0.7-3.4-1.8-9.4
		c-0.6-3.1-1.1-6.5-1.6-10.1c-0.9,1.8-2,6.1-3.5,13.1c-1.3,6-2.7,9.8-4.4,11.5c-0.5,0.5-1.4,0.6-2.6,0.2c-1.9-0.3-3.1-1.4-3.8-3.4
		c-0.4-1.8-0.8-3.5-1.1-5.3c-1.1-4.5-2-11.5-2.7-21.1C71,35.1,70.1,28.1,69,23.7c-0.2-0.8-0.1-1.5,0.3-2.2c0.4-0.7,0.9-1.1,1.6-1.1
		c0.5-0.1,1-0.2,1.5-0.2c1.8,0,3.1,0.8,4,2.3c1,5.3,2.2,15.5,3.6,30.7c0.5-1.1,1.1-3.1,1.7-6c0.7-2.9,1.3-5,1.9-6.3
		c0.6-2.4,1.1-4.8,1.6-7.1c0.8-2.9,2.3-4.3,4.7-4.3c0.6,0,1.3,0.1,2.1,0.3c0.1,0.4,0.3,0.6,0.8,0.7c0.5,0.1,0.8,0.2,0.8,0.3
		c1.4,3.1,2.4,7.2,3.1,12.3c1.1,7.3,1.7,11.5,2,12.6c1-5.6,2-11.1,3.1-16.6c1.3-6.5,3-11.7,5.1-15.8c0.4-0.8,1.3-1.2,2.7-1.2
		C110.7,22,111.6,22.2,112.3,22.6z"/>
	<path class="st1" d="M150.8,24c-2.3,0.9-5.7,2-10.2,3.3c-4.5,1.3-7.9,2.3-10.2,3.3c-0.6,1.6-1,5.3-1.2,10.9c1,0.4,2.2,0.6,3.5,0.6
		c0.9,0,2.4-0.2,4.4-0.5c2-0.3,3.5-0.5,4.4-0.5c1.8,0,3.3,0.4,4.5,1.1c0.9,1.3,1.3,2.1,1.3,2.4c0,0.4-0.2,0.8-0.7,1
		c-0.1,0.1-0.6,0.5-1.3,1.3c-0.5,0.6-1.1,0.8-1.9,0.8c-1.3,0.3-3.7,0.5-7.2,0.6c-2.9,0.1-5.3,0.4-7.1,1.1c-1.2,4.6-1.8,8.3-1.8,11
		c0,1.8,0.2,3.3,0.8,4.3c2.9,2.1,8.1,2.9,15.3,2.6c0.5,0,1-0.2,1.6-0.7c0.6-0.5,1-0.7,1.4-0.7c1.8-0.4,2.9,0.9,3.5,3.9
		c0.2,1,0,1.9-0.5,2.8c-0.5,0.8-1.3,1.3-2.3,1.4c-7.6,0.2-14.2-0.3-19.7-1.8c-1.8-0.4-3.4-1.4-4.8-2.9c-1.4-1.5-2.3-3.2-2.4-5.1
		c-0.6-5.5-0.6-10.3,0-14.7c-1.8-1.2-2.5-2.4-2.4-3.5c0.1-0.6,0.5-1.1,1.5-1.6c0.9-0.5,1.4-1,1.6-1.5c0.1-0.5,0.4-3.5,0.8-8.9
		c-3.5-0.7-5.2-2-5.2-3.9c0.1-1.8,1.2-3.3,3.3-4.3c2-0.8,4-1.6,6-2.4c2.4-1.2,5.3-2.3,8.8-3.2c3-0.8,6-1.6,9.1-2.3
		c0.3-0.1,0.7-0.1,1.1-0.1c1.7,0,3.7,0.7,5.9,2c0.1,0.3,0.2,0.7,0.5,1.4c0.2,0.7,0.4,1.2,0.4,1.5C151.4,23.3,151.2,23.7,150.8,24z"
		/>
	<path class="st1" d="M191.2,71.7c0.2,0.2,0.3,0.5,0.3,0.8c0,1.4-1.5,2.5-4.5,3.3c-3.3-2.6-7.5-6.5-12.4-11.8
		c-5.5-6-9.6-10.1-12.3-12.4c-0.2,1.6-0.5,5.9-1,12.8c-0.3,5.2-0.9,9.3-1.7,12.4c-0.1,0-0.5,0.2-1.2,0.5c-0.7,0.3-1.2,0.4-1.6,0.3
		c-2.8-0.6-4.1-2.5-4.1-5.7c0-0.9,0.1-2.2,0.4-3.8c0.2-1.8,0.4-2.9,0.5-3.4c0.2-3.6,0.4-8,0.5-13V41.4c0-8.5,0.5-15.7,1.4-21.5
		c0.6-3.9,4.3-5.7,11-5.4c3.4,0.1,6.3,1.8,8.8,5.1c2.3,3,3.5,6.3,3.5,9.8c0,2.9-1.1,5.9-3.3,8.8c-1.9,2.6-4.2,4.7-7,6.2
		c-1.1,0.6-1.7,1.3-1.7,2.1c0,0.8,0.7,1.8,2,2.9c1,0.8,2,1.6,3,2.4c0.1,0.1,3.5,3.2,10.3,9.4C186.3,65.1,189.4,68.6,191.2,71.7z
		 M171.4,29.5c0.2-1.1,0.2-2.1,0.2-3c-0.2-1.3-0.7-2.5-1.6-3.6c-0.9-1.1-2.4-1.6-4.4-1.6c-1.5,0-2.4,0.5-2.8,1.4
		c-0.3,1.6-0.5,3.4-0.5,5.4c0,0.8,0.1,2.9,0.3,6.3c0.1,2.6,0.1,4.7,0,6.3C167.7,36.8,170.7,33,171.4,29.5z"/>
	<path class="st1" d="M241.8,50.7c-3.7,8.3-8.9,13.3-15.7,14.9c-0.8,0.2-1.6,0.3-2.4,0.3c-3.6,0-7.2-1.9-10.8-5.8
		c-2.4-2.6-3.7-6-3.7-10.2c0-4.6,1.4-9.6,4.1-14.9c1.2-2.3,2.6-4.2,4.3-5.8c1.9-1.9,3.8-2.9,5.5-2.9c1,0,1.9,0.4,2.8,1.1
		c0.9,0.8,3.2,1.8,7.1,3c3,1,5.1,2.7,6.4,5.1c2.2,4.2,3.3,7.8,3.3,10.8C242.7,47.8,242.4,49.3,241.8,50.7z M234.2,44.9
		c-0.4-4.6-1.7-7.3-3.7-8.2c-0.3-0.1-0.6-0.2-0.8-0.2c-0.8,0-1.7,0.6-2.8,1.9c-1.3,1.4-2.2,2.3-2.9,2.5c-0.4,0.2-1.1,0-1.9-0.6
		c-0.8-0.6-1.3-0.8-1.6-0.8c-0.2,0-0.3,0.1-0.5,0.2c-2.2,1.9-3.3,4.8-3.3,8.7c0,2.7,0.6,5,1.9,6.9c1.8,2.6,3.2,3.9,4.4,3.9
		c2.8,0,5.4-1.7,8-5.2C233.5,50.7,234.6,47.7,234.2,44.9z"/>
	<path class="st1" d="M287.6,11.3c0,1.3-0.4,2.4-1.2,3.4c-0.8,1-1.8,1.7-3.1,1.9c-0.5,0.1-1.2,0-2.1-0.4c-0.9-0.4-1.6-0.6-2.1-0.5
		c-2.8,0.3-6.1,1.2-10.2,2.9c-5.1,2.1-8.4,3.4-10,3.9c-0.3,3.9-0.4,8-0.4,12c0,4.1,0.1,8.1,0.4,12.2c0.5,0.1,1,0.2,1.6,0.2
		c1.3,0,3.5-0.5,6.8-1.5c3.1-0.9,5.4-1.2,7-1c1.4,0.1,2,0.7,1.9,1.6c-0.4,2.4-1.9,4.3-4.7,5.6c-2.6,0.8-5.1,1.7-7.7,2.5
		c-1,0.1-2.6,0.4-4.9,0.9c-0.1,1.3-0.2,2.7-0.2,4.2c0,1.5,0.1,3.8,0.2,6.9c0.2,3.1,0.2,5.4,0.2,6.9c0,5.4-0.8,9.6-2.5,12.8
		c-0.4,0.7-0.9,1-1.7,1s-1.5-0.3-2.4-1c-0.8-0.7-1.3-1.4-1.6-2.3c-0.6-1.9-0.9-4.2-0.9-6.8c0-0.9,0.2-3.9,0.7-9.1
		c0.3-3.8,0.2-6.8-0.2-9.1c-0.1-0.8-0.8-1.5-1.9-2c-1.4-0.6-2.4-1.1-2.7-1.5c-0.2-0.4-0.1-1.7,0.2-3.8c0.8,0.1,1.4-0.1,1.9-0.8
		c0.5-0.6,1-0.9,1.6-0.9c0.2,0,0.5,0,0.8,0.1c0.6-3.1,0.9-6.5,0.9-10.3c0-1.3-0.3-6.2-0.8-14.6c-1.2-0.3-2.4-1-3.5-2.2
		c-1.2-1.2-1.7-2.3-1.7-3.4c0-1.6,1.1-2.5,3.4-2.8c3.1-0.4,8.7-2,17-4.7c7.3-2.4,13.1-3.6,17.5-3.7c1.1,0,2.1,0.3,3,0.9
		C287.2,9.5,287.6,10.3,287.6,11.3z"/>
	<path class="st1" d="M331.1,14.3c0,1.7-1.1,2.8-3.4,3.2c-2.9,0.6-4.8,1.2-5.5,2c-7,7.4-10.5,17-10.5,28.7c0,5.5,0.9,10.7,2.6,15.6
		c1.4,4,2.5,6.6,3.1,7.9c1.6,3.1,3.5,5.3,5.7,6.6c0.9,0.4,1.9,0.8,2.8,1.2c1,0.6,1.5,1.3,1.5,2.3c0,1-0.3,1.9-1,2.7
		c-0.7,0.8-1.4,1.1-2.1,0.9c-0.8-0.1-2.1-0.5-3.8-1.2c-3-1.8-6.3-5.5-9.8-11.2c-0.9-1.4-1.8-2.9-2.7-4.5c-0.9-1.5-1.6-3-2-4.4
		c-0.3-1-0.8-5-1.6-12.1c-0.3-2.2-0.4-4.3-0.4-6.4c0-11.1,3.2-20.5,9.7-28.3c3.8-4.5,7.7-6.8,11.8-6.8c1.8,0,3.4,0.5,4.8,1.6
		C330.8,12.6,331.1,13.3,331.1,14.3z"/>
	<path class="st1" d="M361.6,50.7c-3.7,8.3-8.9,13.3-15.7,14.9c-0.8,0.2-1.6,0.3-2.4,0.3c-3.6,0-7.2-1.9-10.8-5.8
		c-2.4-2.6-3.7-6-3.7-10.2c0-4.6,1.4-9.6,4.1-14.9c1.2-2.3,2.6-4.2,4.3-5.8c1.9-1.9,3.8-2.9,5.5-2.9c1,0,1.9,0.4,2.8,1.1
		c0.9,0.8,3.2,1.8,7.1,3c3,1,5.1,2.7,6.4,5.1c2.2,4.2,3.3,7.8,3.3,10.8C362.6,47.8,362.2,49.3,361.6,50.7z M354.1,44.9
		c-0.4-4.6-1.7-7.3-3.7-8.2c-0.3-0.1-0.6-0.2-0.8-0.2c-0.8,0-1.7,0.6-2.8,1.9c-1.3,1.4-2.2,2.3-2.9,2.5c-0.4,0.2-1.1,0-1.9-0.6
		c-0.8-0.6-1.3-0.8-1.6-0.8c-0.2,0-0.3,0.1-0.5,0.2c-2.2,1.9-3.3,4.8-3.3,8.7c0,2.7,0.6,5,1.9,6.9c1.8,2.6,3.2,3.9,4.4,3.9
		c2.8,0,5.4-1.7,8-5.2C353.3,50.7,354.4,47.7,354.1,44.9z"/>
	<path class="st1" d="M399.6,19.8c-0.4,4.4-1.7,10.2-3.8,17.6c-2.8,9.8-4.5,15.8-4.9,17.9c-1.4,6.3-4,12.1-7.9,17.3
		c-2.4,3.3-5.3,5-8.5,4.9c-2.8-0.1-4.9-1.8-6.3-5.4c-2.4-5.9-3.6-12.8-3.6-20.8c0-4.6,0.4-10.5,1.3-17.7c-0.1,0.6-0.1-1.3-0.1-5.8
		c0-3.9,1.5-5.8,4.5-5.8c0.6,0,1.3,0.2,2,0.5c0.7,0.3,1.4,0.7,2.1,1.1c0.1,3.2,0,7.9-0.3,14.1c-0.3,6.6-0.5,11.4-0.5,14.4
		c0,3.1,0.1,6,0.3,8.6c0.1,1.3,0.7,3.8,1.7,7.5c2.6-2.9,4.7-6.9,6.2-11.8c0.5-1.6,1.5-6.1,3-13.3c1.2-5.5,2.5-9.8,4-13
		c0.4-0.9,0.8-2.5,1.1-5c0.3-2.4,0.7-4.1,1.1-5.1c0.7-1.5,1.9-2.3,3.6-2.3C397.1,17.7,398.6,18.4,399.6,19.8z"/>
	<path class="st1" d="M442.2,14c-0.9,8.4-1.7,16.8-2.5,25.3c-1.1,10-1.6,18.4-1.6,25.1c0,2.2,0.1,4.4,0.2,6.5c0.1,1-0.3,1.9-1.1,2.6
		c-0.8,0.8-1.7,1.1-2.7,1.1c-1.9,0-3.6-1.3-4.9-3.9c-4-7.8-9-20.1-14.9-36.8c-0.1-0.4-0.3-0.6-0.5-0.6c-0.4,0-0.7,0.4-0.8,1.3
		c-1.1,9-1.6,18.4-1.6,28.3c0,4.8,0.1,9.6,0.4,14.6c0.1,1.8-0.5,3.1-1.6,3.8c-0.4,0.4-0.9,0.7-1.4,0.7c-0.4,0-1-0.2-1.7-0.6
		c-0.9-0.4-1.5-0.7-1.8-0.8c-0.8-0.3-1.3-1-1.5-2.3c-0.1-1-0.1-2-0.2-3.1c-0.2-3.5-0.3-7.2-0.3-11c0-6.6,0.4-14.9,1.1-24.9
		c1.2-15.2,1.8-23.6,2-25.2c0.1-1.4,1.2-2.1,3.5-2.1c1.1-0.1,2.6,0.7,4.7,2.4c2,3.8,4.5,10,7.4,18.6c2.8,8.2,5.4,14.4,7.7,18.7
		c0.9-8.3,2.4-20.9,4.4-37.8c0.2-1.3,1.1-1.9,2.7-1.9c0.6,0,1.2,0.1,2,0.3c1,0.3,1.6,0.4,1.8,0.5C441.6,13,442,13.4,442.2,14z"/>
	<path class="st1" d="M494.3,12.4c-0.6,2.3-1.6,3.6-3.2,3.9c-4.1,1-11.2,2.3-21.2,3.9c-1.3,15.6-1.9,28.6-1.9,39
		c0,3.9,0.1,7.8,0.2,11.7c0.1,1.2,0,2.1-0.2,2.7c-0.3,1-0.9,1.5-1.9,1.4c-1.8-0.1-3.3-0.8-4.5-2.3c-1.2-1.5-1.8-3.1-2-4.9
		c-0.1-2.3-0.2-4.8-0.2-7.3c0-4.1,0.3-10.7,0.8-19.6c0.6-8.6,0.8-15.1,0.8-19.6c-1.7-0.1-4,0-7,0.5c-3.4,0.5-5.8,0.8-7.1,0.8
		c-3.1,0-5.6-0.8-7.5-2.5c-0.8-1.6-1.1-2.5-1.1-2.6c0-0.4,0.2-0.9,0.7-1.4c2-0.7,6.1-1.3,12.3-1.9c5.5-0.6,9.5-1.6,12.2-3
		c2.2,0.8,4.7,1.1,7.5,1.1s5.5-0.3,8.1-1c0.8-0.1,2.7-0.5,5.7-1.3c2.3-0.6,4.1-0.8,5.6-0.6c1.1,0,1.6,0.5,1.4,1.4
		C493.5,10.7,494.3,11.3,494.3,12.4z"/>
	<path class="st1" d="M520.1,71.7c0.2,0.2,0.3,0.5,0.3,0.8c0,1.4-1.5,2.5-4.5,3.3c-3.3-2.6-7.5-6.5-12.4-11.8
		c-5.5-6-9.6-10.1-12.3-12.4c-0.2,1.6-0.5,5.9-1,12.8c-0.3,5.2-0.9,9.3-1.7,12.4c-0.1,0-0.5,0.2-1.2,0.5c-0.7,0.3-1.2,0.4-1.6,0.3
		c-2.8-0.6-4.1-2.5-4.1-5.7c0-0.9,0.1-2.2,0.4-3.8c0.2-1.8,0.4-2.9,0.5-3.4c0.2-3.6,0.4-8,0.5-13V41.4c0-8.5,0.5-15.7,1.4-21.5
		c0.6-3.9,4.3-5.7,11-5.4c3.4,0.1,6.3,1.8,8.8,5.1c2.3,3,3.5,6.3,3.5,9.8c0,2.9-1.1,5.9-3.3,8.8c-1.9,2.6-4.2,4.7-7,6.2
		c-1.1,0.6-1.7,1.3-1.7,2.1c0,0.8,0.7,1.8,2,2.9c1,0.8,2,1.6,3,2.4c0.1,0.1,3.5,3.2,10.3,9.4C515.2,65.1,518.3,68.6,520.1,71.7z
		 M500.3,29.5c0.2-1.1,0.2-2.1,0.2-3c-0.2-1.3-0.7-2.5-1.6-3.6c-0.9-1.1-2.4-1.6-4.4-1.6c-1.5,0-2.4,0.5-2.8,1.4
		c-0.3,1.6-0.5,3.4-0.5,5.4c0,0.8,0.1,2.9,0.3,6.3c0.1,2.6,0.1,4.7,0,6.3C496.6,36.8,499.6,33,500.3,29.5z"/>
	<path class="st1" d="M545.8,15.4c-1.8,7.1-5,16.3-9.7,27.6c-5.5,13.2-9.1,22.3-10.6,27.4c-0.3,1-0.5,2.3-0.5,3.8
		c0.1,2.1,0.1,3.4,0,3.9c-0.2,2.2-1.3,3.3-3.5,3.3c-1.1,0.1-2.2-0.2-3.4-1.1c-1.2-0.8-1.8-1.7-1.7-2.7c0.2-4.6,1.3-9.8,3.5-15.7
		c1.9-5,3.9-10,5.8-15c-4.5-11.9-8.2-20.6-11.4-26.1c-0.2-0.3-0.3-0.6-0.3-0.9c0-0.7,0.4-1.3,1.2-1.9c0.8-0.6,1.6-0.9,2.3-0.9
		c0.1,0,1.3,0.3,3.6,1c1.6,2.4,3.2,5.5,4.9,9.2c1.4,3.2,2.9,6.4,4.2,9.6c1.3-3.8,2.5-7.5,3.8-11.2c1.4-4.3,3-7.9,4.8-10.7
		c0.5-0.9,1.4-1.3,2.6-1.3C543.2,13.6,544.7,14.2,545.8,15.4z"/>
	<path class="st1" d="M620.3,12.4c-0.6,2.3-1.6,3.6-3.2,3.9c-4.1,1-11.2,2.3-21.2,3.9c-1.3,15.6-1.9,28.6-1.9,39
		c0,3.9,0.1,7.8,0.2,11.7c0.1,1.2,0,2.1-0.2,2.7c-0.3,1-0.9,1.5-1.9,1.4c-1.8-0.1-3.3-0.8-4.5-2.3c-1.2-1.5-1.8-3.1-2-4.9
		c-0.1-2.3-0.2-4.8-0.2-7.3c0-4.1,0.3-10.7,0.8-19.6c0.6-8.6,0.8-15.1,0.8-19.6c-1.7-0.1-4,0-7,0.5c-3.4,0.5-5.8,0.8-7.1,0.8
		c-3.1,0-5.6-0.8-7.5-2.5c-0.8-1.6-1.1-2.5-1.1-2.6c0-0.4,0.2-0.9,0.7-1.4c2-0.7,6.1-1.3,12.3-1.9c5.5-0.6,9.5-1.6,12.2-3
		c2.2,0.8,4.7,1.1,7.5,1.1s5.5-0.3,8.1-1c0.8-0.1,2.7-0.5,5.7-1.3c2.3-0.6,4.1-0.8,5.6-0.6c1.1,0,1.6,0.5,1.4,1.4
		C619.4,10.7,620.3,11.3,620.3,12.4z"/>
	<path class="st1" d="M639.7,50.7C636,59,630.7,64,624,65.5c-0.8,0.2-1.6,0.3-2.4,0.3c-3.6,0-7.2-1.9-10.8-5.8
		c-2.4-2.6-3.7-6-3.7-10.2c0-4.6,1.4-9.6,4.1-14.9c1.2-2.3,2.6-4.2,4.3-5.8c1.9-1.9,3.8-2.9,5.5-2.9c1,0,1.9,0.4,2.8,1.1
		c0.9,0.8,3.2,1.8,7,3c3,1,5.1,2.7,6.4,5.1c2.2,4.2,3.3,7.8,3.3,10.8C640.6,47.8,640.3,49.3,639.7,50.7z M632.1,44.9
		c-0.4-4.6-1.7-7.3-3.7-8.2c-0.3-0.1-0.6-0.2-0.8-0.2c-0.8,0-1.7,0.6-2.8,1.9c-1.3,1.4-2.2,2.3-2.9,2.5c-0.4,0.2-1.1,0-1.9-0.6
		c-0.8-0.6-1.3-0.8-1.6-0.8c-0.2,0-0.3,0.1-0.5,0.2c-2.2,1.9-3.3,4.8-3.3,8.7c0,2.7,0.6,5,1.9,6.9c1.8,2.6,3.2,3.9,4.4,3.9
		c2.8,0,5.4-1.7,8-5.2C631.4,50.7,632.5,47.7,632.1,44.9z"/>
	<path class="st1" d="M677.6,19.8c-0.4,4.4-1.7,10.2-3.8,17.6c-2.8,9.8-4.5,15.8-4.9,17.9c-1.4,6.3-4,12.1-7.9,17.3
		c-2.4,3.3-5.3,5-8.5,4.9c-2.8-0.1-4.9-1.8-6.3-5.4c-2.4-5.9-3.6-12.8-3.6-20.8c0-4.6,0.4-10.5,1.3-17.7c-0.1,0.6-0.1-1.3-0.1-5.8
		c0-3.9,1.5-5.8,4.5-5.8c0.6,0,1.3,0.2,2,0.5c0.7,0.3,1.4,0.7,2.1,1.1c0.1,3.2,0,7.9-0.3,14.1c-0.3,6.6-0.5,11.4-0.5,14.4
		c0,3.1,0.1,6,0.3,8.6c0.1,1.3,0.7,3.8,1.7,7.5c2.6-2.9,4.7-6.9,6.2-11.8c0.5-1.6,1.5-6.1,3-13.3c1.2-5.5,2.5-9.8,4-13
		c0.4-0.9,0.8-2.5,1.1-5c0.3-2.4,0.7-4.1,1.1-5.1c0.7-1.5,1.9-2.3,3.6-2.3C675.1,17.7,676.7,18.4,677.6,19.8z"/>
	<path class="st1" d="M718.7,71.7c0.2,0.2,0.3,0.5,0.3,0.8c0,1.4-1.5,2.5-4.5,3.3c-3.3-2.6-7.5-6.5-12.4-11.8
		c-5.5-6-9.6-10.1-12.3-12.4c-0.2,1.6-0.5,5.9-1,12.8c-0.3,5.2-0.9,9.3-1.7,12.4c-0.1,0-0.5,0.2-1.2,0.5c-0.7,0.3-1.2,0.4-1.6,0.3
		c-2.8-0.6-4.1-2.5-4.1-5.7c0-0.9,0.1-2.2,0.4-3.8c0.2-1.8,0.4-2.9,0.5-3.4c0.2-3.6,0.4-8,0.5-13V41.4c0-8.5,0.5-15.7,1.4-21.5
		c0.6-3.9,4.3-5.7,11-5.4c3.4,0.1,6.3,1.8,8.8,5.1c2.3,3,3.5,6.3,3.5,9.8c0,2.9-1.1,5.9-3.3,8.8c-1.9,2.6-4.2,4.7-7,6.2
		c-1.1,0.6-1.7,1.3-1.7,2.1c0,0.8,0.7,1.8,2,2.9c1,0.8,2,1.6,3,2.4c0.1,0.1,3.5,3.2,10.3,9.4C713.8,65.1,716.9,68.6,718.7,71.7z
		 M698.9,29.5c0.2-1.1,0.2-2.1,0.2-3c-0.2-1.3-0.7-2.5-1.6-3.6c-0.9-1.1-2.4-1.6-4.4-1.6c-1.5,0-2.4,0.5-2.8,1.4
		c-0.3,1.6-0.5,3.4-0.5,5.4c0,0.8,0.1,2.9,0.3,6.3c0.1,2.6,0.1,4.7,0,6.3C695.2,36.8,698.2,33,698.9,29.5z"/>
</g>
</svg>
