<svg id="new" xmlns="http://www.w3.org/2000/svg" width="411.42" height="376.13" viewBox="0 0 411.42 376.13"><title>newstart-logo</title><path d="M250.16,110.29l-.95-.46a127.65,127.65,0,0,0-144.82,25.1L79,109.58a120.49,120.49,0,0,1,170.42,0C249.68,109.8,249.94,110.06,250.16,110.29Z" transform="translate(-43.74 -74.28)" fill="#c3d900"/><path d="M250.16,110.29,419.86,280l-85.2,85.21L104.39,134.93a127.63,127.63,0,0,1,144.81-25.1l.93.44S250.15,110.28,250.16,110.29Z" transform="translate(-43.74 -74.28)" fill="#85c326"/><path d="M419.86,109.58a121.2,121.2,0,0,1,16.06,19.86,118.67,118.67,0,0,1,13.54,28.68A120.56,120.56,0,0,1,419.86,280L249.45,109.58A120.49,120.49,0,0,1,419.86,109.58Z" transform="translate(-43.74 -74.28)" fill="#f0e400"/><path d="M435.92,129.44a118.67,118.67,0,0,1,13.54,28.68A120.56,120.56,0,0,1,419.86,280L285.37,145.5A120.53,120.53,0,0,1,435.92,129.44Z" transform="translate(-43.74 -74.28)" fill="#c3d900"/><path d="M449.46,158.12A120.56,120.56,0,0,1,419.86,280l-92.28-92.27A120.47,120.47,0,0,1,449.46,158.12Z" transform="translate(-43.74 -74.28)" fill="#21c6f9"/><path d="M455.16,194.84A120.11,120.11,0,0,1,419.86,280L370,230.14A120.18,120.18,0,0,1,455.16,194.84Z" transform="translate(-43.74 -74.28)" fill="#0093b5"/><path d="M79,280l.25-.25.47,1Z" transform="translate(-43.74 -74.28)" fill="#1f7732"/><path d="M79,109.57l25.36,25.36a127.63,127.63,0,0,0-25.1,144.81c.15.32.3.63.46.95A120.5,120.5,0,0,1,79,109.57Z" transform="translate(-43.74 -74.28)" fill="#3fb23c"/><path d="M104.39,134.93,334.66,365.2l-85.21,85.21L79.76,280.72a0,0,0,0,0,0,0c-.16-.32-.31-.63-.46-.95a127.63,127.63,0,0,1,25.1-144.81Z" transform="translate(-43.74 -74.28)" fill="#1f7732"/></svg>